<?xml version="1.0" encoding="utf-8" standalone="no"?>
<!DOCTYPE svg PUBLIC "-//W3C//DTD SVG 1.1//EN"
  "http://www.w3.org/Graphics/SVG/1.1/DTD/svg11.dtd">
<svg xmlns:xlink="http://www.w3.org/1999/xlink" width="1080pt" height="720pt" viewBox="0 0 1080 720" xmlns="http://www.w3.org/2000/svg" version="1.1">
 <metadata>
  <rdf:RDF xmlns:dc="http://purl.org/dc/elements/1.1/" xmlns:cc="http://creativecommons.org/ns#" xmlns:rdf="http://www.w3.org/1999/02/22-rdf-syntax-ns#">
   <cc:Work>
    <dc:type rdf:resource="http://purl.org/dc/dcmitype/StillImage"/>
    <dc:date>2024-05-29T14:59:10.253646</dc:date>
    <dc:format>image/svg+xml</dc:format>
    <dc:creator>
     <cc:Agent>
      <dc:title>Matplotlib v3.8.4, https://matplotlib.org/</dc:title>
     </cc:Agent>
    </dc:creator>
   </cc:Work>
  </rdf:RDF>
 </metadata>
 <defs>
  <style type="text/css">*{stroke-linejoin: round; stroke-linecap: butt}</style>
 </defs>
 <g id="figure_1">
  <g id="patch_1">
   <path d="M 0 720 
L 1080 720 
L 1080 0 
L 0 0 
z
" style="fill: #ffffff"/>
  </g>
  <g id="axes_1">
   <g id="patch_2">
    <path d="M 135 249.458824 
L 972 249.458824 
L 972 86.4 
L 135 86.4 
z
" style="fill: #ffffff"/>
   </g>
   <g id="PolyCollection_1">
    <defs>
     <path id="mf211c0c998" d="M 173.045455 -477.952941 
L 173.045455 -477.952941 
L 199.28577 -487.334497 
L 225.526085 -493.14103 
L 251.746384 -497.889606 
L 278.006715 -502.083583 
L 304.186983 -508.962417 
L 330.447314 -515.548444 
L 356.707645 -520.769363 
L 382.967975 -525.819871 
L 409.228306 -533.775165 
L 435.328512 -535.443423 
L 461.588843 -538.751423 
L 487.849174 -545.14689 
L 514.109504 -548.861027 
L 540.369835 -554.859773 
L 566.630165 -559.496773 
L 592.890496 -564.275937 
L 619.150826 -570.515538 
L 645.411157 -574.453366 
L 671.35124 -574.970919 
L 697.61157 -578.040407 
L 723.871901 -583.024679 
L 750.132231 -585.457878 
L 776.392562 -591.836802 
L 802.652893 -591.842594 
L 828.913223 -592.30522 
L 855.173554 -600.623397 
L 881.433884 -600.842122 
L 907.694215 -604.934904 
L 933.954545 -606.000876 
L 933.954545 -612.013286 
L 933.954545 -612.013286 
L 907.694215 -609.966322 
L 881.433884 -607.054306 
L 855.173554 -607.473678 
L 828.913223 -600.404361 
L 802.652893 -598.862373 
L 776.392562 -599.304511 
L 750.132231 -592.766467 
L 723.871901 -589.273129 
L 697.61157 -588.328099 
L 671.35124 -585.457878 
L 645.411157 -578.546121 
L 619.150826 -575.229048 
L 592.890496 -568.643021 
L 566.630165 -566.201718 
L 540.369835 -560.917795 
L 514.109504 -556.905578 
L 487.849174 -552.189075 
L 461.588843 -546.394867 
L 435.328512 -539.402996 
L 409.228306 -540.706028 
L 382.967975 -533.099408 
L 356.707645 -525.108384 
L 330.447314 -521.501034 
L 304.186983 -514.023818 
L 278.006715 -507.371161 
L 251.746384 -502.083583 
L 225.526085 -498.737544 
L 199.28577 -487.334497 
L 173.045455 -477.952941 
z
" style="stroke: #edd1cb; stroke-opacity: 0.2"/>
    </defs>
    <g clip-path="url(#paef5d2897c)">
     <use xlink:href="#mf211c0c998" x="0" y="720" style="fill: #edd1cb; fill-opacity: 0.2; stroke: #edd1cb; stroke-opacity: 0.2"/>
    </g>
   </g>
   <g id="PolyCollection_2">
    <defs>
     <path id="m78c4f0d952" d="M 173.045455 -477.952941 
L 173.045455 -477.952941 
L 199.28577 -487.334497 
L 225.526085 -493.57879 
L 251.746384 -499.159777 
L 278.006715 -508.566134 
L 304.186983 -511.708339 
L 330.447314 -521.865577 
L 356.707645 -523.31522 
L 382.967975 -528.284628 
L 409.228306 -540.375239 
L 435.328512 -539.402996 
L 461.588843 -546.083815 
L 487.849174 -551.288501 
L 514.109504 -559.496773 
L 540.369835 -561.757153 
L 566.630165 -564.55252 
L 592.890496 -566.201718 
L 619.150826 -571.575462 
L 645.411157 -577.526682 
L 671.35124 -579.803222 
L 697.61157 -582.040585 
L 723.871901 -585.216273 
L 750.132231 -590.679941 
L 776.392562 -591.37858 
L 802.652893 -596.856968 
L 828.913223 -597.081078 
L 855.173554 -605.365358 
L 881.433884 -606.212136 
L 907.694215 -610.377886 
L 933.954545 -610.583259 
L 933.954545 -616.818276 
L 933.954545 -616.818276 
L 907.694215 -616.225748 
L 881.433884 -612.216501 
L 855.173554 -614.43443 
L 828.913223 -603.442995 
L 802.652893 -601.713946 
L 776.392562 -597.081078 
L 750.132231 -596.182682 
L 723.871901 -591.610761 
L 697.61157 -591.146051 
L 671.35124 -589.279018 
L 645.411157 -580.801601 
L 619.150826 -577.278724 
L 592.890496 -570.515538 
L 566.630165 -569.982841 
L 540.369835 -567.833525 
L 514.109504 -568.103828 
L 487.849174 -557.195641 
L 461.588843 -551.589275 
L 435.328512 -547.015101 
L 409.228306 -547.015101 
L 382.967975 -534.791675 
L 356.707645 -530.02144 
L 330.447314 -526.881006 
L 304.186983 -517.058195 
L 278.006715 -514.023818 
L 251.746384 -503.319927 
L 225.526085 -498.314156 
L 199.28577 -490.041533 
L 173.045455 -477.952941 
z
" style="stroke: #c8879e; stroke-opacity: 0.2"/>
    </defs>
    <g clip-path="url(#paef5d2897c)">
     <use xlink:href="#m78c4f0d952" x="0" y="720" style="fill: #c8879e; fill-opacity: 0.2; stroke: #c8879e; stroke-opacity: 0.2"/>
    </g>
   </g>
   <g id="PolyCollection_3">
    <defs>
     <path id="m401cef4afc" d="M 173.045455 -477.952941 
L 173.045455 -477.952941 
L 199.28577 -487.334497 
L 225.526085 -497.889606 
L 251.746384 -503.729857 
L 278.006715 -511.319035 
L 304.186983 -515.168693 
L 330.447314 -528.633554 
L 356.707645 -528.284628 
L 382.967975 -537.110387 
L 409.228306 -541.341413 
L 435.328512 -543.572632 
L 461.588843 -548.248162 
L 487.849174 -557.48516 
L 514.109504 -556.89832 
L 540.369835 -563.164634 
L 566.630165 -566.747568 
L 592.890496 -568.643021 
L 619.150826 -574.712359 
L 645.411157 -579.295326 
L 671.35124 -581.546181 
L 697.61157 -585.939961 
L 723.871901 -589.508488 
L 750.132231 -592.074079 
L 776.392562 -594.825232 
L 802.652893 -600.623397 
L 828.913223 -601.49645 
L 855.173554 -604.08644 
L 881.433884 -610.377886 
L 907.694215 -609.553659 
L 933.954545 -610.172241 
L 933.954545 -616.230695 
L 933.954545 -616.230695 
L 907.694215 -615.033843 
L 881.433884 -613.43022 
L 855.173554 -608.314235 
L 828.913223 -607.054306 
L 802.652893 -604.72722 
L 776.392562 -597.974289 
L 750.132231 -595.957266 
L 723.871901 -595.505446 
L 697.61157 -593.913605 
L 671.35124 -585.699107 
L 645.411157 -584.246061 
L 619.150826 -581.546181 
L 592.890496 -575.229048 
L 566.630165 -573.413037 
L 540.369835 -570.787836 
L 514.109504 -561.489617 
L 487.849174 -561.764187 
L 461.588843 -554.859773 
L 435.328512 -549.166552 
L 409.228306 -546.394867 
L 382.967975 -539.727756 
L 356.707645 -535.460099 
L 330.447314 -534.783301 
L 304.186983 -520.043426 
L 278.006715 -515.936723 
L 251.746384 -507.371161 
L 225.526085 -503.319927 
L 199.28577 -488.693934 
L 173.045455 -477.952941 
z
" style="stroke: #834c7d; stroke-opacity: 0.2"/>
    </defs>
    <g clip-path="url(#paef5d2897c)">
     <use xlink:href="#m401cef4afc" x="0" y="720" style="fill: #834c7d; fill-opacity: 0.2; stroke: #834c7d; stroke-opacity: 0.2"/>
    </g>
   </g>
   <g id="PolyCollection_4">
    <defs>
     <path id="m652ffea4ed" d="M 173.045455 -477.952941 
L 173.045455 -477.952941 
L 199.28577 -490.041533 
L 225.526085 -501.669263 
L 251.746384 -509.357687 
L 278.006715 -515.159187 
L 304.186983 -520.025004 
L 330.447314 -529.329053 
L 356.707645 -532.420686 
L 382.967975 -536.780081 
L 409.228306 -546.076031 
L 435.328512 -548.248162 
L 461.588843 -555.447054 
L 487.849174 -556.905578 
L 514.109504 -566.201718 
L 540.369835 -566.747568 
L 566.630165 -569.180342 
L 592.890496 -576.257279 
L 619.150826 -579.301606 
L 645.411157 -583.269728 
L 671.35124 -585.457878 
L 697.61157 -590.212424 
L 723.871901 -589.273129 
L 750.132231 -594.142016 
L 776.392562 -598.862373 
L 802.652893 -601.931136 
L 828.913223 -604.300328 
L 855.173554 -608.932595 
L 881.433884 -610.377886 
L 907.694215 -615.432166 
L 933.954545 -617.996568 
L 933.954545 -626.188235 
L 933.954545 -626.188235 
L 907.694215 -620.133741 
L 881.433884 -615.233132 
L 855.173554 -615.432166 
L 828.913223 -609.139894 
L 802.652893 -606.844193 
L 776.392562 -604.513921 
L 750.132231 -599.965359 
L 723.871901 -596.856968 
L 697.61157 -594.37009 
L 671.35124 -591.146051 
L 645.411157 -591.842594 
L 619.150826 -584.246061 
L 592.890496 -583.024679 
L 566.630165 -574.459846 
L 540.369835 -576.000861 
L 514.109504 -571.575462 
L 487.849174 -563.728228 
L 461.588843 -560.634633 
L 435.328512 -553.381746 
L 409.228306 -552.189075 
L 382.967975 -541.982193 
L 356.707645 -537.439989 
L 330.447314 -536.117346 
L 304.186983 -524.751409 
L 278.006715 -519.665327 
L 251.746384 -512.484021 
L 225.526085 -507.770511 
L 199.28577 -494.450614 
L 173.045455 -477.952941 
z
" style="stroke: #2d1e3e; stroke-opacity: 0.2"/>
    </defs>
    <g clip-path="url(#paef5d2897c)">
     <use xlink:href="#m652ffea4ed" x="0" y="720" style="fill: #2d1e3e; fill-opacity: 0.2; stroke: #2d1e3e; stroke-opacity: 0.2"/>
    </g>
   </g>
   <g id="matplotlib.axis_1">
    <g id="xtick_1">
     <g id="line2d_1">
      <defs>
       <path id="m317a64e401" d="M 0 0 
L 0 3.5 
" style="stroke: #000000; stroke-width: 0.8"/>
      </defs>
      <g>
       <use xlink:href="#m317a64e401" x="173.045455" y="249.458824" style="stroke: #000000; stroke-width: 0.8"/>
      </g>
     </g>
     <g id="text_1">
      <!-- 0.00 -->
      <g transform="translate(161.912642 264.057261) scale(0.1 -0.1)">
       <defs>
        <path id="DejaVuSans-30" d="M 2034 4250 
Q 1547 4250 1301 3770 
Q 1056 3291 1056 2328 
Q 1056 1369 1301 889 
Q 1547 409 2034 409 
Q 2525 409 2770 889 
Q 3016 1369 3016 2328 
Q 3016 3291 2770 3770 
Q 2525 4250 2034 4250 
z
M 2034 4750 
Q 2819 4750 3233 4129 
Q 3647 3509 3647 2328 
Q 3647 1150 3233 529 
Q 2819 -91 2034 -91 
Q 1250 -91 836 529 
Q 422 1150 422 2328 
Q 422 3509 836 4129 
Q 1250 4750 2034 4750 
z
" transform="scale(0.015625)"/>
        <path id="DejaVuSans-2e" d="M 684 794 
L 1344 794 
L 1344 0 
L 684 0 
L 684 794 
z
" transform="scale(0.015625)"/>
       </defs>
       <use xlink:href="#DejaVuSans-30"/>
       <use xlink:href="#DejaVuSans-2e" x="63.623047"/>
       <use xlink:href="#DejaVuSans-30" x="95.410156"/>
       <use xlink:href="#DejaVuSans-30" x="159.033203"/>
      </g>
     </g>
    </g>
    <g id="xtick_2">
     <g id="line2d_2">
      <g>
       <use xlink:href="#m317a64e401" x="304.219008" y="249.458824" style="stroke: #000000; stroke-width: 0.8"/>
      </g>
     </g>
     <g id="text_2">
      <!-- 0.05 -->
      <g transform="translate(293.086196 264.057261) scale(0.1 -0.1)">
       <defs>
        <path id="DejaVuSans-35" d="M 691 4666 
L 3169 4666 
L 3169 4134 
L 1269 4134 
L 1269 2991 
Q 1406 3038 1543 3061 
Q 1681 3084 1819 3084 
Q 2600 3084 3056 2656 
Q 3513 2228 3513 1497 
Q 3513 744 3044 326 
Q 2575 -91 1722 -91 
Q 1428 -91 1123 -41 
Q 819 9 494 109 
L 494 744 
Q 775 591 1075 516 
Q 1375 441 1709 441 
Q 2250 441 2565 725 
Q 2881 1009 2881 1497 
Q 2881 1984 2565 2268 
Q 2250 2553 1709 2553 
Q 1456 2553 1204 2497 
Q 953 2441 691 2322 
L 691 4666 
z
" transform="scale(0.015625)"/>
       </defs>
       <use xlink:href="#DejaVuSans-30"/>
       <use xlink:href="#DejaVuSans-2e" x="63.623047"/>
       <use xlink:href="#DejaVuSans-30" x="95.410156"/>
       <use xlink:href="#DejaVuSans-35" x="159.033203"/>
      </g>
     </g>
    </g>
    <g id="xtick_3">
     <g id="line2d_3">
      <g>
       <use xlink:href="#m317a64e401" x="435.392562" y="249.458824" style="stroke: #000000; stroke-width: 0.8"/>
      </g>
     </g>
     <g id="text_3">
      <!-- 0.10 -->
      <g transform="translate(424.259749 264.057261) scale(0.1 -0.1)">
       <defs>
        <path id="DejaVuSans-31" d="M 794 531 
L 1825 531 
L 1825 4091 
L 703 3866 
L 703 4441 
L 1819 4666 
L 2450 4666 
L 2450 531 
L 3481 531 
L 3481 0 
L 794 0 
L 794 531 
z
" transform="scale(0.015625)"/>
       </defs>
       <use xlink:href="#DejaVuSans-30"/>
       <use xlink:href="#DejaVuSans-2e" x="63.623047"/>
       <use xlink:href="#DejaVuSans-31" x="95.410156"/>
       <use xlink:href="#DejaVuSans-30" x="159.033203"/>
      </g>
     </g>
    </g>
    <g id="xtick_4">
     <g id="line2d_4">
      <g>
       <use xlink:href="#m317a64e401" x="566.566116" y="249.458824" style="stroke: #000000; stroke-width: 0.8"/>
      </g>
     </g>
     <g id="text_4">
      <!-- 0.15 -->
      <g transform="translate(555.433303 264.057261) scale(0.1 -0.1)">
       <use xlink:href="#DejaVuSans-30"/>
       <use xlink:href="#DejaVuSans-2e" x="63.623047"/>
       <use xlink:href="#DejaVuSans-31" x="95.410156"/>
       <use xlink:href="#DejaVuSans-35" x="159.033203"/>
      </g>
     </g>
    </g>
    <g id="xtick_5">
     <g id="line2d_5">
      <g>
       <use xlink:href="#m317a64e401" x="697.739669" y="249.458824" style="stroke: #000000; stroke-width: 0.8"/>
      </g>
     </g>
     <g id="text_5">
      <!-- 0.20 -->
      <g transform="translate(686.606857 264.057261) scale(0.1 -0.1)">
       <defs>
        <path id="DejaVuSans-32" d="M 1228 531 
L 3431 531 
L 3431 0 
L 469 0 
L 469 531 
Q 828 903 1448 1529 
Q 2069 2156 2228 2338 
Q 2531 2678 2651 2914 
Q 2772 3150 2772 3378 
Q 2772 3750 2511 3984 
Q 2250 4219 1831 4219 
Q 1534 4219 1204 4116 
Q 875 4013 500 3803 
L 500 4441 
Q 881 4594 1212 4672 
Q 1544 4750 1819 4750 
Q 2544 4750 2975 4387 
Q 3406 4025 3406 3419 
Q 3406 3131 3298 2873 
Q 3191 2616 2906 2266 
Q 2828 2175 2409 1742 
Q 1991 1309 1228 531 
z
" transform="scale(0.015625)"/>
       </defs>
       <use xlink:href="#DejaVuSans-30"/>
       <use xlink:href="#DejaVuSans-2e" x="63.623047"/>
       <use xlink:href="#DejaVuSans-32" x="95.410156"/>
       <use xlink:href="#DejaVuSans-30" x="159.033203"/>
      </g>
     </g>
    </g>
    <g id="xtick_6">
     <g id="line2d_6">
      <g>
       <use xlink:href="#m317a64e401" x="828.913223" y="249.458824" style="stroke: #000000; stroke-width: 0.8"/>
      </g>
     </g>
     <g id="text_6">
      <!-- 0.25 -->
      <g transform="translate(817.780411 264.057261) scale(0.1 -0.1)">
       <use xlink:href="#DejaVuSans-30"/>
       <use xlink:href="#DejaVuSans-2e" x="63.623047"/>
       <use xlink:href="#DejaVuSans-32" x="95.410156"/>
       <use xlink:href="#DejaVuSans-35" x="159.033203"/>
      </g>
     </g>
    </g>
    <g id="xtick_7">
     <g id="line2d_7">
      <g>
       <use xlink:href="#m317a64e401" x="960.086777" y="249.458824" style="stroke: #000000; stroke-width: 0.8"/>
      </g>
     </g>
     <g id="text_7">
      <!-- 0.30 -->
      <g transform="translate(948.953964 264.057261) scale(0.1 -0.1)">
       <defs>
        <path id="DejaVuSans-33" d="M 2597 2516 
Q 3050 2419 3304 2112 
Q 3559 1806 3559 1356 
Q 3559 666 3084 287 
Q 2609 -91 1734 -91 
Q 1441 -91 1130 -33 
Q 819 25 488 141 
L 488 750 
Q 750 597 1062 519 
Q 1375 441 1716 441 
Q 2309 441 2620 675 
Q 2931 909 2931 1356 
Q 2931 1769 2642 2001 
Q 2353 2234 1838 2234 
L 1294 2234 
L 1294 2753 
L 1863 2753 
Q 2328 2753 2575 2939 
Q 2822 3125 2822 3475 
Q 2822 3834 2567 4026 
Q 2313 4219 1838 4219 
Q 1578 4219 1281 4162 
Q 984 4106 628 3988 
L 628 4550 
Q 988 4650 1302 4700 
Q 1616 4750 1894 4750 
Q 2613 4750 3031 4423 
Q 3450 4097 3450 3541 
Q 3450 3153 3228 2886 
Q 3006 2619 2597 2516 
z
" transform="scale(0.015625)"/>
       </defs>
       <use xlink:href="#DejaVuSans-30"/>
       <use xlink:href="#DejaVuSans-2e" x="63.623047"/>
       <use xlink:href="#DejaVuSans-33" x="95.410156"/>
       <use xlink:href="#DejaVuSans-30" x="159.033203"/>
      </g>
     </g>
    </g>
    <g id="text_8">
     <!-- proba_3 -->
     <g transform="translate(533.403906 277.735386) scale(0.1 -0.1)">
      <defs>
       <path id="DejaVuSans-70" d="M 1159 525 
L 1159 -1331 
L 581 -1331 
L 581 3500 
L 1159 3500 
L 1159 2969 
Q 1341 3281 1617 3432 
Q 1894 3584 2278 3584 
Q 2916 3584 3314 3078 
Q 3713 2572 3713 1747 
Q 3713 922 3314 415 
Q 2916 -91 2278 -91 
Q 1894 -91 1617 61 
Q 1341 213 1159 525 
z
M 3116 1747 
Q 3116 2381 2855 2742 
Q 2594 3103 2138 3103 
Q 1681 3103 1420 2742 
Q 1159 2381 1159 1747 
Q 1159 1113 1420 752 
Q 1681 391 2138 391 
Q 2594 391 2855 752 
Q 3116 1113 3116 1747 
z
" transform="scale(0.015625)"/>
       <path id="DejaVuSans-72" d="M 2631 2963 
Q 2534 3019 2420 3045 
Q 2306 3072 2169 3072 
Q 1681 3072 1420 2755 
Q 1159 2438 1159 1844 
L 1159 0 
L 581 0 
L 581 3500 
L 1159 3500 
L 1159 2956 
Q 1341 3275 1631 3429 
Q 1922 3584 2338 3584 
Q 2397 3584 2469 3576 
Q 2541 3569 2628 3553 
L 2631 2963 
z
" transform="scale(0.015625)"/>
       <path id="DejaVuSans-6f" d="M 1959 3097 
Q 1497 3097 1228 2736 
Q 959 2375 959 1747 
Q 959 1119 1226 758 
Q 1494 397 1959 397 
Q 2419 397 2687 759 
Q 2956 1122 2956 1747 
Q 2956 2369 2687 2733 
Q 2419 3097 1959 3097 
z
M 1959 3584 
Q 2709 3584 3137 3096 
Q 3566 2609 3566 1747 
Q 3566 888 3137 398 
Q 2709 -91 1959 -91 
Q 1206 -91 779 398 
Q 353 888 353 1747 
Q 353 2609 779 3096 
Q 1206 3584 1959 3584 
z
" transform="scale(0.015625)"/>
       <path id="DejaVuSans-62" d="M 3116 1747 
Q 3116 2381 2855 2742 
Q 2594 3103 2138 3103 
Q 1681 3103 1420 2742 
Q 1159 2381 1159 1747 
Q 1159 1113 1420 752 
Q 1681 391 2138 391 
Q 2594 391 2855 752 
Q 3116 1113 3116 1747 
z
M 1159 2969 
Q 1341 3281 1617 3432 
Q 1894 3584 2278 3584 
Q 2916 3584 3314 3078 
Q 3713 2572 3713 1747 
Q 3713 922 3314 415 
Q 2916 -91 2278 -91 
Q 1894 -91 1617 61 
Q 1341 213 1159 525 
L 1159 0 
L 581 0 
L 581 4863 
L 1159 4863 
L 1159 2969 
z
" transform="scale(0.015625)"/>
       <path id="DejaVuSans-61" d="M 2194 1759 
Q 1497 1759 1228 1600 
Q 959 1441 959 1056 
Q 959 750 1161 570 
Q 1363 391 1709 391 
Q 2188 391 2477 730 
Q 2766 1069 2766 1631 
L 2766 1759 
L 2194 1759 
z
M 3341 1997 
L 3341 0 
L 2766 0 
L 2766 531 
Q 2569 213 2275 61 
Q 1981 -91 1556 -91 
Q 1019 -91 701 211 
Q 384 513 384 1019 
Q 384 1609 779 1909 
Q 1175 2209 1959 2209 
L 2766 2209 
L 2766 2266 
Q 2766 2663 2505 2880 
Q 2244 3097 1772 3097 
Q 1472 3097 1187 3025 
Q 903 2953 641 2809 
L 641 3341 
Q 956 3463 1253 3523 
Q 1550 3584 1831 3584 
Q 2591 3584 2966 3190 
Q 3341 2797 3341 1997 
z
" transform="scale(0.015625)"/>
       <path id="DejaVuSans-5f" d="M 3263 -1063 
L 3263 -1509 
L -63 -1509 
L -63 -1063 
L 3263 -1063 
z
" transform="scale(0.015625)"/>
      </defs>
      <use xlink:href="#DejaVuSans-70"/>
      <use xlink:href="#DejaVuSans-72" x="63.476562"/>
      <use xlink:href="#DejaVuSans-6f" x="102.339844"/>
      <use xlink:href="#DejaVuSans-62" x="163.521484"/>
      <use xlink:href="#DejaVuSans-61" x="226.998047"/>
      <use xlink:href="#DejaVuSans-5f" x="288.277344"/>
      <use xlink:href="#DejaVuSans-33" x="338.277344"/>
     </g>
    </g>
   </g>
   <g id="matplotlib.axis_2">
    <g id="ytick_1">
     <g id="line2d_8">
      <defs>
       <path id="m92fb6f49e3" d="M 0 0 
L -3.5 0 
" style="stroke: #000000; stroke-width: 0.8"/>
      </defs>
      <g>
       <use xlink:href="#m92fb6f49e3" x="135" y="172.984899" style="stroke: #000000; stroke-width: 0.8"/>
      </g>
     </g>
     <g id="text_9">
      <!-- $\mathdefault{10^{2}}$ -->
      <g transform="translate(110.4 176.784118) scale(0.1 -0.1)">
       <use xlink:href="#DejaVuSans-31" transform="translate(0 0.765625)"/>
       <use xlink:href="#DejaVuSans-30" transform="translate(63.623047 0.765625)"/>
       <use xlink:href="#DejaVuSans-32" transform="translate(128.203125 39.046875) scale(0.7)"/>
      </g>
     </g>
    </g>
    <g id="ytick_2">
     <g id="line2d_9">
      <defs>
       <path id="m784c034e1f" d="M 0 0 
L -2 0 
" style="stroke: #000000; stroke-width: 0.6"/>
      </defs>
      <g>
       <use xlink:href="#m784c034e1f" x="135" y="228.179732" style="stroke: #000000; stroke-width: 0.6"/>
      </g>
     </g>
    </g>
    <g id="ytick_3">
     <g id="line2d_10">
      <g>
       <use xlink:href="#m784c034e1f" x="135" y="207.515979" style="stroke: #000000; stroke-width: 0.6"/>
      </g>
     </g>
    </g>
    <g id="ytick_4">
     <g id="line2d_11">
      <g>
       <use xlink:href="#m784c034e1f" x="135" y="189.289257" style="stroke: #000000; stroke-width: 0.6"/>
      </g>
     </g>
    </g>
    <g id="text_10">
     <!-- R_1 size_sqrt -->
     <g transform="translate(104.042188 200.663006) rotate(-90) scale(0.1 -0.1)">
      <defs>
       <path id="DejaVuSans-52" d="M 2841 2188 
Q 3044 2119 3236 1894 
Q 3428 1669 3622 1275 
L 4263 0 
L 3584 0 
L 2988 1197 
Q 2756 1666 2539 1819 
Q 2322 1972 1947 1972 
L 1259 1972 
L 1259 0 
L 628 0 
L 628 4666 
L 2053 4666 
Q 2853 4666 3247 4331 
Q 3641 3997 3641 3322 
Q 3641 2881 3436 2590 
Q 3231 2300 2841 2188 
z
M 1259 4147 
L 1259 2491 
L 2053 2491 
Q 2509 2491 2742 2702 
Q 2975 2913 2975 3322 
Q 2975 3731 2742 3939 
Q 2509 4147 2053 4147 
L 1259 4147 
z
" transform="scale(0.015625)"/>
       <path id="DejaVuSans-20" transform="scale(0.015625)"/>
       <path id="DejaVuSans-73" d="M 2834 3397 
L 2834 2853 
Q 2591 2978 2328 3040 
Q 2066 3103 1784 3103 
Q 1356 3103 1142 2972 
Q 928 2841 928 2578 
Q 928 2378 1081 2264 
Q 1234 2150 1697 2047 
L 1894 2003 
Q 2506 1872 2764 1633 
Q 3022 1394 3022 966 
Q 3022 478 2636 193 
Q 2250 -91 1575 -91 
Q 1294 -91 989 -36 
Q 684 19 347 128 
L 347 722 
Q 666 556 975 473 
Q 1284 391 1588 391 
Q 1994 391 2212 530 
Q 2431 669 2431 922 
Q 2431 1156 2273 1281 
Q 2116 1406 1581 1522 
L 1381 1569 
Q 847 1681 609 1914 
Q 372 2147 372 2553 
Q 372 3047 722 3315 
Q 1072 3584 1716 3584 
Q 2034 3584 2315 3537 
Q 2597 3491 2834 3397 
z
" transform="scale(0.015625)"/>
       <path id="DejaVuSans-69" d="M 603 3500 
L 1178 3500 
L 1178 0 
L 603 0 
L 603 3500 
z
M 603 4863 
L 1178 4863 
L 1178 4134 
L 603 4134 
L 603 4863 
z
" transform="scale(0.015625)"/>
       <path id="DejaVuSans-7a" d="M 353 3500 
L 3084 3500 
L 3084 2975 
L 922 459 
L 3084 459 
L 3084 0 
L 275 0 
L 275 525 
L 2438 3041 
L 353 3041 
L 353 3500 
z
" transform="scale(0.015625)"/>
       <path id="DejaVuSans-65" d="M 3597 1894 
L 3597 1613 
L 953 1613 
Q 991 1019 1311 708 
Q 1631 397 2203 397 
Q 2534 397 2845 478 
Q 3156 559 3463 722 
L 3463 178 
Q 3153 47 2828 -22 
Q 2503 -91 2169 -91 
Q 1331 -91 842 396 
Q 353 884 353 1716 
Q 353 2575 817 3079 
Q 1281 3584 2069 3584 
Q 2775 3584 3186 3129 
Q 3597 2675 3597 1894 
z
M 3022 2063 
Q 3016 2534 2758 2815 
Q 2500 3097 2075 3097 
Q 1594 3097 1305 2825 
Q 1016 2553 972 2059 
L 3022 2063 
z
" transform="scale(0.015625)"/>
       <path id="DejaVuSans-71" d="M 947 1747 
Q 947 1113 1208 752 
Q 1469 391 1925 391 
Q 2381 391 2643 752 
Q 2906 1113 2906 1747 
Q 2906 2381 2643 2742 
Q 2381 3103 1925 3103 
Q 1469 3103 1208 2742 
Q 947 2381 947 1747 
z
M 2906 525 
Q 2725 213 2448 61 
Q 2172 -91 1784 -91 
Q 1150 -91 751 415 
Q 353 922 353 1747 
Q 353 2572 751 3078 
Q 1150 3584 1784 3584 
Q 2172 3584 2448 3432 
Q 2725 3281 2906 2969 
L 2906 3500 
L 3481 3500 
L 3481 -1331 
L 2906 -1331 
L 2906 525 
z
" transform="scale(0.015625)"/>
       <path id="DejaVuSans-74" d="M 1172 4494 
L 1172 3500 
L 2356 3500 
L 2356 3053 
L 1172 3053 
L 1172 1153 
Q 1172 725 1289 603 
Q 1406 481 1766 481 
L 2356 481 
L 2356 0 
L 1766 0 
Q 1100 0 847 248 
Q 594 497 594 1153 
L 594 3053 
L 172 3053 
L 172 3500 
L 594 3500 
L 594 4494 
L 1172 4494 
z
" transform="scale(0.015625)"/>
      </defs>
      <use xlink:href="#DejaVuSans-52"/>
      <use xlink:href="#DejaVuSans-5f" x="69.482422"/>
      <use xlink:href="#DejaVuSans-31" x="119.482422"/>
      <use xlink:href="#DejaVuSans-20" x="183.105469"/>
      <use xlink:href="#DejaVuSans-73" x="214.892578"/>
      <use xlink:href="#DejaVuSans-69" x="266.992188"/>
      <use xlink:href="#DejaVuSans-7a" x="294.775391"/>
      <use xlink:href="#DejaVuSans-65" x="347.265625"/>
      <use xlink:href="#DejaVuSans-5f" x="408.789062"/>
      <use xlink:href="#DejaVuSans-73" x="458.789062"/>
      <use xlink:href="#DejaVuSans-71" x="510.888672"/>
      <use xlink:href="#DejaVuSans-72" x="574.365234"/>
      <use xlink:href="#DejaVuSans-74" x="615.478516"/>
     </g>
    </g>
   </g>
   <g id="line2d_12">
    <path d="M 173.045455 242.047059 
L 199.28577 232.665503 
L 225.526085 224.250791 
L 251.746384 220.419139 
L 278.006715 215.453528 
L 304.186983 208.680965 
L 330.447314 201.446641 
L 356.707645 197.407904 
L 382.967975 190.324366 
L 409.228306 182.889613 
L 435.328512 182.560011 
L 461.588843 177.698409 
L 487.849174 171.751838 
L 514.109504 167.511894 
L 540.369835 162.22586 
L 566.630165 157.394025 
L 592.890496 153.525116 
L 619.150826 147.109761 
L 645.411157 143.486727 
L 671.35124 140.196778 
L 697.61157 136.730272 
L 723.871901 133.81956 
L 750.132231 131.198665 
L 776.392562 124.494554 
L 802.652893 124.72096 
L 828.913223 123.817318 
L 855.173554 116.342226 
L 881.433884 116.127745 
L 907.694215 112.317061 
L 933.954545 111.067405 
" clip-path="url(#paef5d2897c)" style="fill: none; stroke: #edd1cb; stroke-width: 1.5; stroke-linecap: square"/>
   </g>
   <g id="line2d_13">
    <path d="M 173.045455 242.047059 
L 199.28577 231.306066 
L 225.526085 224.250791 
L 251.746384 218.746168 
L 278.006715 209.071251 
L 304.186983 205.593615 
L 330.447314 195.60639 
L 356.707645 193.118994 
L 382.967975 188.261025 
L 409.228306 176.744151 
L 435.328512 177.061584 
L 461.588843 171.138973 
L 487.849174 165.729745 
L 514.109504 156.278717 
L 540.369835 155.44748 
L 566.630165 152.980228 
L 592.890496 151.626341 
L 619.150826 145.806061 
L 645.411157 140.698394 
L 671.35124 135.02571 
L 697.61157 133.579454 
L 723.871901 131.671901 
L 750.132231 126.773657 
L 776.392562 125.62991 
L 802.652893 120.695489 
L 828.913223 119.595639 
L 855.173554 110.033678 
L 881.433884 110.653085 
L 907.694215 106.771407 
L 933.954545 106.167314 
" clip-path="url(#paef5d2897c)" style="fill: none; stroke: #c8879e; stroke-width: 1.5; stroke-linecap: square"/>
   </g>
   <g id="line2d_14">
    <path d="M 173.045455 242.047059 
L 199.28577 232.211029 
L 225.526085 219.580393 
L 251.746384 214.236628 
L 278.006715 206.359697 
L 304.186983 202.566658 
L 330.447314 188.261025 
L 356.707645 187.919794 
L 382.967975 181.575395 
L 409.228306 175.795742 
L 435.328512 173.605133 
L 461.588843 168.711499 
L 487.849174 160.217977 
L 514.109504 160.503227 
L 540.369835 153.252432 
L 566.630165 149.484462 
L 592.890496 148.424538 
L 619.150826 141.959593 
L 645.411157 138.453819 
L 671.35124 136.485611 
L 697.61157 130.021866 
L 723.871901 127.69478 
L 750.132231 126.086395 
L 776.392562 123.592229 
L 802.652893 117.203137 
L 828.913223 115.91356 
L 855.173554 113.576891 
L 881.433884 108.190196 
L 907.694215 107.58055 
L 933.954545 106.771407 
" clip-path="url(#paef5d2897c)" style="fill: none; stroke: #834c7d; stroke-width: 1.5; stroke-linecap: square"/>
   </g>
   <g id="line2d_15">
    <path d="M 173.045455 242.047059 
L 199.28577 227.738224 
L 225.526085 215.453528 
L 251.746384 209.462524 
L 278.006715 202.566658 
L 304.186983 197.770737 
L 330.447314 187.239581 
L 356.707645 185.216699 
L 382.967975 180.597004 
L 409.228306 171.138973 
L 435.328512 169.314807 
L 461.588843 161.93742 
L 487.849174 159.649049 
L 514.109504 151.088085 
L 540.369835 149.2188 
L 566.630165 148.160688 
L 592.890496 140.196778 
L 619.150826 138.206419 
L 645.411157 132.622739 
L 671.35124 131.909063 
L 697.61157 127.925921 
L 723.871901 127.003424 
L 750.132231 122.918922 
L 776.392562 118.286054 
L 802.652893 115.486079 
L 828.913223 113.155807 
L 855.173554 107.783499 
L 881.433884 107.17545 
L 907.694215 102.3952 
L 933.954545 98.139354 
" clip-path="url(#paef5d2897c)" style="fill: none; stroke: #2d1e3e; stroke-width: 1.5; stroke-linecap: square"/>
   </g>
   <g id="line2d_16"/>
   <g id="line2d_17"/>
   <g id="line2d_18"/>
   <g id="line2d_19"/>
   <g id="patch_3">
    <path d="M 135 249.458824 
L 135 86.4 
" style="fill: none; stroke: #000000; stroke-width: 0.8; stroke-linejoin: miter; stroke-linecap: square"/>
   </g>
   <g id="patch_4">
    <path d="M 972 249.458824 
L 972 86.4 
" style="fill: none; stroke: #000000; stroke-width: 0.8; stroke-linejoin: miter; stroke-linecap: square"/>
   </g>
   <g id="patch_5">
    <path d="M 135 249.458824 
L 972 249.458824 
" style="fill: none; stroke: #000000; stroke-width: 0.8; stroke-linejoin: miter; stroke-linecap: square"/>
   </g>
   <g id="patch_6">
    <path d="M 135 86.4 
L 972 86.4 
" style="fill: none; stroke: #000000; stroke-width: 0.8; stroke-linejoin: miter; stroke-linecap: square"/>
   </g>
   <g id="legend_1">
    <g id="patch_7">
     <path d="M 142 168.06875 
L 253.528125 168.06875 
Q 255.528125 168.06875 255.528125 166.06875 
L 255.528125 93.4 
Q 255.528125 91.4 253.528125 91.4 
L 142 91.4 
Q 140 91.4 140 93.4 
L 140 166.06875 
Q 140 168.06875 142 168.06875 
z
" style="fill: #ffffff; opacity: 0.8; stroke: #cccccc; stroke-linejoin: miter"/>
    </g>
    <g id="text_11">
     <!-- proba_1 -->
     <g transform="translate(177.667969 102.998438) scale(0.1 -0.1)">
      <use xlink:href="#DejaVuSans-70"/>
      <use xlink:href="#DejaVuSans-72" x="63.476562"/>
      <use xlink:href="#DejaVuSans-6f" x="102.339844"/>
      <use xlink:href="#DejaVuSans-62" x="163.521484"/>
      <use xlink:href="#DejaVuSans-61" x="226.998047"/>
      <use xlink:href="#DejaVuSans-5f" x="288.277344"/>
      <use xlink:href="#DejaVuSans-31" x="338.277344"/>
     </g>
    </g>
    <g id="line2d_20">
     <path d="M 144 114.454687 
L 154 114.454687 
L 164 114.454687 
" style="fill: none; stroke: #edd1cb; stroke-width: 1.5; stroke-linecap: square"/>
    </g>
    <g id="text_12">
     <!-- 0.7998046875 -->
     <g transform="translate(172 117.954687) scale(0.1 -0.1)">
      <defs>
       <path id="DejaVuSans-37" d="M 525 4666 
L 3525 4666 
L 3525 4397 
L 1831 0 
L 1172 0 
L 2766 4134 
L 525 4134 
L 525 4666 
z
" transform="scale(0.015625)"/>
       <path id="DejaVuSans-39" d="M 703 97 
L 703 672 
Q 941 559 1184 500 
Q 1428 441 1663 441 
Q 2288 441 2617 861 
Q 2947 1281 2994 2138 
Q 2813 1869 2534 1725 
Q 2256 1581 1919 1581 
Q 1219 1581 811 2004 
Q 403 2428 403 3163 
Q 403 3881 828 4315 
Q 1253 4750 1959 4750 
Q 2769 4750 3195 4129 
Q 3622 3509 3622 2328 
Q 3622 1225 3098 567 
Q 2575 -91 1691 -91 
Q 1453 -91 1209 -44 
Q 966 3 703 97 
z
M 1959 2075 
Q 2384 2075 2632 2365 
Q 2881 2656 2881 3163 
Q 2881 3666 2632 3958 
Q 2384 4250 1959 4250 
Q 1534 4250 1286 3958 
Q 1038 3666 1038 3163 
Q 1038 2656 1286 2365 
Q 1534 2075 1959 2075 
z
" transform="scale(0.015625)"/>
       <path id="DejaVuSans-38" d="M 2034 2216 
Q 1584 2216 1326 1975 
Q 1069 1734 1069 1313 
Q 1069 891 1326 650 
Q 1584 409 2034 409 
Q 2484 409 2743 651 
Q 3003 894 3003 1313 
Q 3003 1734 2745 1975 
Q 2488 2216 2034 2216 
z
M 1403 2484 
Q 997 2584 770 2862 
Q 544 3141 544 3541 
Q 544 4100 942 4425 
Q 1341 4750 2034 4750 
Q 2731 4750 3128 4425 
Q 3525 4100 3525 3541 
Q 3525 3141 3298 2862 
Q 3072 2584 2669 2484 
Q 3125 2378 3379 2068 
Q 3634 1759 3634 1313 
Q 3634 634 3220 271 
Q 2806 -91 2034 -91 
Q 1263 -91 848 271 
Q 434 634 434 1313 
Q 434 1759 690 2068 
Q 947 2378 1403 2484 
z
M 1172 3481 
Q 1172 3119 1398 2916 
Q 1625 2713 2034 2713 
Q 2441 2713 2670 2916 
Q 2900 3119 2900 3481 
Q 2900 3844 2670 4047 
Q 2441 4250 2034 4250 
Q 1625 4250 1398 4047 
Q 1172 3844 1172 3481 
z
" transform="scale(0.015625)"/>
       <path id="DejaVuSans-34" d="M 2419 4116 
L 825 1625 
L 2419 1625 
L 2419 4116 
z
M 2253 4666 
L 3047 4666 
L 3047 1625 
L 3713 1625 
L 3713 1100 
L 3047 1100 
L 3047 0 
L 2419 0 
L 2419 1100 
L 313 1100 
L 313 1709 
L 2253 4666 
z
" transform="scale(0.015625)"/>
       <path id="DejaVuSans-36" d="M 2113 2584 
Q 1688 2584 1439 2293 
Q 1191 2003 1191 1497 
Q 1191 994 1439 701 
Q 1688 409 2113 409 
Q 2538 409 2786 701 
Q 3034 994 3034 1497 
Q 3034 2003 2786 2293 
Q 2538 2584 2113 2584 
z
M 3366 4563 
L 3366 3988 
Q 3128 4100 2886 4159 
Q 2644 4219 2406 4219 
Q 1781 4219 1451 3797 
Q 1122 3375 1075 2522 
Q 1259 2794 1537 2939 
Q 1816 3084 2150 3084 
Q 2853 3084 3261 2657 
Q 3669 2231 3669 1497 
Q 3669 778 3244 343 
Q 2819 -91 2113 -91 
Q 1303 -91 875 529 
Q 447 1150 447 2328 
Q 447 3434 972 4092 
Q 1497 4750 2381 4750 
Q 2619 4750 2861 4703 
Q 3103 4656 3366 4563 
z
" transform="scale(0.015625)"/>
      </defs>
      <use xlink:href="#DejaVuSans-30"/>
      <use xlink:href="#DejaVuSans-2e" x="63.623047"/>
      <use xlink:href="#DejaVuSans-37" x="95.410156"/>
      <use xlink:href="#DejaVuSans-39" x="159.033203"/>
      <use xlink:href="#DejaVuSans-39" x="222.65625"/>
      <use xlink:href="#DejaVuSans-38" x="286.279297"/>
      <use xlink:href="#DejaVuSans-30" x="349.902344"/>
      <use xlink:href="#DejaVuSans-34" x="413.525391"/>
      <use xlink:href="#DejaVuSans-36" x="477.148438"/>
      <use xlink:href="#DejaVuSans-38" x="540.771484"/>
      <use xlink:href="#DejaVuSans-37" x="604.394531"/>
      <use xlink:href="#DejaVuSans-35" x="668.017578"/>
     </g>
    </g>
    <g id="line2d_21">
     <path d="M 144 129.132812 
L 154 129.132812 
L 164 129.132812 
" style="fill: none; stroke: #c8879e; stroke-width: 1.5; stroke-linecap: square"/>
    </g>
    <g id="text_13">
     <!-- 0.85009765625 -->
     <g transform="translate(172 132.632812) scale(0.1 -0.1)">
      <use xlink:href="#DejaVuSans-30"/>
      <use xlink:href="#DejaVuSans-2e" x="63.623047"/>
      <use xlink:href="#DejaVuSans-38" x="95.410156"/>
      <use xlink:href="#DejaVuSans-35" x="159.033203"/>
      <use xlink:href="#DejaVuSans-30" x="222.65625"/>
      <use xlink:href="#DejaVuSans-30" x="286.279297"/>
      <use xlink:href="#DejaVuSans-39" x="349.902344"/>
      <use xlink:href="#DejaVuSans-37" x="413.525391"/>
      <use xlink:href="#DejaVuSans-36" x="477.148438"/>
      <use xlink:href="#DejaVuSans-35" x="540.771484"/>
      <use xlink:href="#DejaVuSans-36" x="604.394531"/>
      <use xlink:href="#DejaVuSans-32" x="668.017578"/>
      <use xlink:href="#DejaVuSans-35" x="731.640625"/>
     </g>
    </g>
    <g id="line2d_22">
     <path d="M 144 143.810938 
L 154 143.810938 
L 164 143.810938 
" style="fill: none; stroke: #834c7d; stroke-width: 1.5; stroke-linecap: square"/>
    </g>
    <g id="text_14">
     <!-- 0.89990234375 -->
     <g transform="translate(172 147.310938) scale(0.1 -0.1)">
      <use xlink:href="#DejaVuSans-30"/>
      <use xlink:href="#DejaVuSans-2e" x="63.623047"/>
      <use xlink:href="#DejaVuSans-38" x="95.410156"/>
      <use xlink:href="#DejaVuSans-39" x="159.033203"/>
      <use xlink:href="#DejaVuSans-39" x="222.65625"/>
      <use xlink:href="#DejaVuSans-39" x="286.279297"/>
      <use xlink:href="#DejaVuSans-30" x="349.902344"/>
      <use xlink:href="#DejaVuSans-32" x="413.525391"/>
      <use xlink:href="#DejaVuSans-33" x="477.148438"/>
      <use xlink:href="#DejaVuSans-34" x="540.771484"/>
      <use xlink:href="#DejaVuSans-33" x="604.394531"/>
      <use xlink:href="#DejaVuSans-37" x="668.017578"/>
      <use xlink:href="#DejaVuSans-35" x="731.640625"/>
     </g>
    </g>
    <g id="line2d_23">
     <path d="M 144 158.489062 
L 154 158.489062 
L 164 158.489062 
" style="fill: none; stroke: #2d1e3e; stroke-width: 1.5; stroke-linecap: square"/>
    </g>
    <g id="text_15">
     <!-- 0.9501953125 -->
     <g transform="translate(172 161.989062) scale(0.1 -0.1)">
      <use xlink:href="#DejaVuSans-30"/>
      <use xlink:href="#DejaVuSans-2e" x="63.623047"/>
      <use xlink:href="#DejaVuSans-39" x="95.410156"/>
      <use xlink:href="#DejaVuSans-35" x="159.033203"/>
      <use xlink:href="#DejaVuSans-30" x="222.65625"/>
      <use xlink:href="#DejaVuSans-31" x="286.279297"/>
      <use xlink:href="#DejaVuSans-39" x="349.902344"/>
      <use xlink:href="#DejaVuSans-35" x="413.525391"/>
      <use xlink:href="#DejaVuSans-33" x="477.148438"/>
      <use xlink:href="#DejaVuSans-31" x="540.771484"/>
      <use xlink:href="#DejaVuSans-32" x="604.394531"/>
      <use xlink:href="#DejaVuSans-35" x="668.017578"/>
     </g>
    </g>
   </g>
  </g>
  <g id="axes_2">
   <g id="patch_8">
    <path d="M 135 445.129412 
L 972 445.129412 
L 972 282.070588 
L 135 282.070588 
z
" style="fill: #ffffff"/>
   </g>
   <g id="PolyCollection_5">
    <path d="M 173.045455 132842.336205 
L 173.045455 132842.336205 
L 199.28577 437.717647 
L 225.526085 405.567322 
L 251.746384 396.47724 
L 278.006715 382.822834 
L 304.186983 375.56717 
L 330.447314 363.334649 
L 356.707645 361.039787 
L 382.967975 353.919175 
L 409.228306 344.116618 
L 435.328512 345.254293 
L 461.588843 340.303323 
L 487.849174 336.727458 
L 514.109504 332.895991 
L 540.369835 327.589078 
L 566.630165 324.705641 
L 592.890496 322.731196 
L 619.150826 318.97491 
L 645.411157 313.103967 
L 671.35124 314.097376 
L 697.61157 312.127445 
L 723.871901 308.682501 
L 750.132231 306.88702 
L 776.392562 304.577133 
L 802.652893 302.356539 
L 828.913223 299.696308 
L 855.173554 298.411004 
L 881.433884 296.905659 
L 907.694215 295.680651 
L 933.954545 293.074192 
L 933.954545 289.913761 
L 933.954545 289.913761 
L 907.694215 291.250207 
L 881.433884 291.700803 
L 855.173554 292.383394 
L 828.913223 294.957991 
L 802.652893 298.411004 
L 776.392562 299.178731 
L 750.132231 301.545456 
L 723.871901 303.456107 
L 697.61157 307.182397 
L 671.35124 308.077751 
L 645.411157 310.85071 
L 619.150826 314.097376 
L 592.890496 318.25225 
L 566.630165 319.706776 
L 540.369835 323.907702 
L 514.109504 328.440215 
L 487.849174 330.624916 
L 461.588843 335.260552 
L 435.328512 338.743479 
L 409.228306 339.258736 
L 382.967975 348.201129 
L 356.707645 356.655441 
L 330.447314 355.95906 
L 304.186983 366.572166 
L 278.006715 371.798559 
L 251.746384 383.938417 
L 225.526085 393.740974 
L 199.28577 437.717647 
L 173.045455 132842.336205 
z
" clip-path="url(#p9f8ea27bd8)" style="fill: #edd1cb; fill-opacity: 0.2; stroke: #edd1cb; stroke-opacity: 0.2"/>
   </g>
   <g id="PolyCollection_6">
    <path d="M 173.045455 132842.336205 
L 173.045455 132842.336205 
L 199.28577 437.717647 
L 225.526085 414.423388 
L 251.746384 395.092818 
L 278.006715 383.938417 
L 304.186983 377.548425 
L 330.447314 363.334649 
L 356.707645 357.360366 
L 382.967975 354.591121 
L 409.228306 345.254293 
L 435.328512 344.682639 
L 461.588843 339.258736 
L 487.849174 334.77979 
L 514.109504 329.741042 
L 540.369835 326.750367 
L 566.630165 325.51482 
L 592.890496 323.120694 
L 619.150826 319.706776 
L 645.411157 314.097376 
L 671.35124 314.432367 
L 697.61157 312.127445 
L 723.871901 309.293684 
L 750.132231 306.593154 
L 776.392562 304.86084 
L 802.652893 301.814547 
L 828.913223 299.956856 
L 855.173554 295.680651 
L 881.433884 296.418655 
L 907.694215 294.00837 
L 933.954545 292.612738 
L 933.954545 289.919243 
L 933.954545 289.919243 
L 907.694215 291.026227 
L 881.433884 292.154961 
L 855.173554 291.020639 
L 828.913223 297.153827 
L 802.652893 296.167524 
L 776.392562 301.011027 
L 750.132231 302.356539 
L 723.871901 305.145956 
L 697.61157 307.174994 
L 671.35124 307.174994 
L 645.411157 309.293684 
L 619.150826 316.137261 
L 592.890496 319.706776 
L 566.630165 320.43876 
L 540.369835 322.731196 
L 514.109504 322.334682 
L 487.849174 327.168192 
L 461.588843 335.260552 
L 435.328512 335.260552 
L 409.228306 340.832826 
L 382.967975 351.30733 
L 356.707645 350.044626 
L 330.447314 357.360366 
L 304.186983 365.745522 
L 278.006715 377.548425 
L 251.746384 387.421345 
L 225.526085 403.948885 
L 199.28577 437.717647 
L 173.045455 132842.336205 
z
" clip-path="url(#p9f8ea27bd8)" style="fill: #c8879e; fill-opacity: 0.2; stroke: #c8879e; stroke-opacity: 0.2"/>
   </g>
   <g id="PolyCollection_7">
    <path d="M 173.045455 132842.336205 
L 173.045455 132842.336205 
L 199.28577 437.717647 
L 225.526085 405.567322 
L 251.746384 397.895848 
L 278.006715 382.822834 
L 304.186983 374.601589 
L 330.447314 358.796709 
L 356.707645 358.796709 
L 382.967975 350.672509 
L 409.228306 347.599546 
L 435.328512 345.254293 
L 461.588843 340.303323 
L 487.849174 332.895991 
L 514.109504 333.361182 
L 540.369835 325.923723 
L 566.630165 321.960034 
L 592.890496 322.731196 
L 619.150826 318.612444 
L 645.411157 317.538567 
L 671.35124 314.432367 
L 697.61157 310.53591 
L 723.871901 309.601732 
L 750.132231 307.182397 
L 776.392562 303.456107 
L 802.652893 302.084904 
L 828.913223 299.696308 
L 855.173554 298.157358 
L 881.433884 295.923572 
L 907.694215 295.197869 
L 933.954545 294.244308 
L 933.954545 291.250207 
L 933.954545 291.250207 
L 907.694215 292.843002 
L 881.433884 292.843002 
L 855.173554 295.197869 
L 828.913223 296.412517 
L 802.652893 299.436937 
L 776.392562 299.956856 
L 750.132231 304.294819 
L 723.871901 305.145956 
L 697.61157 307.479301 
L 671.35124 310.53591 
L 645.411157 312.451111 
L 619.150826 313.103967 
L 592.890496 318.97491 
L 566.630165 314.769322 
L 540.369835 321.199086 
L 514.109504 325.923723 
L 487.849174 326.750367 
L 461.588843 334.303018 
L 435.328512 340.832826 
L 409.228306 341.367255 
L 382.967975 341.367255 
L 356.707645 350.672509 
L 330.447314 351.949244 
L 304.186983 367.410877 
L 278.006715 376.549257 
L 251.746384 389.866425 
L 225.526085 387.421345 
L 199.28577 437.717647 
L 173.045455 132842.336205 
z
" clip-path="url(#p9f8ea27bd8)" style="fill: #834c7d; fill-opacity: 0.2; stroke: #834c7d; stroke-opacity: 0.2"/>
   </g>
   <g id="PolyCollection_8">
    <path d="M 173.045455 132842.336205 
L 173.045455 132842.336205 
L 199.28577 437.717647 
L 225.526085 407.232676 
L 251.746384 393.740974 
L 278.006715 382.822834 
L 304.186983 375.56717 
L 330.447314 366.572166 
L 356.707645 361.020885 
L 382.967975 355.95906 
L 409.228306 344.116618 
L 435.328512 344.116618 
L 461.588843 338.232803 
L 487.849174 335.745371 
L 514.109504 329.304152 
L 540.369835 329.304152 
L 566.630165 325.51482 
L 592.890496 318.97491 
L 619.150826 317.538567 
L 645.411157 315.44922 
L 671.35124 313.764328 
L 697.61157 310.85071 
L 723.871901 310.222827 
L 750.132231 306.593154 
L 776.392562 304.013886 
L 802.652893 302.629464 
L 828.913223 302.629464 
L 855.173554 298.665775 
L 881.433884 296.658559 
L 907.694215 292.843002 
L 933.954545 294.244308 
L 933.954545 289.482353 
L 933.954545 289.482353 
L 907.694215 289.482353 
L 881.433884 292.843002 
L 855.173554 294.244308 
L 828.913223 298.665775 
L 802.652893 298.665775 
L 776.392562 300.745666 
L 750.132231 304.294819 
L 723.871901 303.449169 
L 697.61157 307.182397 
L 671.35124 308.98728 
L 645.411157 310.222827 
L 619.150826 312.451111 
L 592.890496 313.764328 
L 566.630165 320.822359 
L 540.369835 321.189638 
L 514.109504 323.907702 
L 487.849174 330.624916 
L 461.588843 335.260552 
L 435.328512 337.726626 
L 409.228306 337.22487 
L 382.967975 345.831692 
L 356.707645 354.591121 
L 330.447314 353.919175 
L 304.186983 368.262014 
L 278.006715 370.893805 
L 251.746384 386.236752 
L 225.526085 395.092818 
L 199.28577 437.717647 
L 173.045455 132842.336205 
z
" clip-path="url(#p9f8ea27bd8)" style="fill: #2d1e3e; fill-opacity: 0.2; stroke: #2d1e3e; stroke-opacity: 0.2"/>
   </g>
   <g id="matplotlib.axis_3">
    <g id="xtick_8">
     <g id="line2d_24">
      <g>
       <use xlink:href="#m317a64e401" x="173.045455" y="445.129412" style="stroke: #000000; stroke-width: 0.8"/>
      </g>
     </g>
     <g id="text_16">
      <!-- 0.00 -->
      <g transform="translate(161.912642 459.727849) scale(0.1 -0.1)">
       <use xlink:href="#DejaVuSans-30"/>
       <use xlink:href="#DejaVuSans-2e" x="63.623047"/>
       <use xlink:href="#DejaVuSans-30" x="95.410156"/>
       <use xlink:href="#DejaVuSans-30" x="159.033203"/>
      </g>
     </g>
    </g>
    <g id="xtick_9">
     <g id="line2d_25">
      <g>
       <use xlink:href="#m317a64e401" x="304.219008" y="445.129412" style="stroke: #000000; stroke-width: 0.8"/>
      </g>
     </g>
     <g id="text_17">
      <!-- 0.05 -->
      <g transform="translate(293.086196 459.727849) scale(0.1 -0.1)">
       <use xlink:href="#DejaVuSans-30"/>
       <use xlink:href="#DejaVuSans-2e" x="63.623047"/>
       <use xlink:href="#DejaVuSans-30" x="95.410156"/>
       <use xlink:href="#DejaVuSans-35" x="159.033203"/>
      </g>
     </g>
    </g>
    <g id="xtick_10">
     <g id="line2d_26">
      <g>
       <use xlink:href="#m317a64e401" x="435.392562" y="445.129412" style="stroke: #000000; stroke-width: 0.8"/>
      </g>
     </g>
     <g id="text_18">
      <!-- 0.10 -->
      <g transform="translate(424.259749 459.727849) scale(0.1 -0.1)">
       <use xlink:href="#DejaVuSans-30"/>
       <use xlink:href="#DejaVuSans-2e" x="63.623047"/>
       <use xlink:href="#DejaVuSans-31" x="95.410156"/>
       <use xlink:href="#DejaVuSans-30" x="159.033203"/>
      </g>
     </g>
    </g>
    <g id="xtick_11">
     <g id="line2d_27">
      <g>
       <use xlink:href="#m317a64e401" x="566.566116" y="445.129412" style="stroke: #000000; stroke-width: 0.8"/>
      </g>
     </g>
     <g id="text_19">
      <!-- 0.15 -->
      <g transform="translate(555.433303 459.727849) scale(0.1 -0.1)">
       <use xlink:href="#DejaVuSans-30"/>
       <use xlink:href="#DejaVuSans-2e" x="63.623047"/>
       <use xlink:href="#DejaVuSans-31" x="95.410156"/>
       <use xlink:href="#DejaVuSans-35" x="159.033203"/>
      </g>
     </g>
    </g>
    <g id="xtick_12">
     <g id="line2d_28">
      <g>
       <use xlink:href="#m317a64e401" x="697.739669" y="445.129412" style="stroke: #000000; stroke-width: 0.8"/>
      </g>
     </g>
     <g id="text_20">
      <!-- 0.20 -->
      <g transform="translate(686.606857 459.727849) scale(0.1 -0.1)">
       <use xlink:href="#DejaVuSans-30"/>
       <use xlink:href="#DejaVuSans-2e" x="63.623047"/>
       <use xlink:href="#DejaVuSans-32" x="95.410156"/>
       <use xlink:href="#DejaVuSans-30" x="159.033203"/>
      </g>
     </g>
    </g>
    <g id="xtick_13">
     <g id="line2d_29">
      <g>
       <use xlink:href="#m317a64e401" x="828.913223" y="445.129412" style="stroke: #000000; stroke-width: 0.8"/>
      </g>
     </g>
     <g id="text_21">
      <!-- 0.25 -->
      <g transform="translate(817.780411 459.727849) scale(0.1 -0.1)">
       <use xlink:href="#DejaVuSans-30"/>
       <use xlink:href="#DejaVuSans-2e" x="63.623047"/>
       <use xlink:href="#DejaVuSans-32" x="95.410156"/>
       <use xlink:href="#DejaVuSans-35" x="159.033203"/>
      </g>
     </g>
    </g>
    <g id="xtick_14">
     <g id="line2d_30">
      <g>
       <use xlink:href="#m317a64e401" x="960.086777" y="445.129412" style="stroke: #000000; stroke-width: 0.8"/>
      </g>
     </g>
     <g id="text_22">
      <!-- 0.30 -->
      <g transform="translate(948.953964 459.727849) scale(0.1 -0.1)">
       <use xlink:href="#DejaVuSans-30"/>
       <use xlink:href="#DejaVuSans-2e" x="63.623047"/>
       <use xlink:href="#DejaVuSans-33" x="95.410156"/>
       <use xlink:href="#DejaVuSans-30" x="159.033203"/>
      </g>
     </g>
    </g>
    <g id="text_23">
     <!-- proba_3 -->
     <g transform="translate(533.403906 473.405974) scale(0.1 -0.1)">
      <use xlink:href="#DejaVuSans-70"/>
      <use xlink:href="#DejaVuSans-72" x="63.476562"/>
      <use xlink:href="#DejaVuSans-6f" x="102.339844"/>
      <use xlink:href="#DejaVuSans-62" x="163.521484"/>
      <use xlink:href="#DejaVuSans-61" x="226.998047"/>
      <use xlink:href="#DejaVuSans-5f" x="288.277344"/>
      <use xlink:href="#DejaVuSans-33" x="338.277344"/>
     </g>
    </g>
   </g>
   <g id="matplotlib.axis_4">
    <g id="ytick_5">
     <g id="line2d_31">
      <g>
       <use xlink:href="#m92fb6f49e3" x="135" y="424.897891" style="stroke: #000000; stroke-width: 0.8"/>
      </g>
     </g>
     <g id="text_24">
      <!-- $\mathdefault{10^{1}}$ -->
      <g transform="translate(110.4 428.69711) scale(0.1 -0.1)">
       <use xlink:href="#DejaVuSans-31" transform="translate(0 0.684375)"/>
       <use xlink:href="#DejaVuSans-30" transform="translate(63.623047 0.684375)"/>
       <use xlink:href="#DejaVuSans-31" transform="translate(128.203125 38.965625) scale(0.7)"/>
      </g>
     </g>
    </g>
    <g id="ytick_6">
     <g id="line2d_32">
      <g>
       <use xlink:href="#m92fb6f49e3" x="135" y="292.612738" style="stroke: #000000; stroke-width: 0.8"/>
      </g>
     </g>
     <g id="text_25">
      <!-- $\mathdefault{10^{2}}$ -->
      <g transform="translate(110.4 296.411957) scale(0.1 -0.1)">
       <use xlink:href="#DejaVuSans-31" transform="translate(0 0.765625)"/>
       <use xlink:href="#DejaVuSans-30" transform="translate(63.623047 0.765625)"/>
       <use xlink:href="#DejaVuSans-32" transform="translate(128.203125 39.046875) scale(0.7)"/>
      </g>
     </g>
    </g>
    <g id="ytick_7">
     <g id="line2d_33">
      <g>
       <use xlink:href="#m784c034e1f" x="135" y="437.717647" style="stroke: #000000; stroke-width: 0.6"/>
      </g>
     </g>
    </g>
    <g id="ytick_8">
     <g id="line2d_34">
      <g>
       <use xlink:href="#m784c034e1f" x="135" y="430.950928" style="stroke: #000000; stroke-width: 0.6"/>
      </g>
     </g>
    </g>
    <g id="ytick_9">
     <g id="line2d_35">
      <g>
       <use xlink:href="#m784c034e1f" x="135" y="385.076092" style="stroke: #000000; stroke-width: 0.6"/>
      </g>
     </g>
    </g>
    <g id="ytick_10">
     <g id="line2d_36">
      <g>
       <use xlink:href="#m784c034e1f" x="135" y="361.781833" style="stroke: #000000; stroke-width: 0.6"/>
      </g>
     </g>
    </g>
    <g id="ytick_11">
     <g id="line2d_37">
      <g>
       <use xlink:href="#m784c034e1f" x="135" y="345.254293" style="stroke: #000000; stroke-width: 0.6"/>
      </g>
     </g>
    </g>
    <g id="ytick_12">
     <g id="line2d_38">
      <g>
       <use xlink:href="#m784c034e1f" x="135" y="332.434537" style="stroke: #000000; stroke-width: 0.6"/>
      </g>
     </g>
    </g>
    <g id="ytick_13">
     <g id="line2d_39">
      <g>
       <use xlink:href="#m784c034e1f" x="135" y="321.960034" style="stroke: #000000; stroke-width: 0.6"/>
      </g>
     </g>
    </g>
    <g id="ytick_14">
     <g id="line2d_40">
      <g>
       <use xlink:href="#m784c034e1f" x="135" y="313.103967" style="stroke: #000000; stroke-width: 0.6"/>
      </g>
     </g>
    </g>
    <g id="ytick_15">
     <g id="line2d_41">
      <g>
       <use xlink:href="#m784c034e1f" x="135" y="305.432494" style="stroke: #000000; stroke-width: 0.6"/>
      </g>
     </g>
    </g>
    <g id="ytick_16">
     <g id="line2d_42">
      <g>
       <use xlink:href="#m784c034e1f" x="135" y="298.665775" style="stroke: #000000; stroke-width: 0.6"/>
      </g>
     </g>
    </g>
    <g id="text_26">
     <!-- R_0 size_sqrt -->
     <g transform="translate(104.042188 396.333594) rotate(-90) scale(0.1 -0.1)">
      <use xlink:href="#DejaVuSans-52"/>
      <use xlink:href="#DejaVuSans-5f" x="69.482422"/>
      <use xlink:href="#DejaVuSans-30" x="119.482422"/>
      <use xlink:href="#DejaVuSans-20" x="183.105469"/>
      <use xlink:href="#DejaVuSans-73" x="214.892578"/>
      <use xlink:href="#DejaVuSans-69" x="266.992188"/>
      <use xlink:href="#DejaVuSans-7a" x="294.775391"/>
      <use xlink:href="#DejaVuSans-65" x="347.265625"/>
      <use xlink:href="#DejaVuSans-5f" x="408.789062"/>
      <use xlink:href="#DejaVuSans-73" x="458.789062"/>
      <use xlink:href="#DejaVuSans-71" x="510.888672"/>
      <use xlink:href="#DejaVuSans-72" x="574.365234"/>
      <use xlink:href="#DejaVuSans-74" x="615.478516"/>
     </g>
    </g>
   </g>
   <g id="line2d_43">
    <path d="M 199.229628 721 
L 199.28577 437.717647 
L 225.526085 399.350374 
L 251.746384 389.866425 
L 278.006715 377.548425 
L 304.186983 370.893805 
L 330.447314 359.528575 
L 356.707645 358.796709 
L 382.967975 351.30733 
L 409.228306 341.906703 
L 435.328512 341.906703 
L 461.588843 337.726626 
L 487.849174 333.83017 
L 514.109504 330.624916 
L 540.369835 325.923723 
L 566.630165 322.344321 
L 592.890496 320.448086 
L 619.150826 316.484396 
L 645.411157 312.127445 
L 671.35124 311.167243 
L 697.61157 309.293684 
L 723.871901 305.720468 
L 750.132231 304.294819 
L 776.392562 302.084904 
L 802.652893 300.218591 
L 828.913223 297.403071 
L 855.173554 295.680651 
L 881.433884 294.481219 
L 907.694215 293.306316 
L 933.954545 291.475063 
" clip-path="url(#p9f8ea27bd8)" style="fill: none; stroke: #edd1cb; stroke-width: 1.5; stroke-linecap: square"/>
   </g>
   <g id="line2d_44">
    <path d="M 199.229628 721 
L 199.28577 437.717647 
L 225.526085 408.94775 
L 251.746384 391.129129 
L 278.006715 380.654625 
L 304.186983 371.798559 
L 330.447314 360.269885 
L 356.707645 353.919175 
L 382.967975 352.598411 
L 409.228306 343.001035 
L 435.328512 339.778655 
L 461.588843 337.22487 
L 487.849174 331.072006 
L 514.109504 325.923723 
L 540.369835 324.705641 
L 566.630165 322.731196 
L 592.890496 321.199086 
L 619.150826 317.8943 
L 645.411157 311.485531 
L 671.35124 310.53591 
L 697.61157 309.601732 
L 723.871901 307.182397 
L 750.132231 304.577133 
L 776.392562 302.903692 
L 802.652893 299.178731 
L 828.913223 298.411004 
L 855.173554 293.306316 
L 881.433884 294.244308 
L 907.694215 292.612738 
L 933.954545 291.250207 
" clip-path="url(#p9f8ea27bd8)" style="fill: none; stroke: #c8879e; stroke-width: 1.5; stroke-linecap: square"/>
   </g>
   <g id="line2d_45">
    <path d="M 199.229628 721 
L 199.28577 437.717647 
L 225.526085 396.47724 
L 251.746384 393.740974 
L 278.006715 379.600454 
L 304.186983 370.893805 
L 330.447314 355.271019 
L 356.707645 354.591121 
L 382.967975 346.414953 
L 409.228306 344.682639 
L 435.328512 343.001035 
L 461.588843 337.22487 
L 487.849174 329.741042 
L 514.109504 329.741042 
L 540.369835 323.51285 
L 566.630165 318.25225 
L 592.890496 320.822359 
L 619.150826 315.79221 
L 645.411157 315.108265 
L 671.35124 312.451111 
L 697.61157 308.98728 
L 723.871901 307.479301 
L 750.132231 305.720468 
L 776.392562 301.545456 
L 802.652893 300.745666 
L 828.913223 298.157358 
L 855.173554 296.658559 
L 881.433884 294.481219 
L 907.694215 294.00837 
L 933.954545 292.843002 
" clip-path="url(#p9f8ea27bd8)" style="fill: none; stroke: #834c7d; stroke-width: 1.5; stroke-linecap: square"/>
   </g>
   <g id="line2d_46">
    <path d="M 199.229628 721 
L 199.28577 437.717647 
L 225.526085 400.842684 
L 251.746384 389.866425 
L 278.006715 376.549257 
L 304.186983 371.798559 
L 330.447314 360.269885 
L 356.707645 357.360366 
L 382.967975 350.672509 
L 409.228306 340.832826 
L 435.328512 340.832826 
L 461.588843 336.727458 
L 487.849174 333.361182 
L 514.109504 326.750367 
L 540.369835 325.51482 
L 566.630165 323.120694 
L 592.890496 316.484396 
L 619.150826 314.769322 
L 645.411157 313.103967 
L 671.35124 311.485531 
L 697.61157 308.98728 
L 723.871901 306.593154 
L 750.132231 305.432494 
L 776.392562 302.356539 
L 802.652893 300.481524 
L 828.913223 300.745666 
L 855.173554 296.412517 
L 881.433884 294.71911 
L 907.694215 291.026227 
L 933.954545 291.927433 
" clip-path="url(#p9f8ea27bd8)" style="fill: none; stroke: #2d1e3e; stroke-width: 1.5; stroke-linecap: square"/>
   </g>
   <g id="line2d_47"/>
   <g id="line2d_48"/>
   <g id="line2d_49"/>
   <g id="line2d_50"/>
   <g id="patch_9">
    <path d="M 135 445.129412 
L 135 282.070588 
" style="fill: none; stroke: #000000; stroke-width: 0.8; stroke-linejoin: miter; stroke-linecap: square"/>
   </g>
   <g id="patch_10">
    <path d="M 972 445.129412 
L 972 282.070588 
" style="fill: none; stroke: #000000; stroke-width: 0.8; stroke-linejoin: miter; stroke-linecap: square"/>
   </g>
   <g id="patch_11">
    <path d="M 135 445.129412 
L 972 445.129412 
" style="fill: none; stroke: #000000; stroke-width: 0.8; stroke-linejoin: miter; stroke-linecap: square"/>
   </g>
   <g id="patch_12">
    <path d="M 135 282.070588 
L 972 282.070588 
" style="fill: none; stroke: #000000; stroke-width: 0.8; stroke-linejoin: miter; stroke-linecap: square"/>
   </g>
   <g id="legend_2">
    <g id="patch_13">
     <path d="M 142 363.739338 
L 253.528125 363.739338 
Q 255.528125 363.739338 255.528125 361.739338 
L 255.528125 289.070588 
Q 255.528125 287.070588 253.528125 287.070588 
L 142 287.070588 
Q 140 287.070588 140 289.070588 
L 140 361.739338 
Q 140 363.739338 142 363.739338 
z
" style="fill: #ffffff; opacity: 0.8; stroke: #cccccc; stroke-linejoin: miter"/>
    </g>
    <g id="text_27">
     <!-- proba_1 -->
     <g transform="translate(177.667969 298.669026) scale(0.1 -0.1)">
      <use xlink:href="#DejaVuSans-70"/>
      <use xlink:href="#DejaVuSans-72" x="63.476562"/>
      <use xlink:href="#DejaVuSans-6f" x="102.339844"/>
      <use xlink:href="#DejaVuSans-62" x="163.521484"/>
      <use xlink:href="#DejaVuSans-61" x="226.998047"/>
      <use xlink:href="#DejaVuSans-5f" x="288.277344"/>
      <use xlink:href="#DejaVuSans-31" x="338.277344"/>
     </g>
    </g>
    <g id="line2d_51">
     <path d="M 144 310.125276 
L 154 310.125276 
L 164 310.125276 
" style="fill: none; stroke: #edd1cb; stroke-width: 1.5; stroke-linecap: square"/>
    </g>
    <g id="text_28">
     <!-- 0.7998046875 -->
     <g transform="translate(172 313.625276) scale(0.1 -0.1)">
      <use xlink:href="#DejaVuSans-30"/>
      <use xlink:href="#DejaVuSans-2e" x="63.623047"/>
      <use xlink:href="#DejaVuSans-37" x="95.410156"/>
      <use xlink:href="#DejaVuSans-39" x="159.033203"/>
      <use xlink:href="#DejaVuSans-39" x="222.65625"/>
      <use xlink:href="#DejaVuSans-38" x="286.279297"/>
      <use xlink:href="#DejaVuSans-30" x="349.902344"/>
      <use xlink:href="#DejaVuSans-34" x="413.525391"/>
      <use xlink:href="#DejaVuSans-36" x="477.148438"/>
      <use xlink:href="#DejaVuSans-38" x="540.771484"/>
      <use xlink:href="#DejaVuSans-37" x="604.394531"/>
      <use xlink:href="#DejaVuSans-35" x="668.017578"/>
     </g>
    </g>
    <g id="line2d_52">
     <path d="M 144 324.803401 
L 154 324.803401 
L 164 324.803401 
" style="fill: none; stroke: #c8879e; stroke-width: 1.5; stroke-linecap: square"/>
    </g>
    <g id="text_29">
     <!-- 0.85009765625 -->
     <g transform="translate(172 328.303401) scale(0.1 -0.1)">
      <use xlink:href="#DejaVuSans-30"/>
      <use xlink:href="#DejaVuSans-2e" x="63.623047"/>
      <use xlink:href="#DejaVuSans-38" x="95.410156"/>
      <use xlink:href="#DejaVuSans-35" x="159.033203"/>
      <use xlink:href="#DejaVuSans-30" x="222.65625"/>
      <use xlink:href="#DejaVuSans-30" x="286.279297"/>
      <use xlink:href="#DejaVuSans-39" x="349.902344"/>
      <use xlink:href="#DejaVuSans-37" x="413.525391"/>
      <use xlink:href="#DejaVuSans-36" x="477.148438"/>
      <use xlink:href="#DejaVuSans-35" x="540.771484"/>
      <use xlink:href="#DejaVuSans-36" x="604.394531"/>
      <use xlink:href="#DejaVuSans-32" x="668.017578"/>
      <use xlink:href="#DejaVuSans-35" x="731.640625"/>
     </g>
    </g>
    <g id="line2d_53">
     <path d="M 144 339.481526 
L 154 339.481526 
L 164 339.481526 
" style="fill: none; stroke: #834c7d; stroke-width: 1.5; stroke-linecap: square"/>
    </g>
    <g id="text_30">
     <!-- 0.89990234375 -->
     <g transform="translate(172 342.981526) scale(0.1 -0.1)">
      <use xlink:href="#DejaVuSans-30"/>
      <use xlink:href="#DejaVuSans-2e" x="63.623047"/>
      <use xlink:href="#DejaVuSans-38" x="95.410156"/>
      <use xlink:href="#DejaVuSans-39" x="159.033203"/>
      <use xlink:href="#DejaVuSans-39" x="222.65625"/>
      <use xlink:href="#DejaVuSans-39" x="286.279297"/>
      <use xlink:href="#DejaVuSans-30" x="349.902344"/>
      <use xlink:href="#DejaVuSans-32" x="413.525391"/>
      <use xlink:href="#DejaVuSans-33" x="477.148438"/>
      <use xlink:href="#DejaVuSans-34" x="540.771484"/>
      <use xlink:href="#DejaVuSans-33" x="604.394531"/>
      <use xlink:href="#DejaVuSans-37" x="668.017578"/>
      <use xlink:href="#DejaVuSans-35" x="731.640625"/>
     </g>
    </g>
    <g id="line2d_54">
     <path d="M 144 354.159651 
L 154 354.159651 
L 164 354.159651 
" style="fill: none; stroke: #2d1e3e; stroke-width: 1.5; stroke-linecap: square"/>
    </g>
    <g id="text_31">
     <!-- 0.9501953125 -->
     <g transform="translate(172 357.659651) scale(0.1 -0.1)">
      <use xlink:href="#DejaVuSans-30"/>
      <use xlink:href="#DejaVuSans-2e" x="63.623047"/>
      <use xlink:href="#DejaVuSans-39" x="95.410156"/>
      <use xlink:href="#DejaVuSans-35" x="159.033203"/>
      <use xlink:href="#DejaVuSans-30" x="222.65625"/>
      <use xlink:href="#DejaVuSans-31" x="286.279297"/>
      <use xlink:href="#DejaVuSans-39" x="349.902344"/>
      <use xlink:href="#DejaVuSans-35" x="413.525391"/>
      <use xlink:href="#DejaVuSans-33" x="477.148438"/>
      <use xlink:href="#DejaVuSans-31" x="540.771484"/>
      <use xlink:href="#DejaVuSans-32" x="604.394531"/>
      <use xlink:href="#DejaVuSans-35" x="668.017578"/>
     </g>
    </g>
   </g>
  </g>
  <g id="axes_3">
   <g id="patch_14">
    <path d="M 135 640.8 
L 972 640.8 
L 972 477.741176 
L 135 477.741176 
z
" style="fill: #ffffff"/>
   </g>
   <g id="PolyCollection_9">
    <defs>
     <path id="m5adf954331" d="M 173.045455 -92.128469 
L 173.045455 -86.611765 
L 199.28577 -90.606786 
L 225.526085 -95.152325 
L 251.746384 -99.937327 
L 278.006715 -103.778004 
L 304.186983 -107.860716 
L 330.447314 -113.915553 
L 356.707645 -118.736544 
L 382.967975 -122.657989 
L 409.228306 -123.770457 
L 435.328512 -128.185648 
L 461.588843 -131.726034 
L 487.849174 -133.35805 
L 514.109504 -141.901949 
L 540.369835 -147.398704 
L 566.630165 -145.05341 
L 592.890496 -149.72854 
L 619.150826 -155.353523 
L 645.411157 -161.402525 
L 671.35124 -159.148617 
L 697.61157 -167.8281 
L 723.871901 -166.852321 
L 750.132231 -169.789899 
L 776.392562 -177.982866 
L 802.652893 -180.593386 
L 828.913223 -180.120178 
L 855.173554 -182.715019 
L 881.433884 -185.05755 
L 907.694215 -189.466038 
L 933.954545 -192.222283 
L 933.954545 -200.587882 
L 933.954545 -200.587882 
L 907.694215 -198.801419 
L 881.433884 -193.136276 
L 855.173554 -195.416641 
L 828.913223 -190.846847 
L 802.652893 -189.926908 
L 776.392562 -184.128252 
L 750.132231 -176.550778 
L 723.871901 -175.592819 
L 697.61157 -177.028785 
L 671.35124 -170.033599 
L 645.411157 -167.343616 
L 619.150826 -163.151892 
L 592.890496 -157.890209 
L 566.630165 -155.359872 
L 540.369835 -151.786692 
L 514.109504 -146.358272 
L 487.849174 -144.006042 
L 461.588843 -140.845187 
L 435.328512 -134.706723 
L 409.228306 -132.54637 
L 382.967975 -129.827229 
L 356.707645 -123.214661 
L 330.447314 -119.580524 
L 304.186983 -116.476031 
L 278.006715 -109.60644 
L 251.746384 -107.867977 
L 225.526085 -100.827348 
L 199.28577 -97.253738 
L 173.045455 -92.128469 
z
" style="stroke: #edd1cb; stroke-opacity: 0.2"/>
    </defs>
    <g clip-path="url(#pa408c4657b)">
     <use xlink:href="#m5adf954331" x="0" y="720" style="fill: #edd1cb; fill-opacity: 0.2; stroke: #edd1cb; stroke-opacity: 0.2"/>
    </g>
   </g>
   <g id="PolyCollection_10">
    <defs>
     <path id="m196b6c7c85" d="M 173.045455 -106.120923 
L 173.045455 -103.18984 
L 199.28577 -107.286585 
L 225.526085 -111.336394 
L 251.746384 -113.057923 
L 278.006715 -122.100439 
L 304.186983 -121.542008 
L 330.447314 -128.459775 
L 356.707645 -130.372733 
L 382.967975 -135.775258 
L 409.228306 -142.165646 
L 435.328512 -144.791859 
L 461.588843 -150.501752 
L 487.849174 -148.436083 
L 514.109504 -156.374181 
L 540.369835 -157.890209 
L 566.630165 -162.399667 
L 592.890496 -163.890125 
L 619.150826 -169.301995 
L 645.411157 -173.427872 
L 671.35124 -177.506147 
L 697.61157 -177.982866 
L 723.871901 -184.356419 
L 750.132231 -188.542494 
L 776.392562 -187.384659 
L 802.652893 -190.846847 
L 828.913223 -195.631974 
L 855.173554 -199.468899 
L 881.433884 -201.480526 
L 907.694215 -205.469758 
L 933.954545 -205.028727 
L 933.954545 -210.28513 
L 933.954545 -210.28513 
L 907.694215 -211.587108 
L 881.433884 -209.196473 
L 855.173554 -208.104453 
L 828.913223 -203.929269 
L 802.652893 -198.121426 
L 776.392562 -193.136276 
L 750.132231 -196.994595 
L 723.871901 -190.387177 
L 697.61157 -185.990233 
L 671.35124 -186.22302 
L 645.411157 -178.220984 
L 619.150826 -177.982866 
L 592.890496 -169.301995 
L 566.630165 -166.360342 
L 540.369835 -165.621088 
L 514.109504 -164.137925 
L 487.849174 -156.880246 
L 461.588843 -156.120877 
L 435.328512 -148.953633 
L 409.228306 -149.212124 
L 382.967975 -144.268175 
L 356.707645 -135.244754 
L 330.447314 -134.4374 
L 304.186983 -128.459775 
L 278.006715 -129.827229 
L 251.746384 -121.542008 
L 225.526085 -118.736544 
L 199.28577 -113.915553 
L 173.045455 -106.120923 
z
" style="stroke: #c8879e; stroke-opacity: 0.2"/>
    </defs>
    <g clip-path="url(#pa408c4657b)">
     <use xlink:href="#m196b6c7c85" x="0" y="720" style="fill: #c8879e; fill-opacity: 0.2; stroke: #c8879e; stroke-opacity: 0.2"/>
    </g>
   </g>
   <g id="PolyCollection_11">
    <defs>
     <path id="me5bad9b926" d="M 173.045455 -118.454769 
L 173.045455 -114.771108 
L 199.28577 -119.018095 
L 225.526085 -125.432623 
L 251.746384 -127.636755 
L 278.006715 -132.004213 
L 304.186983 -135.513463 
L 330.447314 -141.373963 
L 356.707645 -142.165646 
L 382.967975 -148.694953 
L 409.228306 -153.322479 
L 435.328512 -154.597225 
L 461.588843 -160.152129 
L 487.849174 -162.150645 
L 514.109504 -166.360342 
L 540.369835 -168.813416 
L 566.630165 -170.277131 
L 592.890496 -173.669078 
L 619.150826 -180.350946 
L 645.411157 -185.051713 
L 671.35124 -183.648035 
L 697.61157 -193.358704 
L 723.871901 -192.907999 
L 750.132231 -194.275454 
L 776.392562 -197.671125 
L 802.652893 -203.696784 
L 828.913223 -202.815278 
L 855.173554 -208.978339 
L 881.433884 -213.741088 
L 907.694215 -212.668438 
L 933.954545 -216.106632 
L 933.954545 -220.569101 
L 933.954545 -220.569101 
L 907.694215 -218.238645 
L 881.433884 -220.146523 
L 855.173554 -214.391715 
L 828.913223 -208.104453 
L 802.652893 -210.28513 
L 776.392562 -202.376478 
L 750.132231 -200.140714 
L 723.871901 -200.369958 
L 697.61157 -201.926003 
L 671.35124 -190.846847 
L 645.411157 -191.076458 
L 619.150826 -187.61653 
L 592.890496 -182.009222 
L 566.630165 -176.789862 
L 540.369835 -177.506147 
L 514.109504 -173.427872 
L 487.849174 -166.360342 
L 461.588843 -164.880284 
L 435.328512 -160.152129 
L 409.228306 -160.152129 
L 382.967975 -152.04312 
L 356.707645 -147.138883 
L 330.447314 -145.575933 
L 304.186983 -138.189377 
L 278.006715 -137.655813 
L 251.746384 -132.817137 
L 225.526085 -129.827229 
L 199.28577 -122.100439 
L 173.045455 -118.454769 
z
" style="stroke: #834c7d; stroke-opacity: 0.2"/>
    </defs>
    <g clip-path="url(#pa408c4657b)">
     <use xlink:href="#me5bad9b926" x="0" y="720" style="fill: #834c7d; fill-opacity: 0.2; stroke: #834c7d; stroke-opacity: 0.2"/>
    </g>
   </g>
   <g id="PolyCollection_12">
    <defs>
     <path id="m6a6641c22d" d="M 173.045455 -125.708892 
L 173.045455 -124.325381 
L 199.28577 -128.185648 
L 225.526085 -133.898137 
L 251.746384 -138.455858 
L 278.006715 -143.481192 
L 304.186983 -146.358272 
L 330.447314 -153.577797 
L 356.707645 -154.342643 
L 382.967975 -156.620979 
L 409.228306 -161.901447 
L 435.328512 -166.360342 
L 461.588843 -172.461401 
L 487.849174 -172.703267 
L 514.109504 -180.587475 
L 540.369835 -180.356861 
L 566.630165 -180.356861 
L 592.890496 -187.152636 
L 619.150826 -191.305921 
L 645.411157 -196.768797 
L 671.35124 -196.090537 
L 697.61157 -199.692979 
L 723.871901 -201.480526 
L 750.132231 -204.808005 
L 776.392562 -210.067667 
L 802.652893 -212.884308 
L 828.913223 -214.821225 
L 855.173554 -219.511707 
L 881.433884 -219.935044 
L 907.694215 -225.387577 
L 933.954545 -228.090376 
L 933.954545 -234.847059 
L 933.954545 -234.847059 
L 907.694215 -231.182738 
L 881.433884 -224.558597 
L 855.173554 -225.392784 
L 828.913223 -218.668816 
L 802.652893 -219.087862 
L 776.392562 -213.100046 
L 750.132231 -212.236303 
L 723.871901 -205.695574 
L 697.61157 -205.475268 
L 671.35124 -201.931568 
L 645.411157 -202.593169 
L 619.150826 -195.410972 
L 592.890496 -192.679575 
L 566.630165 -186.920461 
L 540.369835 -186.920461 
L 514.109504 -185.757293 
L 487.849174 -179.883336 
L 461.588843 -178.220984 
L 435.328512 -170.033599 
L 409.228306 -166.852321 
L 382.967975 -162.150645 
L 356.707645 -158.400404 
L 330.447314 -157.890209 
L 304.186983 -150.759114 
L 278.006715 -145.575933 
L 251.746384 -142.165646 
L 225.526085 -137.922696 
L 199.28577 -131.732822 
L 173.045455 -125.708892 
z
" style="stroke: #2d1e3e; stroke-opacity: 0.2"/>
    </defs>
    <g clip-path="url(#pa408c4657b)">
     <use xlink:href="#m6a6641c22d" x="0" y="720" style="fill: #2d1e3e; fill-opacity: 0.2; stroke: #2d1e3e; stroke-opacity: 0.2"/>
    </g>
   </g>
   <g id="matplotlib.axis_5">
    <g id="xtick_15">
     <g id="line2d_55">
      <g>
       <use xlink:href="#m317a64e401" x="173.045455" y="640.8" style="stroke: #000000; stroke-width: 0.8"/>
      </g>
     </g>
     <g id="text_32">
      <!-- 0.00 -->
      <g transform="translate(161.912642 655.398438) scale(0.1 -0.1)">
       <use xlink:href="#DejaVuSans-30"/>
       <use xlink:href="#DejaVuSans-2e" x="63.623047"/>
       <use xlink:href="#DejaVuSans-30" x="95.410156"/>
       <use xlink:href="#DejaVuSans-30" x="159.033203"/>
      </g>
     </g>
    </g>
    <g id="xtick_16">
     <g id="line2d_56">
      <g>
       <use xlink:href="#m317a64e401" x="304.219008" y="640.8" style="stroke: #000000; stroke-width: 0.8"/>
      </g>
     </g>
     <g id="text_33">
      <!-- 0.05 -->
      <g transform="translate(293.086196 655.398438) scale(0.1 -0.1)">
       <use xlink:href="#DejaVuSans-30"/>
       <use xlink:href="#DejaVuSans-2e" x="63.623047"/>
       <use xlink:href="#DejaVuSans-30" x="95.410156"/>
       <use xlink:href="#DejaVuSans-35" x="159.033203"/>
      </g>
     </g>
    </g>
    <g id="xtick_17">
     <g id="line2d_57">
      <g>
       <use xlink:href="#m317a64e401" x="435.392562" y="640.8" style="stroke: #000000; stroke-width: 0.8"/>
      </g>
     </g>
     <g id="text_34">
      <!-- 0.10 -->
      <g transform="translate(424.259749 655.398438) scale(0.1 -0.1)">
       <use xlink:href="#DejaVuSans-30"/>
       <use xlink:href="#DejaVuSans-2e" x="63.623047"/>
       <use xlink:href="#DejaVuSans-31" x="95.410156"/>
       <use xlink:href="#DejaVuSans-30" x="159.033203"/>
      </g>
     </g>
    </g>
    <g id="xtick_18">
     <g id="line2d_58">
      <g>
       <use xlink:href="#m317a64e401" x="566.566116" y="640.8" style="stroke: #000000; stroke-width: 0.8"/>
      </g>
     </g>
     <g id="text_35">
      <!-- 0.15 -->
      <g transform="translate(555.433303 655.398438) scale(0.1 -0.1)">
       <use xlink:href="#DejaVuSans-30"/>
       <use xlink:href="#DejaVuSans-2e" x="63.623047"/>
       <use xlink:href="#DejaVuSans-31" x="95.410156"/>
       <use xlink:href="#DejaVuSans-35" x="159.033203"/>
      </g>
     </g>
    </g>
    <g id="xtick_19">
     <g id="line2d_59">
      <g>
       <use xlink:href="#m317a64e401" x="697.739669" y="640.8" style="stroke: #000000; stroke-width: 0.8"/>
      </g>
     </g>
     <g id="text_36">
      <!-- 0.20 -->
      <g transform="translate(686.606857 655.398438) scale(0.1 -0.1)">
       <use xlink:href="#DejaVuSans-30"/>
       <use xlink:href="#DejaVuSans-2e" x="63.623047"/>
       <use xlink:href="#DejaVuSans-32" x="95.410156"/>
       <use xlink:href="#DejaVuSans-30" x="159.033203"/>
      </g>
     </g>
    </g>
    <g id="xtick_20">
     <g id="line2d_60">
      <g>
       <use xlink:href="#m317a64e401" x="828.913223" y="640.8" style="stroke: #000000; stroke-width: 0.8"/>
      </g>
     </g>
     <g id="text_37">
      <!-- 0.25 -->
      <g transform="translate(817.780411 655.398438) scale(0.1 -0.1)">
       <use xlink:href="#DejaVuSans-30"/>
       <use xlink:href="#DejaVuSans-2e" x="63.623047"/>
       <use xlink:href="#DejaVuSans-32" x="95.410156"/>
       <use xlink:href="#DejaVuSans-35" x="159.033203"/>
      </g>
     </g>
    </g>
    <g id="xtick_21">
     <g id="line2d_61">
      <g>
       <use xlink:href="#m317a64e401" x="960.086777" y="640.8" style="stroke: #000000; stroke-width: 0.8"/>
      </g>
     </g>
     <g id="text_38">
      <!-- 0.30 -->
      <g transform="translate(948.953964 655.398438) scale(0.1 -0.1)">
       <use xlink:href="#DejaVuSans-30"/>
       <use xlink:href="#DejaVuSans-2e" x="63.623047"/>
       <use xlink:href="#DejaVuSans-33" x="95.410156"/>
       <use xlink:href="#DejaVuSans-30" x="159.033203"/>
      </g>
     </g>
    </g>
    <g id="text_39">
     <!-- proba_3 -->
     <g transform="translate(533.403906 669.076563) scale(0.1 -0.1)">
      <use xlink:href="#DejaVuSans-70"/>
      <use xlink:href="#DejaVuSans-72" x="63.476562"/>
      <use xlink:href="#DejaVuSans-6f" x="102.339844"/>
      <use xlink:href="#DejaVuSans-62" x="163.521484"/>
      <use xlink:href="#DejaVuSans-61" x="226.998047"/>
      <use xlink:href="#DejaVuSans-5f" x="288.277344"/>
      <use xlink:href="#DejaVuSans-33" x="338.277344"/>
     </g>
    </g>
   </g>
   <g id="matplotlib.axis_6">
    <g id="ytick_17">
     <g id="line2d_62">
      <g>
       <use xlink:href="#m784c034e1f" x="135" y="617.104609" style="stroke: #000000; stroke-width: 0.6"/>
      </g>
     </g>
     <g id="text_40">
      <!-- $\mathdefault{1.2\times10^{2}}$ -->
      <g transform="translate(84.4 620.903828) scale(0.1 -0.1)">
       <defs>
        <path id="DejaVuSans-d7" d="M 4488 3438 
L 3059 2003 
L 4488 575 
L 4116 197 
L 2681 1631 
L 1247 197 
L 878 575 
L 2303 2003 
L 878 3438 
L 1247 3816 
L 2681 2381 
L 4116 3816 
L 4488 3438 
z
" transform="scale(0.015625)"/>
       </defs>
       <use xlink:href="#DejaVuSans-31" transform="translate(0 0.765625)"/>
       <use xlink:href="#DejaVuSans-2e" transform="translate(63.623047 0.765625)"/>
       <use xlink:href="#DejaVuSans-32" transform="translate(89.910156 0.765625)"/>
       <use xlink:href="#DejaVuSans-d7" transform="translate(173.015625 0.765625)"/>
       <use xlink:href="#DejaVuSans-31" transform="translate(276.287109 0.765625)"/>
       <use xlink:href="#DejaVuSans-30" transform="translate(339.910156 0.765625)"/>
       <use xlink:href="#DejaVuSans-32" transform="translate(404.490234 39.046875) scale(0.7)"/>
      </g>
     </g>
    </g>
    <g id="ytick_18">
     <g id="line2d_63">
      <g>
       <use xlink:href="#m784c034e1f" x="135" y="588.810586" style="stroke: #000000; stroke-width: 0.6"/>
      </g>
     </g>
     <g id="text_41">
      <!-- $\mathdefault{1.3\times10^{2}}$ -->
      <g transform="translate(83.8 592.609804) scale(0.1 -0.1)">
       <use xlink:href="#DejaVuSans-31" transform="translate(0 0.765625)"/>
       <use xlink:href="#DejaVuSans-2e" transform="translate(63.623047 0.765625)"/>
       <use xlink:href="#DejaVuSans-33" transform="translate(95.410156 0.765625)"/>
       <use xlink:href="#DejaVuSans-d7" transform="translate(178.515625 0.765625)"/>
       <use xlink:href="#DejaVuSans-31" transform="translate(281.787109 0.765625)"/>
       <use xlink:href="#DejaVuSans-30" transform="translate(345.410156 0.765625)"/>
       <use xlink:href="#DejaVuSans-32" transform="translate(409.990234 39.046875) scale(0.7)"/>
      </g>
     </g>
    </g>
    <g id="ytick_19">
     <g id="line2d_64">
      <g>
       <use xlink:href="#m784c034e1f" x="135" y="562.614412" style="stroke: #000000; stroke-width: 0.6"/>
      </g>
     </g>
     <g id="text_42">
      <!-- $\mathdefault{1.4\times10^{2}}$ -->
      <g transform="translate(83.8 566.41363) scale(0.1 -0.1)">
       <use xlink:href="#DejaVuSans-31" transform="translate(0 0.765625)"/>
       <use xlink:href="#DejaVuSans-2e" transform="translate(63.623047 0.765625)"/>
       <use xlink:href="#DejaVuSans-34" transform="translate(95.410156 0.765625)"/>
       <use xlink:href="#DejaVuSans-d7" transform="translate(178.515625 0.765625)"/>
       <use xlink:href="#DejaVuSans-31" transform="translate(281.787109 0.765625)"/>
       <use xlink:href="#DejaVuSans-30" transform="translate(345.410156 0.765625)"/>
       <use xlink:href="#DejaVuSans-32" transform="translate(409.990234 39.046875) scale(0.7)"/>
      </g>
     </g>
    </g>
    <g id="ytick_20">
     <g id="line2d_65">
      <g>
       <use xlink:href="#m784c034e1f" x="135" y="538.226357" style="stroke: #000000; stroke-width: 0.6"/>
      </g>
     </g>
     <g id="text_43">
      <!-- $\mathdefault{1.5\times10^{2}}$ -->
      <g transform="translate(83.8 542.025576) scale(0.1 -0.1)">
       <use xlink:href="#DejaVuSans-31" transform="translate(0 0.765625)"/>
       <use xlink:href="#DejaVuSans-2e" transform="translate(63.623047 0.765625)"/>
       <use xlink:href="#DejaVuSans-35" transform="translate(95.410156 0.765625)"/>
       <use xlink:href="#DejaVuSans-d7" transform="translate(178.515625 0.765625)"/>
       <use xlink:href="#DejaVuSans-31" transform="translate(281.787109 0.765625)"/>
       <use xlink:href="#DejaVuSans-30" transform="translate(345.410156 0.765625)"/>
       <use xlink:href="#DejaVuSans-32" transform="translate(409.990234 39.046875) scale(0.7)"/>
      </g>
     </g>
    </g>
    <g id="ytick_21">
     <g id="line2d_66">
      <g>
       <use xlink:href="#m784c034e1f" x="135" y="515.412855" style="stroke: #000000; stroke-width: 0.6"/>
      </g>
     </g>
     <g id="text_44">
      <!-- $\mathdefault{1.6\times10^{2}}$ -->
      <g transform="translate(83.8 519.212074) scale(0.1 -0.1)">
       <use xlink:href="#DejaVuSans-31" transform="translate(0 0.765625)"/>
       <use xlink:href="#DejaVuSans-2e" transform="translate(63.623047 0.765625)"/>
       <use xlink:href="#DejaVuSans-36" transform="translate(95.410156 0.765625)"/>
       <use xlink:href="#DejaVuSans-d7" transform="translate(178.515625 0.765625)"/>
       <use xlink:href="#DejaVuSans-31" transform="translate(281.787109 0.765625)"/>
       <use xlink:href="#DejaVuSans-30" transform="translate(345.410156 0.765625)"/>
       <use xlink:href="#DejaVuSans-32" transform="translate(409.990234 39.046875) scale(0.7)"/>
      </g>
     </g>
    </g>
    <g id="ytick_22">
     <g id="line2d_67">
      <g>
       <use xlink:href="#m784c034e1f" x="135" y="493.982865" style="stroke: #000000; stroke-width: 0.6"/>
      </g>
     </g>
     <g id="text_45">
      <!-- $\mathdefault{1.7\times10^{2}}$ -->
      <g transform="translate(84.6 497.782084) scale(0.1 -0.1)">
       <use xlink:href="#DejaVuSans-31" transform="translate(0 0.765625)"/>
       <use xlink:href="#DejaVuSans-2e" transform="translate(63.623047 0.765625)"/>
       <use xlink:href="#DejaVuSans-37" transform="translate(87.660156 0.765625)"/>
       <use xlink:href="#DejaVuSans-d7" transform="translate(170.765625 0.765625)"/>
       <use xlink:href="#DejaVuSans-31" transform="translate(274.037109 0.765625)"/>
       <use xlink:href="#DejaVuSans-30" transform="translate(337.660156 0.765625)"/>
       <use xlink:href="#DejaVuSans-32" transform="translate(402.240234 39.046875) scale(0.7)"/>
      </g>
     </g>
    </g>
    <g id="text_46">
     <!-- Nt_input_size -->
     <g transform="translate(77.442187 592.526838) rotate(-90) scale(0.1 -0.1)">
      <defs>
       <path id="DejaVuSans-4e" d="M 628 4666 
L 1478 4666 
L 3547 763 
L 3547 4666 
L 4159 4666 
L 4159 0 
L 3309 0 
L 1241 3903 
L 1241 0 
L 628 0 
L 628 4666 
z
" transform="scale(0.015625)"/>
       <path id="DejaVuSans-6e" d="M 3513 2113 
L 3513 0 
L 2938 0 
L 2938 2094 
Q 2938 2591 2744 2837 
Q 2550 3084 2163 3084 
Q 1697 3084 1428 2787 
Q 1159 2491 1159 1978 
L 1159 0 
L 581 0 
L 581 3500 
L 1159 3500 
L 1159 2956 
Q 1366 3272 1645 3428 
Q 1925 3584 2291 3584 
Q 2894 3584 3203 3211 
Q 3513 2838 3513 2113 
z
" transform="scale(0.015625)"/>
       <path id="DejaVuSans-75" d="M 544 1381 
L 544 3500 
L 1119 3500 
L 1119 1403 
Q 1119 906 1312 657 
Q 1506 409 1894 409 
Q 2359 409 2629 706 
Q 2900 1003 2900 1516 
L 2900 3500 
L 3475 3500 
L 3475 0 
L 2900 0 
L 2900 538 
Q 2691 219 2414 64 
Q 2138 -91 1772 -91 
Q 1169 -91 856 284 
Q 544 659 544 1381 
z
M 1991 3584 
L 1991 3584 
z
" transform="scale(0.015625)"/>
      </defs>
      <use xlink:href="#DejaVuSans-4e"/>
      <use xlink:href="#DejaVuSans-74" x="74.804688"/>
      <use xlink:href="#DejaVuSans-5f" x="114.013672"/>
      <use xlink:href="#DejaVuSans-69" x="164.013672"/>
      <use xlink:href="#DejaVuSans-6e" x="191.796875"/>
      <use xlink:href="#DejaVuSans-70" x="255.175781"/>
      <use xlink:href="#DejaVuSans-75" x="318.652344"/>
      <use xlink:href="#DejaVuSans-74" x="382.03125"/>
      <use xlink:href="#DejaVuSans-5f" x="421.240234"/>
      <use xlink:href="#DejaVuSans-73" x="471.240234"/>
      <use xlink:href="#DejaVuSans-69" x="523.339844"/>
      <use xlink:href="#DejaVuSans-7a" x="551.123047"/>
      <use xlink:href="#DejaVuSans-65" x="603.613281"/>
     </g>
    </g>
   </g>
   <g id="line2d_68">
    <path d="M 173.045455 630.309379 
L 199.28577 626.054115 
L 225.526085 622.148146 
L 251.746384 615.92828 
L 278.006715 613.587301 
L 304.186983 607.801794 
L 330.447314 603.240613 
L 356.707645 599.297296 
L 382.967975 593.739216 
L 409.228306 591.814352 
L 435.328512 588.810586 
L 461.588843 584.486537 
L 487.849174 581.011783 
L 514.109504 575.993958 
L 540.369835 570.529574 
L 566.630165 570.013535 
L 592.890496 566.167071 
L 619.150826 560.600238 
L 645.411157 555.614449 
L 671.35124 556.109875 
L 697.61157 547.538599 
L 723.871901 548.750416 
L 750.132231 546.813498 
L 776.392562 538.697987 
L 802.652893 534.94245 
L 828.913223 534.242707 
L 855.173554 530.995432 
L 881.433884 530.995432 
L 907.694215 525.724546 
L 933.954545 523.457145 
" clip-path="url(#pa408c4657b)" style="fill: none; stroke: #edd1cb; stroke-width: 1.5; stroke-linecap: square"/>
   </g>
   <g id="line2d_69">
    <path d="M 173.045455 615.34158 
L 199.28577 609.527525 
L 225.526085 604.944166 
L 251.746384 602.391906 
L 278.006715 594.015054 
L 304.186983 594.843862 
L 330.447314 588.538778 
L 356.707645 587.182863 
L 382.967975 580.214744 
L 409.228306 574.163095 
L 435.328512 573.381333 
L 461.588843 566.933022 
L 487.849174 567.44458 
L 514.109504 559.847871 
L 540.369835 558.347926 
L 566.630165 555.614449 
L 592.890496 553.393583 
L 619.150826 546.330922 
L 645.411157 544.167448 
L 671.35124 537.990778 
L 697.61157 538.462093 
L 723.871901 532.847364 
L 750.132231 527.320425 
L 776.392562 529.612823 
L 802.652893 525.724546 
L 828.913223 520.083083 
L 855.173554 515.85499 
L 881.433884 514.309932 
L 907.694215 511.676873 
L 933.954545 512.333301 
" clip-path="url(#pa408c4657b)" style="fill: none; stroke: #c8879e; stroke-width: 1.5; stroke-linecap: square"/>
   </g>
   <g id="line2d_70">
    <path d="M 173.045455 603.523969 
L 199.28577 599.577507 
L 225.526085 592.363245 
L 251.746384 589.899914 
L 278.006715 585.024159 
L 304.186983 583.146048 
L 330.447314 576.518808 
L 356.707645 575.208141 
L 382.967975 569.498248 
L 409.228306 563.372696 
L 435.328512 562.614412 
L 461.588843 557.600333 
L 487.849174 555.862075 
L 514.109504 549.966401 
L 540.369835 547.055033 
L 566.630165 546.330922 
L 592.890496 542.255413 
L 619.150826 536.346105 
L 645.411157 531.68877 
L 671.35124 532.615341 
L 697.61157 522.328875 
L 723.871901 523.231203 
L 750.132231 523.005405 
L 776.392562 519.859286 
L 802.652893 512.990951 
L 828.913223 514.530242 
L 855.173554 508.196361 
L 881.433884 503.039019 
L 907.694215 504.535487 
L 933.954545 501.761355 
" clip-path="url(#pa408c4657b)" style="fill: none; stroke: #834c7d; stroke-width: 1.5; stroke-linecap: square"/>
   </g>
   <g id="line2d_71">
    <path d="M 173.045455 594.843862 
L 199.28577 590.172771 
L 225.526085 584.218032 
L 251.746384 579.684381 
L 278.006715 575.469886 
L 304.186983 571.563917 
L 330.447314 564.386278 
L 356.707645 563.372696 
L 382.967975 560.600238 
L 409.228306 555.614449 
L 435.328512 551.675839 
L 461.588843 544.887136 
L 487.849174 543.688469 
L 514.109504 536.815231 
L 540.369835 536.58059 
L 566.630165 536.111775 
L 592.890496 530.073092 
L 619.150826 526.863724 
L 645.411157 520.755324 
L 671.35124 520.979688 
L 697.61157 517.406831 
L 723.871901 516.297678 
L 750.132231 511.676873 
L 776.392562 508.412892 
L 802.652893 503.893368 
L 828.913223 503.252413 
L 855.173554 497.955841 
L 881.433884 497.955841 
L 907.694215 491.702967 
L 933.954545 488.617525 
" clip-path="url(#pa408c4657b)" style="fill: none; stroke: #2d1e3e; stroke-width: 1.5; stroke-linecap: square"/>
   </g>
   <g id="line2d_72"/>
   <g id="line2d_73"/>
   <g id="line2d_74"/>
   <g id="line2d_75"/>
   <g id="patch_15">
    <path d="M 135 640.8 
L 135 477.741176 
" style="fill: none; stroke: #000000; stroke-width: 0.8; stroke-linejoin: miter; stroke-linecap: square"/>
   </g>
   <g id="patch_16">
    <path d="M 972 640.8 
L 972 477.741176 
" style="fill: none; stroke: #000000; stroke-width: 0.8; stroke-linejoin: miter; stroke-linecap: square"/>
   </g>
   <g id="patch_17">
    <path d="M 135 640.8 
L 972 640.8 
" style="fill: none; stroke: #000000; stroke-width: 0.8; stroke-linejoin: miter; stroke-linecap: square"/>
   </g>
   <g id="patch_18">
    <path d="M 135 477.741176 
L 972 477.741176 
" style="fill: none; stroke: #000000; stroke-width: 0.8; stroke-linejoin: miter; stroke-linecap: square"/>
   </g>
   <g id="legend_3">
    <g id="patch_19">
     <path d="M 142 559.409926 
L 253.528125 559.409926 
Q 255.528125 559.409926 255.528125 557.409926 
L 255.528125 484.741176 
Q 255.528125 482.741176 253.528125 482.741176 
L 142 482.741176 
Q 140 482.741176 140 484.741176 
L 140 557.409926 
Q 140 559.409926 142 559.409926 
z
" style="fill: #ffffff; opacity: 0.8; stroke: #cccccc; stroke-linejoin: miter"/>
    </g>
    <g id="text_47">
     <!-- proba_1 -->
     <g transform="translate(177.667969 494.339614) scale(0.1 -0.1)">
      <use xlink:href="#DejaVuSans-70"/>
      <use xlink:href="#DejaVuSans-72" x="63.476562"/>
      <use xlink:href="#DejaVuSans-6f" x="102.339844"/>
      <use xlink:href="#DejaVuSans-62" x="163.521484"/>
      <use xlink:href="#DejaVuSans-61" x="226.998047"/>
      <use xlink:href="#DejaVuSans-5f" x="288.277344"/>
      <use xlink:href="#DejaVuSans-31" x="338.277344"/>
     </g>
    </g>
    <g id="line2d_76">
     <path d="M 144 505.795864 
L 154 505.795864 
L 164 505.795864 
" style="fill: none; stroke: #edd1cb; stroke-width: 1.5; stroke-linecap: square"/>
    </g>
    <g id="text_48">
     <!-- 0.7998046875 -->
     <g transform="translate(172 509.295864) scale(0.1 -0.1)">
      <use xlink:href="#DejaVuSans-30"/>
      <use xlink:href="#DejaVuSans-2e" x="63.623047"/>
      <use xlink:href="#DejaVuSans-37" x="95.410156"/>
      <use xlink:href="#DejaVuSans-39" x="159.033203"/>
      <use xlink:href="#DejaVuSans-39" x="222.65625"/>
      <use xlink:href="#DejaVuSans-38" x="286.279297"/>
      <use xlink:href="#DejaVuSans-30" x="349.902344"/>
      <use xlink:href="#DejaVuSans-34" x="413.525391"/>
      <use xlink:href="#DejaVuSans-36" x="477.148438"/>
      <use xlink:href="#DejaVuSans-38" x="540.771484"/>
      <use xlink:href="#DejaVuSans-37" x="604.394531"/>
      <use xlink:href="#DejaVuSans-35" x="668.017578"/>
     </g>
    </g>
    <g id="line2d_77">
     <path d="M 144 520.473989 
L 154 520.473989 
L 164 520.473989 
" style="fill: none; stroke: #c8879e; stroke-width: 1.5; stroke-linecap: square"/>
    </g>
    <g id="text_49">
     <!-- 0.85009765625 -->
     <g transform="translate(172 523.973989) scale(0.1 -0.1)">
      <use xlink:href="#DejaVuSans-30"/>
      <use xlink:href="#DejaVuSans-2e" x="63.623047"/>
      <use xlink:href="#DejaVuSans-38" x="95.410156"/>
      <use xlink:href="#DejaVuSans-35" x="159.033203"/>
      <use xlink:href="#DejaVuSans-30" x="222.65625"/>
      <use xlink:href="#DejaVuSans-30" x="286.279297"/>
      <use xlink:href="#DejaVuSans-39" x="349.902344"/>
      <use xlink:href="#DejaVuSans-37" x="413.525391"/>
      <use xlink:href="#DejaVuSans-36" x="477.148438"/>
      <use xlink:href="#DejaVuSans-35" x="540.771484"/>
      <use xlink:href="#DejaVuSans-36" x="604.394531"/>
      <use xlink:href="#DejaVuSans-32" x="668.017578"/>
      <use xlink:href="#DejaVuSans-35" x="731.640625"/>
     </g>
    </g>
    <g id="line2d_78">
     <path d="M 144 535.152114 
L 154 535.152114 
L 164 535.152114 
" style="fill: none; stroke: #834c7d; stroke-width: 1.5; stroke-linecap: square"/>
    </g>
    <g id="text_50">
     <!-- 0.89990234375 -->
     <g transform="translate(172 538.652114) scale(0.1 -0.1)">
      <use xlink:href="#DejaVuSans-30"/>
      <use xlink:href="#DejaVuSans-2e" x="63.623047"/>
      <use xlink:href="#DejaVuSans-38" x="95.410156"/>
      <use xlink:href="#DejaVuSans-39" x="159.033203"/>
      <use xlink:href="#DejaVuSans-39" x="222.65625"/>
      <use xlink:href="#DejaVuSans-39" x="286.279297"/>
      <use xlink:href="#DejaVuSans-30" x="349.902344"/>
      <use xlink:href="#DejaVuSans-32" x="413.525391"/>
      <use xlink:href="#DejaVuSans-33" x="477.148438"/>
      <use xlink:href="#DejaVuSans-34" x="540.771484"/>
      <use xlink:href="#DejaVuSans-33" x="604.394531"/>
      <use xlink:href="#DejaVuSans-37" x="668.017578"/>
      <use xlink:href="#DejaVuSans-35" x="731.640625"/>
     </g>
    </g>
    <g id="line2d_79">
     <path d="M 144 549.830239 
L 154 549.830239 
L 164 549.830239 
" style="fill: none; stroke: #2d1e3e; stroke-width: 1.5; stroke-linecap: square"/>
    </g>
    <g id="text_51">
     <!-- 0.9501953125 -->
     <g transform="translate(172 553.330239) scale(0.1 -0.1)">
      <use xlink:href="#DejaVuSans-30"/>
      <use xlink:href="#DejaVuSans-2e" x="63.623047"/>
      <use xlink:href="#DejaVuSans-39" x="95.410156"/>
      <use xlink:href="#DejaVuSans-35" x="159.033203"/>
      <use xlink:href="#DejaVuSans-30" x="222.65625"/>
      <use xlink:href="#DejaVuSans-31" x="286.279297"/>
      <use xlink:href="#DejaVuSans-39" x="349.902344"/>
      <use xlink:href="#DejaVuSans-35" x="413.525391"/>
      <use xlink:href="#DejaVuSans-33" x="477.148438"/>
      <use xlink:href="#DejaVuSans-31" x="540.771484"/>
      <use xlink:href="#DejaVuSans-32" x="604.394531"/>
      <use xlink:href="#DejaVuSans-35" x="668.017578"/>
     </g>
    </g>
   </g>
  </g>
 </g>
 <defs>
  <clipPath id="paef5d2897c">
   <rect x="135" y="86.4" width="837" height="163.058824"/>
  </clipPath>
  <clipPath id="p9f8ea27bd8">
   <rect x="135" y="282.070588" width="837" height="163.058824"/>
  </clipPath>
  <clipPath id="pa408c4657b">
   <rect x="135" y="477.741176" width="837" height="163.058824"/>
  </clipPath>
 </defs>
</svg>
