<?xml version="1.0" encoding="utf-8" standalone="no"?>
<!DOCTYPE svg PUBLIC "-//W3C//DTD SVG 1.1//EN"
  "http://www.w3.org/Graphics/SVG/1.1/DTD/svg11.dtd">
<svg xmlns:xlink="http://www.w3.org/1999/xlink" width="1080pt" height="720pt" viewBox="0 0 1080 720" xmlns="http://www.w3.org/2000/svg" version="1.1">
 <metadata>
  <rdf:RDF xmlns:dc="http://purl.org/dc/elements/1.1/" xmlns:cc="http://creativecommons.org/ns#" xmlns:rdf="http://www.w3.org/1999/02/22-rdf-syntax-ns#">
   <cc:Work>
    <dc:type rdf:resource="http://purl.org/dc/dcmitype/StillImage"/>
    <dc:date>2024-05-29T14:58:43.322132</dc:date>
    <dc:format>image/svg+xml</dc:format>
    <dc:creator>
     <cc:Agent>
      <dc:title>Matplotlib v3.8.4, https://matplotlib.org/</dc:title>
     </cc:Agent>
    </dc:creator>
   </cc:Work>
  </rdf:RDF>
 </metadata>
 <defs>
  <style type="text/css">*{stroke-linejoin: round; stroke-linecap: butt}</style>
 </defs>
 <g id="figure_1">
  <g id="patch_1">
   <path d="M 0 720 
L 1080 720 
L 1080 0 
L 0 0 
z
" style="fill: #ffffff"/>
  </g>
  <g id="axes_1">
   <g id="patch_2">
    <path d="M 135 249.458824 
L 972 249.458824 
L 972 86.4 
L 135 86.4 
z
" style="fill: #ffffff"/>
   </g>
   <g id="PolyCollection_1">
    <defs>
     <path id="mc848824f7f" d="M 173.045455 -477.952941 
L 173.045455 -477.952941 
L 199.28577 -487.311097 
L 225.526085 -493.539816 
L 251.746384 -497.415224 
L 278.006715 -501.61011 
L 304.186983 -508.885072 
L 330.447314 -515.454672 
L 356.707645 -520.662569 
L 382.967975 -525.700481 
L 409.228306 -533.635933 
L 435.328512 -535.308347 
L 461.588843 -538.273776 
L 487.849174 -544.971482 
L 514.109504 -548.684167 
L 540.369835 -554.953814 
L 566.630165 -559.293385 
L 592.890496 -564.060629 
L 619.150826 -570.284667 
L 645.411157 -574.212673 
L 671.35124 -574.47102 
L 697.61157 -578.0432 
L 723.871901 -582.762608 
L 750.132231 -584.948735 
L 776.392562 -591.558529 
L 802.652893 -591.558529 
L 828.913223 -592.014241 
L 855.173554 -600.098942 
L 881.433884 -600.31743 
L 907.694215 -604.835674 
L 933.954545 -605.89223 
L 933.954545 -611.88162 
L 933.954545 -611.88162 
L 907.694215 -609.637052 
L 881.433884 -606.941604 
L 855.173554 -606.7323 
L 828.913223 -599.880143 
L 802.652893 -598.339808 
L 776.392562 -598.560799 
L 750.132231 -592.480097 
L 723.871901 -588.766226 
L 697.61157 -587.579295 
L 671.35124 -585.670618 
L 645.411157 -578.29522 
L 619.150826 -575.243477 
L 592.890496 -568.423532 
L 566.630165 -565.981607 
L 540.369835 -560.710863 
L 514.109504 -556.418771 
L 487.849174 -551.40561 
L 461.588843 -545.913882 
L 435.328512 -539.249726 
L 409.228306 -540.541469 
L 382.967975 -533.299265 
L 356.707645 -524.634684 
L 330.447314 -521.392416 
L 304.186983 -513.933849 
L 278.006715 -507.297785 
L 251.746384 -502.023396 
L 225.526085 -498.263371 
L 199.28577 -487.311097 
L 173.045455 -477.952941 
z
" style="stroke: #edd1cb; stroke-opacity: 0.2"/>
    </defs>
    <g clip-path="url(#pef0ef0ec29)">
     <use xlink:href="#mc848824f7f" x="0" y="720" style="fill: #edd1cb; fill-opacity: 0.2; stroke: #edd1cb; stroke-opacity: 0.2"/>
    </g>
   </g>
   <g id="PolyCollection_2">
    <defs>
     <path id="m6013232357" d="M 173.045455 -477.952941 
L 173.045455 -477.952941 
L 199.28577 -487.311097 
L 225.526085 -493.539816 
L 251.746384 -499.106883 
L 278.006715 -508.479883 
L 304.186983 -511.624146 
L 330.447314 -521.75605 
L 356.707645 -523.561477 
L 382.967975 -527.810249 
L 409.228306 -540.219545 
L 435.328512 -539.249726 
L 461.588843 -545.602981 
L 487.849174 -551.40561 
L 514.109504 -559.008321 
L 540.369835 -561.555144 
L 566.630165 -564.336522 
L 592.890496 -565.708641 
L 619.150826 -571.341947 
L 645.411157 -577.284661 
L 671.35124 -580.047933 
L 697.61157 -581.780968 
L 723.871901 -584.707356 
L 750.132231 -590.398776 
L 776.392562 -591.095673 
L 802.652893 -596.783947 
L 828.913223 -596.778362 
L 855.173554 -605.253878 
L 881.433884 -606.312836 
L 907.694215 -610.661358 
L 933.954545 -610.45704 
L 933.954545 -616.275151 
L 933.954545 -616.275151 
L 907.694215 -615.880867 
L 881.433884 -611.886684 
L 855.173554 -614.29358 
L 828.913223 -603.344239 
L 802.652893 -601.621908 
L 776.392562 -596.783947 
L 750.132231 -596.560396 
L 723.871901 -591.095673 
L 697.61157 -590.869526 
L 671.35124 -588.995473 
L 645.411157 -580.545075 
L 619.150826 -576.77689 
L 592.890496 -570.284667 
L 566.630165 -569.486928 
L 540.369835 -567.609344 
L 514.109504 -567.61609 
L 487.849174 -556.997993 
L 461.588843 -551.705052 
L 435.328512 -547.151262 
L 409.228306 -546.224158 
L 382.967975 -534.975311 
L 356.707645 -530.235745 
L 330.447314 -526.758969 
L 304.186983 -516.960658 
L 278.006715 -513.551291 
L 251.746384 -502.846664 
L 225.526085 -498.263371 
L 199.28577 -490.011381 
L 173.045455 -477.952941 
z
" style="stroke: #c8879e; stroke-opacity: 0.2"/>
    </defs>
    <g clip-path="url(#pef0ef0ec29)">
     <use xlink:href="#m6013232357" x="0" y="720" style="fill: #c8879e; fill-opacity: 0.2; stroke: #c8879e; stroke-opacity: 0.2"/>
    </g>
   </g>
   <g id="PolyCollection_3">
    <defs>
     <path id="mb06fd57c3a" d="M 173.045455 -477.952941 
L 173.045455 -477.952941 
L 199.28577 -487.311097 
L 225.526085 -497.83988 
L 251.746384 -503.665564 
L 278.006715 -511.235813 
L 304.186983 -515.075869 
L 330.447314 -528.854417 
L 356.707645 -528.507146 
L 382.967975 -536.962835 
L 409.228306 -541.183309 
L 435.328512 -543.09297 
L 461.588843 -548.37116 
L 487.849174 -556.997993 
L 514.109504 -556.708654 
L 540.369835 -562.952098 
L 566.630165 -566.254091 
L 592.890496 -568.148131 
L 619.150826 -574.464567 
L 645.411157 -578.798029 
L 671.35124 -581.04062 
L 697.61157 -585.430365 
L 723.871901 -588.995473 
L 750.132231 -591.789437 
L 776.392562 -594.533728 
L 802.652893 -600.31743 
L 828.913223 -601.399839 
L 855.173554 -603.771836 
L 881.433884 -610.04759 
L 907.694215 -609.431373 
L 933.954545 -610.247333 
L 933.954545 -615.880867 
L 933.954545 -615.880867 
L 907.694215 -614.890727 
L 881.433884 -612.891187 
L 855.173554 -608.191508 
L 828.913223 -606.527954 
L 802.652893 -604.411018 
L 776.392562 -597.67493 
L 750.132231 -595.887792 
L 723.871901 -594.992054 
L 697.61157 -593.852216 
L 671.35124 -585.430365 
L 645.411157 -583.738044 
L 619.150826 -581.53458 
L 592.890496 -574.728936 
L 566.630165 -573.181447 
L 540.369835 -570.284667 
L 514.109504 -561.27423 
L 487.849174 -561.555144 
L 461.588843 -554.374208 
L 435.328512 -548.98893 
L 409.228306 -546.224158 
L 382.967975 -539.573677 
L 356.707645 -535.640666 
L 330.447314 -534.641554 
L 304.186983 -519.929255 
L 278.006715 -516.209502 
L 251.746384 -507.69614 
L 225.526085 -502.846664 
L 199.28577 -488.667144 
L 173.045455 -477.952941 
z
" style="stroke: #834c7d; stroke-opacity: 0.2"/>
    </defs>
    <g clip-path="url(#pef0ef0ec29)">
     <use xlink:href="#mb06fd57c3a" x="0" y="720" style="fill: #834c7d; fill-opacity: 0.2; stroke: #834c7d; stroke-opacity: 0.2"/>
    </g>
   </g>
   <g id="PolyCollection_4">
    <defs>
     <path id="m9d3f4b94ba" d="M 173.045455 -477.952941 
L 173.045455 -477.952941 
L 199.28577 -490.011381 
L 225.526085 -501.599764 
L 251.746384 -508.885072 
L 278.006715 -514.696134 
L 304.186983 -519.561288 
L 330.447314 -528.854417 
L 356.707645 -532.623718 
L 382.967975 -536.633353 
L 409.228306 -545.602981 
L 435.328512 -547.766252 
L 461.588843 -555.545844 
L 487.849174 -556.708654 
L 514.109504 -565.981607 
L 540.369835 -566.526095 
L 566.630165 -568.946113 
L 592.890496 -576.267443 
L 619.150826 -579.048821 
L 645.411157 -583.000939 
L 671.35124 -585.189738 
L 697.61157 -589.932425 
L 723.871901 -589.230245 
L 750.132231 -593.624375 
L 776.392562 -598.339808 
L 802.652893 -601.405259 
L 828.913223 -604.198251 
L 855.173554 -608.812685 
L 881.433884 -610.04759 
L 907.694215 -614.890727 
L 933.954545 -617.842295 
L 933.954545 -626.188235 
L 933.954545 -626.188235 
L 907.694215 -619.393688 
L 881.433884 -615.287545 
L 855.173554 -615.089263 
L 828.913223 -608.812685 
L 802.652893 -606.52271 
L 776.392562 -604.203574 
L 750.132231 -599.880143 
L 723.871901 -596.342121 
L 697.61157 -593.857908 
L 671.35124 -590.863723 
L 645.411157 -591.558529 
L 619.150826 -584.223461 
L 592.890496 -582.762608 
L 566.630165 -574.47102 
L 540.369835 -575.243477 
L 514.109504 -571.611714 
L 487.849174 -563.507358 
L 461.588843 -560.435475 
L 435.328512 -553.201017 
L 409.228306 -551.705052 
L 382.967975 -541.822491 
L 356.707645 -537.291616 
L 330.447314 -535.972272 
L 304.186983 -524.634684 
L 278.006715 -519.561288 
L 251.746384 -512.021176 
L 225.526085 -508.093469 
L 199.28577 -494.409465 
L 173.045455 -477.952941 
z
" style="stroke: #2d1e3e; stroke-opacity: 0.2"/>
    </defs>
    <g clip-path="url(#pef0ef0ec29)">
     <use xlink:href="#m9d3f4b94ba" x="0" y="720" style="fill: #2d1e3e; fill-opacity: 0.2; stroke: #2d1e3e; stroke-opacity: 0.2"/>
    </g>
   </g>
   <g id="matplotlib.axis_1">
    <g id="xtick_1">
     <g id="line2d_1">
      <defs>
       <path id="m2af0497015" d="M 0 0 
L 0 3.5 
" style="stroke: #000000; stroke-width: 0.8"/>
      </defs>
      <g>
       <use xlink:href="#m2af0497015" x="173.045455" y="249.458824" style="stroke: #000000; stroke-width: 0.8"/>
      </g>
     </g>
     <g id="text_1">
      <!-- 0.00 -->
      <g transform="translate(161.912642 264.057261) scale(0.1 -0.1)">
       <defs>
        <path id="DejaVuSans-30" d="M 2034 4250 
Q 1547 4250 1301 3770 
Q 1056 3291 1056 2328 
Q 1056 1369 1301 889 
Q 1547 409 2034 409 
Q 2525 409 2770 889 
Q 3016 1369 3016 2328 
Q 3016 3291 2770 3770 
Q 2525 4250 2034 4250 
z
M 2034 4750 
Q 2819 4750 3233 4129 
Q 3647 3509 3647 2328 
Q 3647 1150 3233 529 
Q 2819 -91 2034 -91 
Q 1250 -91 836 529 
Q 422 1150 422 2328 
Q 422 3509 836 4129 
Q 1250 4750 2034 4750 
z
" transform="scale(0.015625)"/>
        <path id="DejaVuSans-2e" d="M 684 794 
L 1344 794 
L 1344 0 
L 684 0 
L 684 794 
z
" transform="scale(0.015625)"/>
       </defs>
       <use xlink:href="#DejaVuSans-30"/>
       <use xlink:href="#DejaVuSans-2e" x="63.623047"/>
       <use xlink:href="#DejaVuSans-30" x="95.410156"/>
       <use xlink:href="#DejaVuSans-30" x="159.033203"/>
      </g>
     </g>
    </g>
    <g id="xtick_2">
     <g id="line2d_2">
      <g>
       <use xlink:href="#m2af0497015" x="304.219008" y="249.458824" style="stroke: #000000; stroke-width: 0.8"/>
      </g>
     </g>
     <g id="text_2">
      <!-- 0.05 -->
      <g transform="translate(293.086196 264.057261) scale(0.1 -0.1)">
       <defs>
        <path id="DejaVuSans-35" d="M 691 4666 
L 3169 4666 
L 3169 4134 
L 1269 4134 
L 1269 2991 
Q 1406 3038 1543 3061 
Q 1681 3084 1819 3084 
Q 2600 3084 3056 2656 
Q 3513 2228 3513 1497 
Q 3513 744 3044 326 
Q 2575 -91 1722 -91 
Q 1428 -91 1123 -41 
Q 819 9 494 109 
L 494 744 
Q 775 591 1075 516 
Q 1375 441 1709 441 
Q 2250 441 2565 725 
Q 2881 1009 2881 1497 
Q 2881 1984 2565 2268 
Q 2250 2553 1709 2553 
Q 1456 2553 1204 2497 
Q 953 2441 691 2322 
L 691 4666 
z
" transform="scale(0.015625)"/>
       </defs>
       <use xlink:href="#DejaVuSans-30"/>
       <use xlink:href="#DejaVuSans-2e" x="63.623047"/>
       <use xlink:href="#DejaVuSans-30" x="95.410156"/>
       <use xlink:href="#DejaVuSans-35" x="159.033203"/>
      </g>
     </g>
    </g>
    <g id="xtick_3">
     <g id="line2d_3">
      <g>
       <use xlink:href="#m2af0497015" x="435.392562" y="249.458824" style="stroke: #000000; stroke-width: 0.8"/>
      </g>
     </g>
     <g id="text_3">
      <!-- 0.10 -->
      <g transform="translate(424.259749 264.057261) scale(0.1 -0.1)">
       <defs>
        <path id="DejaVuSans-31" d="M 794 531 
L 1825 531 
L 1825 4091 
L 703 3866 
L 703 4441 
L 1819 4666 
L 2450 4666 
L 2450 531 
L 3481 531 
L 3481 0 
L 794 0 
L 794 531 
z
" transform="scale(0.015625)"/>
       </defs>
       <use xlink:href="#DejaVuSans-30"/>
       <use xlink:href="#DejaVuSans-2e" x="63.623047"/>
       <use xlink:href="#DejaVuSans-31" x="95.410156"/>
       <use xlink:href="#DejaVuSans-30" x="159.033203"/>
      </g>
     </g>
    </g>
    <g id="xtick_4">
     <g id="line2d_4">
      <g>
       <use xlink:href="#m2af0497015" x="566.566116" y="249.458824" style="stroke: #000000; stroke-width: 0.8"/>
      </g>
     </g>
     <g id="text_4">
      <!-- 0.15 -->
      <g transform="translate(555.433303 264.057261) scale(0.1 -0.1)">
       <use xlink:href="#DejaVuSans-30"/>
       <use xlink:href="#DejaVuSans-2e" x="63.623047"/>
       <use xlink:href="#DejaVuSans-31" x="95.410156"/>
       <use xlink:href="#DejaVuSans-35" x="159.033203"/>
      </g>
     </g>
    </g>
    <g id="xtick_5">
     <g id="line2d_5">
      <g>
       <use xlink:href="#m2af0497015" x="697.739669" y="249.458824" style="stroke: #000000; stroke-width: 0.8"/>
      </g>
     </g>
     <g id="text_5">
      <!-- 0.20 -->
      <g transform="translate(686.606857 264.057261) scale(0.1 -0.1)">
       <defs>
        <path id="DejaVuSans-32" d="M 1228 531 
L 3431 531 
L 3431 0 
L 469 0 
L 469 531 
Q 828 903 1448 1529 
Q 2069 2156 2228 2338 
Q 2531 2678 2651 2914 
Q 2772 3150 2772 3378 
Q 2772 3750 2511 3984 
Q 2250 4219 1831 4219 
Q 1534 4219 1204 4116 
Q 875 4013 500 3803 
L 500 4441 
Q 881 4594 1212 4672 
Q 1544 4750 1819 4750 
Q 2544 4750 2975 4387 
Q 3406 4025 3406 3419 
Q 3406 3131 3298 2873 
Q 3191 2616 2906 2266 
Q 2828 2175 2409 1742 
Q 1991 1309 1228 531 
z
" transform="scale(0.015625)"/>
       </defs>
       <use xlink:href="#DejaVuSans-30"/>
       <use xlink:href="#DejaVuSans-2e" x="63.623047"/>
       <use xlink:href="#DejaVuSans-32" x="95.410156"/>
       <use xlink:href="#DejaVuSans-30" x="159.033203"/>
      </g>
     </g>
    </g>
    <g id="xtick_6">
     <g id="line2d_6">
      <g>
       <use xlink:href="#m2af0497015" x="828.913223" y="249.458824" style="stroke: #000000; stroke-width: 0.8"/>
      </g>
     </g>
     <g id="text_6">
      <!-- 0.25 -->
      <g transform="translate(817.780411 264.057261) scale(0.1 -0.1)">
       <use xlink:href="#DejaVuSans-30"/>
       <use xlink:href="#DejaVuSans-2e" x="63.623047"/>
       <use xlink:href="#DejaVuSans-32" x="95.410156"/>
       <use xlink:href="#DejaVuSans-35" x="159.033203"/>
      </g>
     </g>
    </g>
    <g id="xtick_7">
     <g id="line2d_7">
      <g>
       <use xlink:href="#m2af0497015" x="960.086777" y="249.458824" style="stroke: #000000; stroke-width: 0.8"/>
      </g>
     </g>
     <g id="text_7">
      <!-- 0.30 -->
      <g transform="translate(948.953964 264.057261) scale(0.1 -0.1)">
       <defs>
        <path id="DejaVuSans-33" d="M 2597 2516 
Q 3050 2419 3304 2112 
Q 3559 1806 3559 1356 
Q 3559 666 3084 287 
Q 2609 -91 1734 -91 
Q 1441 -91 1130 -33 
Q 819 25 488 141 
L 488 750 
Q 750 597 1062 519 
Q 1375 441 1716 441 
Q 2309 441 2620 675 
Q 2931 909 2931 1356 
Q 2931 1769 2642 2001 
Q 2353 2234 1838 2234 
L 1294 2234 
L 1294 2753 
L 1863 2753 
Q 2328 2753 2575 2939 
Q 2822 3125 2822 3475 
Q 2822 3834 2567 4026 
Q 2313 4219 1838 4219 
Q 1578 4219 1281 4162 
Q 984 4106 628 3988 
L 628 4550 
Q 988 4650 1302 4700 
Q 1616 4750 1894 4750 
Q 2613 4750 3031 4423 
Q 3450 4097 3450 3541 
Q 3450 3153 3228 2886 
Q 3006 2619 2597 2516 
z
" transform="scale(0.015625)"/>
       </defs>
       <use xlink:href="#DejaVuSans-30"/>
       <use xlink:href="#DejaVuSans-2e" x="63.623047"/>
       <use xlink:href="#DejaVuSans-33" x="95.410156"/>
       <use xlink:href="#DejaVuSans-30" x="159.033203"/>
      </g>
     </g>
    </g>
    <g id="text_8">
     <!-- proba_3 -->
     <g transform="translate(533.403906 277.735386) scale(0.1 -0.1)">
      <defs>
       <path id="DejaVuSans-70" d="M 1159 525 
L 1159 -1331 
L 581 -1331 
L 581 3500 
L 1159 3500 
L 1159 2969 
Q 1341 3281 1617 3432 
Q 1894 3584 2278 3584 
Q 2916 3584 3314 3078 
Q 3713 2572 3713 1747 
Q 3713 922 3314 415 
Q 2916 -91 2278 -91 
Q 1894 -91 1617 61 
Q 1341 213 1159 525 
z
M 3116 1747 
Q 3116 2381 2855 2742 
Q 2594 3103 2138 3103 
Q 1681 3103 1420 2742 
Q 1159 2381 1159 1747 
Q 1159 1113 1420 752 
Q 1681 391 2138 391 
Q 2594 391 2855 752 
Q 3116 1113 3116 1747 
z
" transform="scale(0.015625)"/>
       <path id="DejaVuSans-72" d="M 2631 2963 
Q 2534 3019 2420 3045 
Q 2306 3072 2169 3072 
Q 1681 3072 1420 2755 
Q 1159 2438 1159 1844 
L 1159 0 
L 581 0 
L 581 3500 
L 1159 3500 
L 1159 2956 
Q 1341 3275 1631 3429 
Q 1922 3584 2338 3584 
Q 2397 3584 2469 3576 
Q 2541 3569 2628 3553 
L 2631 2963 
z
" transform="scale(0.015625)"/>
       <path id="DejaVuSans-6f" d="M 1959 3097 
Q 1497 3097 1228 2736 
Q 959 2375 959 1747 
Q 959 1119 1226 758 
Q 1494 397 1959 397 
Q 2419 397 2687 759 
Q 2956 1122 2956 1747 
Q 2956 2369 2687 2733 
Q 2419 3097 1959 3097 
z
M 1959 3584 
Q 2709 3584 3137 3096 
Q 3566 2609 3566 1747 
Q 3566 888 3137 398 
Q 2709 -91 1959 -91 
Q 1206 -91 779 398 
Q 353 888 353 1747 
Q 353 2609 779 3096 
Q 1206 3584 1959 3584 
z
" transform="scale(0.015625)"/>
       <path id="DejaVuSans-62" d="M 3116 1747 
Q 3116 2381 2855 2742 
Q 2594 3103 2138 3103 
Q 1681 3103 1420 2742 
Q 1159 2381 1159 1747 
Q 1159 1113 1420 752 
Q 1681 391 2138 391 
Q 2594 391 2855 752 
Q 3116 1113 3116 1747 
z
M 1159 2969 
Q 1341 3281 1617 3432 
Q 1894 3584 2278 3584 
Q 2916 3584 3314 3078 
Q 3713 2572 3713 1747 
Q 3713 922 3314 415 
Q 2916 -91 2278 -91 
Q 1894 -91 1617 61 
Q 1341 213 1159 525 
L 1159 0 
L 581 0 
L 581 4863 
L 1159 4863 
L 1159 2969 
z
" transform="scale(0.015625)"/>
       <path id="DejaVuSans-61" d="M 2194 1759 
Q 1497 1759 1228 1600 
Q 959 1441 959 1056 
Q 959 750 1161 570 
Q 1363 391 1709 391 
Q 2188 391 2477 730 
Q 2766 1069 2766 1631 
L 2766 1759 
L 2194 1759 
z
M 3341 1997 
L 3341 0 
L 2766 0 
L 2766 531 
Q 2569 213 2275 61 
Q 1981 -91 1556 -91 
Q 1019 -91 701 211 
Q 384 513 384 1019 
Q 384 1609 779 1909 
Q 1175 2209 1959 2209 
L 2766 2209 
L 2766 2266 
Q 2766 2663 2505 2880 
Q 2244 3097 1772 3097 
Q 1472 3097 1187 3025 
Q 903 2953 641 2809 
L 641 3341 
Q 956 3463 1253 3523 
Q 1550 3584 1831 3584 
Q 2591 3584 2966 3190 
Q 3341 2797 3341 1997 
z
" transform="scale(0.015625)"/>
       <path id="DejaVuSans-5f" d="M 3263 -1063 
L 3263 -1509 
L -63 -1509 
L -63 -1063 
L 3263 -1063 
z
" transform="scale(0.015625)"/>
      </defs>
      <use xlink:href="#DejaVuSans-70"/>
      <use xlink:href="#DejaVuSans-72" x="63.476562"/>
      <use xlink:href="#DejaVuSans-6f" x="102.339844"/>
      <use xlink:href="#DejaVuSans-62" x="163.521484"/>
      <use xlink:href="#DejaVuSans-61" x="226.998047"/>
      <use xlink:href="#DejaVuSans-5f" x="288.277344"/>
      <use xlink:href="#DejaVuSans-33" x="338.277344"/>
     </g>
    </g>
   </g>
   <g id="matplotlib.axis_2">
    <g id="ytick_1">
     <g id="line2d_8">
      <defs>
       <path id="mcb02c822e3" d="M 0 0 
L -3.5 0 
" style="stroke: #000000; stroke-width: 0.8"/>
      </defs>
      <g>
       <use xlink:href="#mcb02c822e3" x="135" y="173.157154" style="stroke: #000000; stroke-width: 0.8"/>
      </g>
     </g>
     <g id="text_9">
      <!-- $\mathdefault{10^{2}}$ -->
      <g transform="translate(110.4 176.956373) scale(0.1 -0.1)">
       <use xlink:href="#DejaVuSans-31" transform="translate(0 0.765625)"/>
       <use xlink:href="#DejaVuSans-30" transform="translate(63.623047 0.765625)"/>
       <use xlink:href="#DejaVuSans-32" transform="translate(128.203125 39.046875) scale(0.7)"/>
      </g>
     </g>
    </g>
    <g id="ytick_2">
     <g id="line2d_9">
      <defs>
       <path id="mac87223c2f" d="M 0 0 
L -2 0 
" style="stroke: #000000; stroke-width: 0.6"/>
      </defs>
      <g>
       <use xlink:href="#mac87223c2f" x="135" y="228.21432" style="stroke: #000000; stroke-width: 0.6"/>
      </g>
     </g>
    </g>
    <g id="ytick_3">
     <g id="line2d_10">
      <g>
       <use xlink:href="#mac87223c2f" x="135" y="207.602107" style="stroke: #000000; stroke-width: 0.6"/>
      </g>
     </g>
    </g>
    <g id="ytick_4">
     <g id="line2d_11">
      <g>
       <use xlink:href="#mac87223c2f" x="135" y="189.420846" style="stroke: #000000; stroke-width: 0.6"/>
      </g>
     </g>
    </g>
    <g id="text_10">
     <!-- R_1 size_sqrt -->
     <g transform="translate(104.042188 200.663006) rotate(-90) scale(0.1 -0.1)">
      <defs>
       <path id="DejaVuSans-52" d="M 2841 2188 
Q 3044 2119 3236 1894 
Q 3428 1669 3622 1275 
L 4263 0 
L 3584 0 
L 2988 1197 
Q 2756 1666 2539 1819 
Q 2322 1972 1947 1972 
L 1259 1972 
L 1259 0 
L 628 0 
L 628 4666 
L 2053 4666 
Q 2853 4666 3247 4331 
Q 3641 3997 3641 3322 
Q 3641 2881 3436 2590 
Q 3231 2300 2841 2188 
z
M 1259 4147 
L 1259 2491 
L 2053 2491 
Q 2509 2491 2742 2702 
Q 2975 2913 2975 3322 
Q 2975 3731 2742 3939 
Q 2509 4147 2053 4147 
L 1259 4147 
z
" transform="scale(0.015625)"/>
       <path id="DejaVuSans-20" transform="scale(0.015625)"/>
       <path id="DejaVuSans-73" d="M 2834 3397 
L 2834 2853 
Q 2591 2978 2328 3040 
Q 2066 3103 1784 3103 
Q 1356 3103 1142 2972 
Q 928 2841 928 2578 
Q 928 2378 1081 2264 
Q 1234 2150 1697 2047 
L 1894 2003 
Q 2506 1872 2764 1633 
Q 3022 1394 3022 966 
Q 3022 478 2636 193 
Q 2250 -91 1575 -91 
Q 1294 -91 989 -36 
Q 684 19 347 128 
L 347 722 
Q 666 556 975 473 
Q 1284 391 1588 391 
Q 1994 391 2212 530 
Q 2431 669 2431 922 
Q 2431 1156 2273 1281 
Q 2116 1406 1581 1522 
L 1381 1569 
Q 847 1681 609 1914 
Q 372 2147 372 2553 
Q 372 3047 722 3315 
Q 1072 3584 1716 3584 
Q 2034 3584 2315 3537 
Q 2597 3491 2834 3397 
z
" transform="scale(0.015625)"/>
       <path id="DejaVuSans-69" d="M 603 3500 
L 1178 3500 
L 1178 0 
L 603 0 
L 603 3500 
z
M 603 4863 
L 1178 4863 
L 1178 4134 
L 603 4134 
L 603 4863 
z
" transform="scale(0.015625)"/>
       <path id="DejaVuSans-7a" d="M 353 3500 
L 3084 3500 
L 3084 2975 
L 922 459 
L 3084 459 
L 3084 0 
L 275 0 
L 275 525 
L 2438 3041 
L 353 3041 
L 353 3500 
z
" transform="scale(0.015625)"/>
       <path id="DejaVuSans-65" d="M 3597 1894 
L 3597 1613 
L 953 1613 
Q 991 1019 1311 708 
Q 1631 397 2203 397 
Q 2534 397 2845 478 
Q 3156 559 3463 722 
L 3463 178 
Q 3153 47 2828 -22 
Q 2503 -91 2169 -91 
Q 1331 -91 842 396 
Q 353 884 353 1716 
Q 353 2575 817 3079 
Q 1281 3584 2069 3584 
Q 2775 3584 3186 3129 
Q 3597 2675 3597 1894 
z
M 3022 2063 
Q 3016 2534 2758 2815 
Q 2500 3097 2075 3097 
Q 1594 3097 1305 2825 
Q 1016 2553 972 2059 
L 3022 2063 
z
" transform="scale(0.015625)"/>
       <path id="DejaVuSans-71" d="M 947 1747 
Q 947 1113 1208 752 
Q 1469 391 1925 391 
Q 2381 391 2643 752 
Q 2906 1113 2906 1747 
Q 2906 2381 2643 2742 
Q 2381 3103 1925 3103 
Q 1469 3103 1208 2742 
Q 947 2381 947 1747 
z
M 2906 525 
Q 2725 213 2448 61 
Q 2172 -91 1784 -91 
Q 1150 -91 751 415 
Q 353 922 353 1747 
Q 353 2572 751 3078 
Q 1150 3584 1784 3584 
Q 2172 3584 2448 3432 
Q 2725 3281 2906 2969 
L 2906 3500 
L 3481 3500 
L 3481 -1331 
L 2906 -1331 
L 2906 525 
z
" transform="scale(0.015625)"/>
       <path id="DejaVuSans-74" d="M 1172 4494 
L 1172 3500 
L 2356 3500 
L 2356 3053 
L 1172 3053 
L 1172 1153 
Q 1172 725 1289 603 
Q 1406 481 1766 481 
L 2356 481 
L 2356 0 
L 1766 0 
Q 1100 0 847 248 
Q 594 497 594 1153 
L 594 3053 
L 172 3053 
L 172 3500 
L 594 3500 
L 594 4494 
L 1172 4494 
z
" transform="scale(0.015625)"/>
      </defs>
      <use xlink:href="#DejaVuSans-52"/>
      <use xlink:href="#DejaVuSans-5f" x="69.482422"/>
      <use xlink:href="#DejaVuSans-31" x="119.482422"/>
      <use xlink:href="#DejaVuSans-20" x="183.105469"/>
      <use xlink:href="#DejaVuSans-73" x="214.892578"/>
      <use xlink:href="#DejaVuSans-69" x="266.992188"/>
      <use xlink:href="#DejaVuSans-7a" x="294.775391"/>
      <use xlink:href="#DejaVuSans-65" x="347.265625"/>
      <use xlink:href="#DejaVuSans-5f" x="408.789062"/>
      <use xlink:href="#DejaVuSans-73" x="458.789062"/>
      <use xlink:href="#DejaVuSans-71" x="510.888672"/>
      <use xlink:href="#DejaVuSans-72" x="574.365234"/>
      <use xlink:href="#DejaVuSans-74" x="615.478516"/>
     </g>
    </g>
   </g>
   <g id="line2d_12">
    <path d="M 173.045455 242.047059 
L 199.28577 232.688903 
L 225.526085 224.295179 
L 251.746384 220.473084 
L 278.006715 215.519858 
L 304.186983 208.764187 
L 330.447314 201.547907 
L 356.707645 197.519244 
L 382.967975 190.453374 
L 409.228306 183.037165 
L 435.328512 182.708384 
L 461.588843 177.858908 
L 487.849174 171.927169 
L 514.109504 167.697801 
L 540.369835 162.424951 
L 566.630165 157.605168 
L 592.890496 153.745909 
L 619.150826 147.346555 
L 645.411157 143.732557 
L 671.35124 140.450815 
L 697.61157 136.992954 
L 723.871901 134.089503 
L 750.132231 131.475144 
L 776.392562 124.787755 
L 802.652893 125.013596 
L 828.913223 124.112208 
L 855.173554 116.655761 
L 881.433884 116.441814 
L 907.694215 112.640635 
L 933.954545 111.394096 
" clip-path="url(#pef0ef0ec29)" style="fill: none; stroke: #edd1cb; stroke-width: 1.5; stroke-linecap: square"/>
   </g>
   <g id="line2d_13">
    <path d="M 173.045455 242.047059 
L 199.28577 231.332856 
L 225.526085 224.295179 
L 251.746384 218.804286 
L 278.006715 209.1535 
L 304.186983 205.684538 
L 330.447314 195.722223 
L 356.707645 193.241031 
L 382.967975 188.395179 
L 409.228306 176.90703 
L 435.328512 177.223671 
L 461.588843 171.315833 
L 487.849174 165.920096 
L 514.109504 156.492642 
L 540.369835 155.663478 
L 566.630165 153.202379 
L 592.890496 151.851869 
L 619.150826 146.046107 
L 645.411157 140.951179 
L 671.35124 135.292644 
L 697.61157 133.849996 
L 723.871901 131.9472 
L 750.132231 127.061173 
L 776.392562 125.920279 
L 802.652893 120.998165 
L 828.913223 119.901058 
L 855.173554 110.362948 
L 881.433884 110.98081 
L 907.694215 107.108813 
L 933.954545 106.506227 
" clip-path="url(#pef0ef0ec29)" style="fill: none; stroke: #c8879e; stroke-width: 1.5; stroke-linecap: square"/>
   </g>
   <g id="line2d_14">
    <path d="M 173.045455 242.047059 
L 199.28577 232.235562 
L 225.526085 219.63643 
L 251.746384 214.305993 
L 278.006715 206.448709 
L 304.186983 202.66513 
L 330.447314 188.395179 
L 356.707645 188.054799 
L 382.967975 181.726224 
L 409.228306 175.960987 
L 435.328512 173.775842 
L 461.588843 168.894414 
L 487.849174 160.422076 
L 514.109504 160.706615 
L 540.369835 153.473905 
L 566.630165 149.715333 
L 592.890496 148.658053 
L 619.150826 142.209232 
L 645.411157 138.712202 
L 671.35124 136.748903 
L 697.61157 130.301281 
L 723.871901 127.979999 
L 750.132231 126.375625 
L 776.392562 123.887681 
L 802.652893 117.514524 
L 828.913223 116.228164 
L 855.173554 113.897323 
L 881.433884 108.524063 
L 907.694215 107.915938 
L 933.954545 107.108813 
" clip-path="url(#pef0ef0ec29)" style="fill: none; stroke: #834c7d; stroke-width: 1.5; stroke-linecap: square"/>
   </g>
   <g id="line2d_15">
    <path d="M 173.045455 242.047059 
L 199.28577 227.773913 
L 225.526085 215.519858 
L 251.746384 209.543796 
L 278.006715 202.66513 
L 304.186983 197.881172 
L 330.447314 187.376282 
L 356.707645 185.358446 
L 382.967975 180.750274 
L 409.228306 171.315833 
L 435.328512 169.496217 
L 461.588843 162.13723 
L 487.849174 159.854567 
L 514.109504 151.314956 
L 540.369835 149.450333 
L 566.630165 148.39486 
L 592.890496 140.450815 
L 619.150826 138.46542 
L 645.411157 132.895666 
L 671.35124 132.183771 
L 697.61157 128.210563 
L 723.871901 127.290368 
L 750.132231 123.216053 
L 776.392562 118.594741 
L 802.652893 115.801749 
L 828.913223 113.47729 
L 855.173554 108.11838 
L 881.433884 107.511848 
L 907.694215 102.743521 
L 933.954545 98.49829 
" clip-path="url(#pef0ef0ec29)" style="fill: none; stroke: #2d1e3e; stroke-width: 1.5; stroke-linecap: square"/>
   </g>
   <g id="line2d_16"/>
   <g id="line2d_17"/>
   <g id="line2d_18"/>
   <g id="line2d_19"/>
   <g id="line2d_20">
    <path d="M 135 135.051265 
L 972 135.051265 
" clip-path="url(#pef0ef0ec29)" style="fill: none; stroke-dasharray: 5.55,2.4; stroke-dashoffset: 0; stroke: #ff0000; stroke-width: 1.5"/>
   </g>
   <g id="patch_3">
    <path d="M 135 249.458824 
L 135 86.4 
" style="fill: none; stroke: #000000; stroke-width: 0.8; stroke-linejoin: miter; stroke-linecap: square"/>
   </g>
   <g id="patch_4">
    <path d="M 972 249.458824 
L 972 86.4 
" style="fill: none; stroke: #000000; stroke-width: 0.8; stroke-linejoin: miter; stroke-linecap: square"/>
   </g>
   <g id="patch_5">
    <path d="M 135 249.458824 
L 972 249.458824 
" style="fill: none; stroke: #000000; stroke-width: 0.8; stroke-linejoin: miter; stroke-linecap: square"/>
   </g>
   <g id="patch_6">
    <path d="M 135 86.4 
L 972 86.4 
" style="fill: none; stroke: #000000; stroke-width: 0.8; stroke-linejoin: miter; stroke-linecap: square"/>
   </g>
   <g id="legend_1">
    <g id="patch_7">
     <path d="M 853.471875 244.458824 
L 965 244.458824 
Q 967 244.458824 967 242.458824 
L 967 169.790074 
Q 967 167.790074 965 167.790074 
L 853.471875 167.790074 
Q 851.471875 167.790074 851.471875 169.790074 
L 851.471875 242.458824 
Q 851.471875 244.458824 853.471875 244.458824 
z
" style="fill: #ffffff; opacity: 0.8; stroke: #cccccc; stroke-linejoin: miter"/>
    </g>
    <g id="text_11">
     <!-- proba_1 -->
     <g transform="translate(889.139844 179.388511) scale(0.1 -0.1)">
      <use xlink:href="#DejaVuSans-70"/>
      <use xlink:href="#DejaVuSans-72" x="63.476562"/>
      <use xlink:href="#DejaVuSans-6f" x="102.339844"/>
      <use xlink:href="#DejaVuSans-62" x="163.521484"/>
      <use xlink:href="#DejaVuSans-61" x="226.998047"/>
      <use xlink:href="#DejaVuSans-5f" x="288.277344"/>
      <use xlink:href="#DejaVuSans-31" x="338.277344"/>
     </g>
    </g>
    <g id="line2d_21">
     <path d="M 855.471875 190.844761 
L 865.471875 190.844761 
L 875.471875 190.844761 
" style="fill: none; stroke: #edd1cb; stroke-width: 1.5; stroke-linecap: square"/>
    </g>
    <g id="text_12">
     <!-- 0.7998046875 -->
     <g transform="translate(883.471875 194.344761) scale(0.1 -0.1)">
      <defs>
       <path id="DejaVuSans-37" d="M 525 4666 
L 3525 4666 
L 3525 4397 
L 1831 0 
L 1172 0 
L 2766 4134 
L 525 4134 
L 525 4666 
z
" transform="scale(0.015625)"/>
       <path id="DejaVuSans-39" d="M 703 97 
L 703 672 
Q 941 559 1184 500 
Q 1428 441 1663 441 
Q 2288 441 2617 861 
Q 2947 1281 2994 2138 
Q 2813 1869 2534 1725 
Q 2256 1581 1919 1581 
Q 1219 1581 811 2004 
Q 403 2428 403 3163 
Q 403 3881 828 4315 
Q 1253 4750 1959 4750 
Q 2769 4750 3195 4129 
Q 3622 3509 3622 2328 
Q 3622 1225 3098 567 
Q 2575 -91 1691 -91 
Q 1453 -91 1209 -44 
Q 966 3 703 97 
z
M 1959 2075 
Q 2384 2075 2632 2365 
Q 2881 2656 2881 3163 
Q 2881 3666 2632 3958 
Q 2384 4250 1959 4250 
Q 1534 4250 1286 3958 
Q 1038 3666 1038 3163 
Q 1038 2656 1286 2365 
Q 1534 2075 1959 2075 
z
" transform="scale(0.015625)"/>
       <path id="DejaVuSans-38" d="M 2034 2216 
Q 1584 2216 1326 1975 
Q 1069 1734 1069 1313 
Q 1069 891 1326 650 
Q 1584 409 2034 409 
Q 2484 409 2743 651 
Q 3003 894 3003 1313 
Q 3003 1734 2745 1975 
Q 2488 2216 2034 2216 
z
M 1403 2484 
Q 997 2584 770 2862 
Q 544 3141 544 3541 
Q 544 4100 942 4425 
Q 1341 4750 2034 4750 
Q 2731 4750 3128 4425 
Q 3525 4100 3525 3541 
Q 3525 3141 3298 2862 
Q 3072 2584 2669 2484 
Q 3125 2378 3379 2068 
Q 3634 1759 3634 1313 
Q 3634 634 3220 271 
Q 2806 -91 2034 -91 
Q 1263 -91 848 271 
Q 434 634 434 1313 
Q 434 1759 690 2068 
Q 947 2378 1403 2484 
z
M 1172 3481 
Q 1172 3119 1398 2916 
Q 1625 2713 2034 2713 
Q 2441 2713 2670 2916 
Q 2900 3119 2900 3481 
Q 2900 3844 2670 4047 
Q 2441 4250 2034 4250 
Q 1625 4250 1398 4047 
Q 1172 3844 1172 3481 
z
" transform="scale(0.015625)"/>
       <path id="DejaVuSans-34" d="M 2419 4116 
L 825 1625 
L 2419 1625 
L 2419 4116 
z
M 2253 4666 
L 3047 4666 
L 3047 1625 
L 3713 1625 
L 3713 1100 
L 3047 1100 
L 3047 0 
L 2419 0 
L 2419 1100 
L 313 1100 
L 313 1709 
L 2253 4666 
z
" transform="scale(0.015625)"/>
       <path id="DejaVuSans-36" d="M 2113 2584 
Q 1688 2584 1439 2293 
Q 1191 2003 1191 1497 
Q 1191 994 1439 701 
Q 1688 409 2113 409 
Q 2538 409 2786 701 
Q 3034 994 3034 1497 
Q 3034 2003 2786 2293 
Q 2538 2584 2113 2584 
z
M 3366 4563 
L 3366 3988 
Q 3128 4100 2886 4159 
Q 2644 4219 2406 4219 
Q 1781 4219 1451 3797 
Q 1122 3375 1075 2522 
Q 1259 2794 1537 2939 
Q 1816 3084 2150 3084 
Q 2853 3084 3261 2657 
Q 3669 2231 3669 1497 
Q 3669 778 3244 343 
Q 2819 -91 2113 -91 
Q 1303 -91 875 529 
Q 447 1150 447 2328 
Q 447 3434 972 4092 
Q 1497 4750 2381 4750 
Q 2619 4750 2861 4703 
Q 3103 4656 3366 4563 
z
" transform="scale(0.015625)"/>
      </defs>
      <use xlink:href="#DejaVuSans-30"/>
      <use xlink:href="#DejaVuSans-2e" x="63.623047"/>
      <use xlink:href="#DejaVuSans-37" x="95.410156"/>
      <use xlink:href="#DejaVuSans-39" x="159.033203"/>
      <use xlink:href="#DejaVuSans-39" x="222.65625"/>
      <use xlink:href="#DejaVuSans-38" x="286.279297"/>
      <use xlink:href="#DejaVuSans-30" x="349.902344"/>
      <use xlink:href="#DejaVuSans-34" x="413.525391"/>
      <use xlink:href="#DejaVuSans-36" x="477.148438"/>
      <use xlink:href="#DejaVuSans-38" x="540.771484"/>
      <use xlink:href="#DejaVuSans-37" x="604.394531"/>
      <use xlink:href="#DejaVuSans-35" x="668.017578"/>
     </g>
    </g>
    <g id="line2d_22">
     <path d="M 855.471875 205.522886 
L 865.471875 205.522886 
L 875.471875 205.522886 
" style="fill: none; stroke: #c8879e; stroke-width: 1.5; stroke-linecap: square"/>
    </g>
    <g id="text_13">
     <!-- 0.85009765625 -->
     <g transform="translate(883.471875 209.022886) scale(0.1 -0.1)">
      <use xlink:href="#DejaVuSans-30"/>
      <use xlink:href="#DejaVuSans-2e" x="63.623047"/>
      <use xlink:href="#DejaVuSans-38" x="95.410156"/>
      <use xlink:href="#DejaVuSans-35" x="159.033203"/>
      <use xlink:href="#DejaVuSans-30" x="222.65625"/>
      <use xlink:href="#DejaVuSans-30" x="286.279297"/>
      <use xlink:href="#DejaVuSans-39" x="349.902344"/>
      <use xlink:href="#DejaVuSans-37" x="413.525391"/>
      <use xlink:href="#DejaVuSans-36" x="477.148438"/>
      <use xlink:href="#DejaVuSans-35" x="540.771484"/>
      <use xlink:href="#DejaVuSans-36" x="604.394531"/>
      <use xlink:href="#DejaVuSans-32" x="668.017578"/>
      <use xlink:href="#DejaVuSans-35" x="731.640625"/>
     </g>
    </g>
    <g id="line2d_23">
     <path d="M 855.471875 220.201011 
L 865.471875 220.201011 
L 875.471875 220.201011 
" style="fill: none; stroke: #834c7d; stroke-width: 1.5; stroke-linecap: square"/>
    </g>
    <g id="text_14">
     <!-- 0.89990234375 -->
     <g transform="translate(883.471875 223.701011) scale(0.1 -0.1)">
      <use xlink:href="#DejaVuSans-30"/>
      <use xlink:href="#DejaVuSans-2e" x="63.623047"/>
      <use xlink:href="#DejaVuSans-38" x="95.410156"/>
      <use xlink:href="#DejaVuSans-39" x="159.033203"/>
      <use xlink:href="#DejaVuSans-39" x="222.65625"/>
      <use xlink:href="#DejaVuSans-39" x="286.279297"/>
      <use xlink:href="#DejaVuSans-30" x="349.902344"/>
      <use xlink:href="#DejaVuSans-32" x="413.525391"/>
      <use xlink:href="#DejaVuSans-33" x="477.148438"/>
      <use xlink:href="#DejaVuSans-34" x="540.771484"/>
      <use xlink:href="#DejaVuSans-33" x="604.394531"/>
      <use xlink:href="#DejaVuSans-37" x="668.017578"/>
      <use xlink:href="#DejaVuSans-35" x="731.640625"/>
     </g>
    </g>
    <g id="line2d_24">
     <path d="M 855.471875 234.879136 
L 865.471875 234.879136 
L 875.471875 234.879136 
" style="fill: none; stroke: #2d1e3e; stroke-width: 1.5; stroke-linecap: square"/>
    </g>
    <g id="text_15">
     <!-- 0.9501953125 -->
     <g transform="translate(883.471875 238.379136) scale(0.1 -0.1)">
      <use xlink:href="#DejaVuSans-30"/>
      <use xlink:href="#DejaVuSans-2e" x="63.623047"/>
      <use xlink:href="#DejaVuSans-39" x="95.410156"/>
      <use xlink:href="#DejaVuSans-35" x="159.033203"/>
      <use xlink:href="#DejaVuSans-30" x="222.65625"/>
      <use xlink:href="#DejaVuSans-31" x="286.279297"/>
      <use xlink:href="#DejaVuSans-39" x="349.902344"/>
      <use xlink:href="#DejaVuSans-35" x="413.525391"/>
      <use xlink:href="#DejaVuSans-33" x="477.148438"/>
      <use xlink:href="#DejaVuSans-31" x="540.771484"/>
      <use xlink:href="#DejaVuSans-32" x="604.394531"/>
      <use xlink:href="#DejaVuSans-35" x="668.017578"/>
     </g>
    </g>
   </g>
  </g>
  <g id="axes_2">
   <g id="patch_8">
    <path d="M 135 445.129412 
L 972 445.129412 
L 972 282.070588 
L 135 282.070588 
z
" style="fill: #ffffff"/>
   </g>
   <g id="PolyCollection_5">
    <path d="M 173.045455 132648.611112 
L 173.045455 132648.611112 
L 199.28577 437.717647 
L 225.526085 405.614362 
L 251.746384 396.53758 
L 278.006715 382.903152 
L 304.186983 375.658104 
L 330.447314 364.234758 
L 356.707645 361.133102 
L 382.967975 354.058462 
L 409.228306 344.253568 
L 435.328512 344.818762 
L 461.588843 340.445853 
L 487.849174 336.87522 
L 514.109504 333.049359 
L 540.369835 327.75021 
L 566.630165 324.870993 
L 592.890496 322.899436 
L 619.150826 319.148646 
L 645.411157 313.615043 
L 671.35124 314.278249 
L 697.61157 312.311199 
L 723.871901 308.576118 
L 750.132231 307.078442 
L 776.392562 304.771934 
L 802.652893 302.290117 
L 828.913223 299.898251 
L 855.173554 298.614828 
L 881.433884 297.35949 
L 907.694215 295.646925 
L 933.954545 293.285824 
L 933.954545 290.135491 
L 933.954545 290.135491 
L 907.694215 291.464507 
L 881.433884 292.135075 
L 855.173554 292.819309 
L 828.913223 295.406394 
L 802.652893 298.614828 
L 776.392562 299.639259 
L 750.132231 301.744694 
L 723.871901 303.652549 
L 697.61157 307.373387 
L 671.35124 308.561021 
L 645.411157 311.34448 
L 619.150826 313.945688 
L 592.890496 318.427043 
L 566.630165 319.879441 
L 540.369835 324.074221 
L 514.109504 328.600102 
L 487.849174 330.781607 
L 461.588843 335.41046 
L 435.328512 338.888291 
L 409.228306 339.921953 
L 382.967975 348.332104 
L 356.707645 356.774045 
L 330.447314 356.078683 
L 304.186983 365.850827 
L 278.006715 371.895007 
L 251.746384 384.017103 
L 225.526085 393.805318 
L 199.28577 437.717647 
L 173.045455 132648.611112 
z
" clip-path="url(#p5732dc24cf)" style="fill: #edd1cb; fill-opacity: 0.2; stroke: #edd1cb; stroke-opacity: 0.2"/>
   </g>
   <g id="PolyCollection_6">
    <path d="M 173.045455 132648.611112 
L 173.045455 132648.611112 
L 199.28577 437.717647 
L 225.526085 412.576428 
L 251.746384 395.155184 
L 278.006715 384.017103 
L 304.186983 377.63646 
L 330.447314 363.443481 
L 356.707645 357.477939 
L 382.967975 354.712746 
L 409.228306 345.389579 
L 435.328512 344.818762 
L 461.588843 339.402794 
L 487.849174 335.41046 
L 514.109504 329.899025 
L 540.369835 326.498525 
L 566.630165 325.273567 
L 592.890496 323.288364 
L 619.150826 319.879441 
L 645.411157 314.278249 
L 671.35124 314.612749 
L 697.61157 312.634393 
L 723.871901 309.481585 
L 750.132231 307.078442 
L 776.392562 305.055227 
L 802.652893 302.013391 
L 828.913223 299.898251 
L 855.173554 295.888469 
L 881.433884 296.864946 
L 907.694215 294.218636 
L 933.954545 292.596036 
L 933.954545 290.135491 
L 933.954545 290.135491 
L 907.694215 291.458906 
L 881.433884 292.367938 
L 855.173554 291.235275 
L 828.913223 297.111685 
L 802.652893 296.37463 
L 776.392562 301.211047 
L 750.132231 302.827116 
L 723.871901 305.618874 
L 697.61157 307.373387 
L 671.35124 307.078442 
L 645.411157 309.481585 
L 619.150826 315.970603 
L 592.890496 319.51288 
L 566.630165 320.24836 
L 540.369835 322.899436 
L 514.109504 322.129402 
L 487.849174 327.32994 
L 461.588843 334.930401 
L 435.328512 335.41046 
L 409.228306 340.974581 
L 382.967975 351.433759 
L 356.707645 350.784109 
L 330.447314 357.477939 
L 304.186983 365.850827 
L 278.006715 377.63646 
L 251.746384 387.494935 
L 225.526085 403.998293 
L 199.28577 437.717647 
L 173.045455 132648.611112 
z
" clip-path="url(#p5732dc24cf)" style="fill: #c8879e; fill-opacity: 0.2; stroke: #c8879e; stroke-opacity: 0.2"/>
   </g>
   <g id="PolyCollection_7">
    <path d="M 173.045455 132648.611112 
L 173.045455 132648.611112 
L 199.28577 437.717647 
L 225.526085 405.614362 
L 251.746384 397.954112 
L 278.006715 382.903152 
L 304.186983 374.693936 
L 330.447314 358.91218 
L 356.707645 358.91218 
L 382.967975 350.799867 
L 409.228306 347.7314 
L 435.328512 345.389579 
L 461.588843 339.921953 
L 487.849174 333.049359 
L 514.109504 333.513869 
L 540.369835 326.498525 
L 566.630165 321.757726 
L 592.890496 322.899436 
L 619.150826 318.427043 
L 645.411157 318.069617 
L 671.35124 314.612749 
L 697.61157 310.729831 
L 723.871901 310.098437 
L 750.132231 307.373387 
L 776.392562 303.652549 
L 802.652893 302.283352 
L 828.913223 299.639259 
L 855.173554 298.361553 
L 881.433884 296.131035 
L 907.694215 295.406394 
L 933.954545 294.454228 
L 933.954545 291.464507 
L 933.954545 291.464507 
L 907.694215 293.054972 
L 881.433884 293.054972 
L 855.173554 295.406394 
L 828.913223 296.619264 
L 802.652893 299.639259 
L 776.392562 300.158418 
L 750.132231 304.490034 
L 723.871901 305.339926 
L 697.61157 307.669856 
L 671.35124 310.409368 
L 645.411157 312.959417 
L 619.150826 313.286293 
L 592.890496 319.148646 
L 566.630165 314.949211 
L 540.369835 321.369568 
L 514.109504 326.087292 
L 487.849174 326.912726 
L 461.588843 334.930401 
L 435.328512 340.974581 
L 409.228306 341.508229 
L 382.967975 342.046887 
L 356.707645 350.172903 
L 330.447314 352.074734 
L 304.186983 367.513745 
L 278.006715 376.638754 
L 251.746384 389.936437 
L 225.526085 388.702698 
L 199.28577 437.717647 
L 173.045455 132648.611112 
z
" clip-path="url(#p5732dc24cf)" style="fill: #834c7d; fill-opacity: 0.2; stroke: #834c7d; stroke-opacity: 0.2"/>
   </g>
   <g id="PolyCollection_8">
    <path d="M 173.045455 132648.611112 
L 173.045455 132648.611112 
L 199.28577 437.717647 
L 225.526085 407.27728 
L 251.746384 393.805318 
L 278.006715 382.903152 
L 304.186983 375.658104 
L 330.447314 366.676261 
L 356.707645 360.383201 
L 382.967975 356.078683 
L 409.228306 344.253568 
L 435.328512 343.707815 
L 461.588843 338.378362 
L 487.849174 336.382799 
L 514.109504 329.462775 
L 540.369835 329.029817 
L 566.630165 325.283668 
L 592.890496 319.51288 
L 619.150826 318.069617 
L 645.411157 315.970603 
L 671.35124 313.945688 
L 697.61157 311.036332 
L 723.871901 310.098437 
L 750.132231 306.785006 
L 776.392562 304.490034 
L 802.652893 303.100943 
L 828.913223 302.827116 
L 855.173554 298.621174 
L 881.433884 296.864946 
L 907.694215 292.830782 
L 933.954545 294.690792 
L 933.954545 289.482353 
L 933.954545 289.482353 
L 907.694215 289.69924 
L 881.433884 292.825045 
L 855.173554 294.684866 
L 828.913223 298.614828 
L 802.652893 298.614828 
L 776.392562 300.946073 
L 750.132231 304.490034 
L 723.871901 303.376083 
L 697.61157 307.373387 
L 671.35124 309.481585 
L 645.411157 310.409368 
L 619.150826 312.634393 
L 592.890496 313.945688 
L 566.630165 320.619666 
L 540.369835 321.369568 
L 514.109504 324.074221 
L 487.849174 330.781607 
L 461.588843 335.41046 
L 435.328512 337.371904 
L 409.228306 337.872926 
L 382.967975 345.966133 
L 356.707645 354.041783 
L 330.447314 354.041783 
L 304.186983 368.363637 
L 278.006715 370.991577 
L 251.746384 386.312075 
L 225.526085 395.155184 
L 199.28577 437.717647 
L 173.045455 132648.611112 
z
" clip-path="url(#p5732dc24cf)" style="fill: #2d1e3e; fill-opacity: 0.2; stroke: #2d1e3e; stroke-opacity: 0.2"/>
   </g>
   <g id="matplotlib.axis_3">
    <g id="xtick_8">
     <g id="line2d_25">
      <g>
       <use xlink:href="#m2af0497015" x="173.045455" y="445.129412" style="stroke: #000000; stroke-width: 0.8"/>
      </g>
     </g>
     <g id="text_16">
      <!-- 0.00 -->
      <g transform="translate(161.912642 459.727849) scale(0.1 -0.1)">
       <use xlink:href="#DejaVuSans-30"/>
       <use xlink:href="#DejaVuSans-2e" x="63.623047"/>
       <use xlink:href="#DejaVuSans-30" x="95.410156"/>
       <use xlink:href="#DejaVuSans-30" x="159.033203"/>
      </g>
     </g>
    </g>
    <g id="xtick_9">
     <g id="line2d_26">
      <g>
       <use xlink:href="#m2af0497015" x="304.219008" y="445.129412" style="stroke: #000000; stroke-width: 0.8"/>
      </g>
     </g>
     <g id="text_17">
      <!-- 0.05 -->
      <g transform="translate(293.086196 459.727849) scale(0.1 -0.1)">
       <use xlink:href="#DejaVuSans-30"/>
       <use xlink:href="#DejaVuSans-2e" x="63.623047"/>
       <use xlink:href="#DejaVuSans-30" x="95.410156"/>
       <use xlink:href="#DejaVuSans-35" x="159.033203"/>
      </g>
     </g>
    </g>
    <g id="xtick_10">
     <g id="line2d_27">
      <g>
       <use xlink:href="#m2af0497015" x="435.392562" y="445.129412" style="stroke: #000000; stroke-width: 0.8"/>
      </g>
     </g>
     <g id="text_18">
      <!-- 0.10 -->
      <g transform="translate(424.259749 459.727849) scale(0.1 -0.1)">
       <use xlink:href="#DejaVuSans-30"/>
       <use xlink:href="#DejaVuSans-2e" x="63.623047"/>
       <use xlink:href="#DejaVuSans-31" x="95.410156"/>
       <use xlink:href="#DejaVuSans-30" x="159.033203"/>
      </g>
     </g>
    </g>
    <g id="xtick_11">
     <g id="line2d_28">
      <g>
       <use xlink:href="#m2af0497015" x="566.566116" y="445.129412" style="stroke: #000000; stroke-width: 0.8"/>
      </g>
     </g>
     <g id="text_19">
      <!-- 0.15 -->
      <g transform="translate(555.433303 459.727849) scale(0.1 -0.1)">
       <use xlink:href="#DejaVuSans-30"/>
       <use xlink:href="#DejaVuSans-2e" x="63.623047"/>
       <use xlink:href="#DejaVuSans-31" x="95.410156"/>
       <use xlink:href="#DejaVuSans-35" x="159.033203"/>
      </g>
     </g>
    </g>
    <g id="xtick_12">
     <g id="line2d_29">
      <g>
       <use xlink:href="#m2af0497015" x="697.739669" y="445.129412" style="stroke: #000000; stroke-width: 0.8"/>
      </g>
     </g>
     <g id="text_20">
      <!-- 0.20 -->
      <g transform="translate(686.606857 459.727849) scale(0.1 -0.1)">
       <use xlink:href="#DejaVuSans-30"/>
       <use xlink:href="#DejaVuSans-2e" x="63.623047"/>
       <use xlink:href="#DejaVuSans-32" x="95.410156"/>
       <use xlink:href="#DejaVuSans-30" x="159.033203"/>
      </g>
     </g>
    </g>
    <g id="xtick_13">
     <g id="line2d_30">
      <g>
       <use xlink:href="#m2af0497015" x="828.913223" y="445.129412" style="stroke: #000000; stroke-width: 0.8"/>
      </g>
     </g>
     <g id="text_21">
      <!-- 0.25 -->
      <g transform="translate(817.780411 459.727849) scale(0.1 -0.1)">
       <use xlink:href="#DejaVuSans-30"/>
       <use xlink:href="#DejaVuSans-2e" x="63.623047"/>
       <use xlink:href="#DejaVuSans-32" x="95.410156"/>
       <use xlink:href="#DejaVuSans-35" x="159.033203"/>
      </g>
     </g>
    </g>
    <g id="xtick_14">
     <g id="line2d_31">
      <g>
       <use xlink:href="#m2af0497015" x="960.086777" y="445.129412" style="stroke: #000000; stroke-width: 0.8"/>
      </g>
     </g>
     <g id="text_22">
      <!-- 0.30 -->
      <g transform="translate(948.953964 459.727849) scale(0.1 -0.1)">
       <use xlink:href="#DejaVuSans-30"/>
       <use xlink:href="#DejaVuSans-2e" x="63.623047"/>
       <use xlink:href="#DejaVuSans-33" x="95.410156"/>
       <use xlink:href="#DejaVuSans-30" x="159.033203"/>
      </g>
     </g>
    </g>
    <g id="text_23">
     <!-- proba_3 -->
     <g transform="translate(533.403906 473.405974) scale(0.1 -0.1)">
      <use xlink:href="#DejaVuSans-70"/>
      <use xlink:href="#DejaVuSans-72" x="63.476562"/>
      <use xlink:href="#DejaVuSans-6f" x="102.339844"/>
      <use xlink:href="#DejaVuSans-62" x="163.521484"/>
      <use xlink:href="#DejaVuSans-61" x="226.998047"/>
      <use xlink:href="#DejaVuSans-5f" x="288.277344"/>
      <use xlink:href="#DejaVuSans-33" x="338.277344"/>
     </g>
    </g>
   </g>
   <g id="matplotlib.axis_4">
    <g id="ytick_5">
     <g id="line2d_32">
      <g>
       <use xlink:href="#mcb02c822e3" x="135" y="424.916648" style="stroke: #000000; stroke-width: 0.8"/>
      </g>
     </g>
     <g id="text_24">
      <!-- $\mathdefault{10^{1}}$ -->
      <g transform="translate(110.4 428.715867) scale(0.1 -0.1)">
       <use xlink:href="#DejaVuSans-31" transform="translate(0 0.684375)"/>
       <use xlink:href="#DejaVuSans-30" transform="translate(63.623047 0.684375)"/>
       <use xlink:href="#DejaVuSans-31" transform="translate(128.203125 38.965625) scale(0.7)"/>
      </g>
     </g>
    </g>
    <g id="ytick_6">
     <g id="line2d_33">
      <g>
       <use xlink:href="#mcb02c822e3" x="135" y="292.825045" style="stroke: #000000; stroke-width: 0.8"/>
      </g>
     </g>
     <g id="text_25">
      <!-- $\mathdefault{10^{2}}$ -->
      <g transform="translate(110.4 296.624264) scale(0.1 -0.1)">
       <use xlink:href="#DejaVuSans-31" transform="translate(0 0.765625)"/>
       <use xlink:href="#DejaVuSans-30" transform="translate(63.623047 0.765625)"/>
       <use xlink:href="#DejaVuSans-32" transform="translate(128.203125 39.046875) scale(0.7)"/>
      </g>
     </g>
    </g>
    <g id="ytick_7">
     <g id="line2d_34">
      <g>
       <use xlink:href="#mac87223c2f" x="135" y="437.717647" style="stroke: #000000; stroke-width: 0.6"/>
      </g>
     </g>
    </g>
    <g id="ytick_8">
     <g id="line2d_35">
      <g>
       <use xlink:href="#mac87223c2f" x="135" y="430.960828" style="stroke: #000000; stroke-width: 0.6"/>
      </g>
     </g>
    </g>
    <g id="ytick_9">
     <g id="line2d_36">
      <g>
       <use xlink:href="#mac87223c2f" x="135" y="385.153113" style="stroke: #000000; stroke-width: 0.6"/>
      </g>
     </g>
    </g>
    <g id="ytick_10">
     <g id="line2d_37">
      <g>
       <use xlink:href="#mac87223c2f" x="135" y="361.892937" style="stroke: #000000; stroke-width: 0.6"/>
      </g>
     </g>
    </g>
    <g id="ytick_11">
     <g id="line2d_38">
      <g>
       <use xlink:href="#mac87223c2f" x="135" y="345.389579" style="stroke: #000000; stroke-width: 0.6"/>
      </g>
     </g>
    </g>
    <g id="ytick_12">
     <g id="line2d_39">
      <g>
       <use xlink:href="#mac87223c2f" x="135" y="332.58858" style="stroke: #000000; stroke-width: 0.6"/>
      </g>
     </g>
    </g>
    <g id="ytick_13">
     <g id="line2d_40">
      <g>
       <use xlink:href="#mac87223c2f" x="135" y="322.129402" style="stroke: #000000; stroke-width: 0.6"/>
      </g>
     </g>
    </g>
    <g id="ytick_14">
     <g id="line2d_41">
      <g>
       <use xlink:href="#mac87223c2f" x="135" y="313.286293" style="stroke: #000000; stroke-width: 0.6"/>
      </g>
     </g>
    </g>
    <g id="ytick_15">
     <g id="line2d_42">
      <g>
       <use xlink:href="#mac87223c2f" x="135" y="305.626044" style="stroke: #000000; stroke-width: 0.6"/>
      </g>
     </g>
    </g>
    <g id="ytick_16">
     <g id="line2d_43">
      <g>
       <use xlink:href="#mac87223c2f" x="135" y="298.869226" style="stroke: #000000; stroke-width: 0.6"/>
      </g>
     </g>
    </g>
    <g id="text_26">
     <!-- R_0 size_sqrt -->
     <g transform="translate(104.042188 396.333594) rotate(-90) scale(0.1 -0.1)">
      <use xlink:href="#DejaVuSans-52"/>
      <use xlink:href="#DejaVuSans-5f" x="69.482422"/>
      <use xlink:href="#DejaVuSans-30" x="119.482422"/>
      <use xlink:href="#DejaVuSans-20" x="183.105469"/>
      <use xlink:href="#DejaVuSans-73" x="214.892578"/>
      <use xlink:href="#DejaVuSans-69" x="266.992188"/>
      <use xlink:href="#DejaVuSans-7a" x="294.775391"/>
      <use xlink:href="#DejaVuSans-65" x="347.265625"/>
      <use xlink:href="#DejaVuSans-5f" x="408.789062"/>
      <use xlink:href="#DejaVuSans-73" x="458.789062"/>
      <use xlink:href="#DejaVuSans-71" x="510.888672"/>
      <use xlink:href="#DejaVuSans-72" x="574.365234"/>
      <use xlink:href="#DejaVuSans-74" x="615.478516"/>
     </g>
    </g>
   </g>
   <g id="line2d_44">
    <path d="M 199.229546 721 
L 199.28577 437.717647 
L 225.526085 399.40651 
L 251.746384 389.936437 
L 278.006715 377.63646 
L 304.186983 370.991577 
L 330.447314 359.642976 
L 356.707645 358.91218 
L 382.967975 351.433759 
L 409.228306 342.046887 
L 435.328512 342.046887 
L 461.588843 337.872926 
L 487.849174 333.98217 
L 514.109504 330.781607 
L 540.369835 326.087292 
L 566.630165 322.513127 
L 592.890496 320.619666 
L 619.150826 316.661776 
L 645.411157 312.311199 
L 671.35124 311.352403 
L 697.61157 309.481585 
L 723.871901 305.913597 
L 750.132231 304.490034 
L 776.392562 302.283352 
L 802.652893 300.41977 
L 828.913223 297.608369 
L 855.173554 295.888469 
L 881.433884 294.690792 
L 907.694215 293.517609 
L 933.954545 291.689035 
" clip-path="url(#p5732dc24cf)" style="fill: none; stroke: #edd1cb; stroke-width: 1.5; stroke-linecap: square"/>
   </g>
   <g id="line2d_45">
    <path d="M 199.229546 721 
L 199.28577 437.717647 
L 225.526085 408.989844 
L 251.746384 391.197294 
L 278.006715 380.738116 
L 304.186983 371.895007 
L 330.447314 360.383201 
L 356.707645 354.041783 
L 382.967975 352.722952 
L 409.228306 343.139618 
L 435.328512 339.921953 
L 461.588843 337.371904 
L 487.849174 331.228042 
L 514.109504 326.087292 
L 540.369835 324.870993 
L 566.630165 322.899436 
L 592.890496 321.369568 
L 619.150826 318.069617 
L 645.411157 311.670224 
L 671.35124 310.721994 
L 697.61157 309.789182 
L 723.871901 307.373387 
L 750.132231 304.771934 
L 776.392562 303.100943 
L 802.652893 299.381431 
L 828.913223 298.614828 
L 855.173554 293.517609 
L 881.433884 294.454228 
L 907.694215 292.825045 
L 933.954545 291.464507 
" clip-path="url(#p5732dc24cf)" style="fill: none; stroke: #c8879e; stroke-width: 1.5; stroke-linecap: square"/>
   </g>
   <g id="line2d_46">
    <path d="M 199.229546 721 
L 199.28577 437.717647 
L 225.526085 396.53758 
L 251.746384 393.805318 
L 278.006715 379.685487 
L 304.186983 370.991577 
L 330.447314 355.391649 
L 356.707645 354.712746 
L 382.967975 346.548541 
L 409.228306 344.818762 
L 435.328512 343.139618 
L 461.588843 337.371904 
L 487.849174 329.899025 
L 514.109504 329.899025 
L 540.369835 323.679947 
L 566.630165 318.427043 
L 592.890496 320.993392 
L 619.150826 315.970603 
L 645.411157 315.287659 
L 671.35124 312.634393 
L 697.61157 309.175629 
L 723.871901 307.669856 
L 750.132231 305.913597 
L 776.392562 301.744694 
L 802.652893 300.946073 
L 828.913223 298.361553 
L 855.173554 296.864946 
L 881.433884 294.690792 
L 907.694215 294.218636 
L 933.954545 293.054972 
" clip-path="url(#p5732dc24cf)" style="fill: none; stroke: #834c7d; stroke-width: 1.5; stroke-linecap: square"/>
   </g>
   <g id="line2d_47">
    <path d="M 199.229546 721 
L 199.28577 437.717647 
L 225.526085 400.896637 
L 251.746384 389.936437 
L 278.006715 376.638754 
L 304.186983 371.895007 
L 330.447314 360.383201 
L 356.707645 357.477939 
L 382.967975 350.799867 
L 409.228306 340.974581 
L 435.328512 340.974581 
L 461.588843 336.87522 
L 487.849174 333.513869 
L 514.109504 326.912726 
L 540.369835 325.678987 
L 566.630165 323.288364 
L 592.890496 316.661776 
L 619.150826 314.949211 
L 645.411157 313.286293 
L 671.35124 311.670224 
L 697.61157 309.175629 
L 723.871901 306.785006 
L 750.132231 305.626044 
L 776.392562 302.55459 
L 802.652893 300.682318 
L 828.913223 300.946073 
L 855.173554 296.619264 
L 881.433884 294.928335 
L 907.694215 291.240856 
L 933.954545 292.140743 
" clip-path="url(#p5732dc24cf)" style="fill: none; stroke: #2d1e3e; stroke-width: 1.5; stroke-linecap: square"/>
   </g>
   <g id="line2d_48"/>
   <g id="line2d_49"/>
   <g id="line2d_50"/>
   <g id="line2d_51"/>
   <g id="line2d_52">
    <path d="M 135 318.427043 
L 972 318.427043 
" clip-path="url(#p5732dc24cf)" style="fill: none; stroke-dasharray: 5.55,2.4; stroke-dashoffset: 0; stroke: #ff0000; stroke-width: 1.5"/>
   </g>
   <g id="line2d_53">
    <path d="M 135 358.190578 
L 972 358.190578 
" clip-path="url(#p5732dc24cf)" style="fill: none; stroke-dasharray: 5.55,2.4; stroke-dashoffset: 0; stroke: #ff0000; stroke-width: 1.5"/>
   </g>
   <g id="patch_9">
    <path d="M 135 445.129412 
L 135 282.070588 
" style="fill: none; stroke: #000000; stroke-width: 0.8; stroke-linejoin: miter; stroke-linecap: square"/>
   </g>
   <g id="patch_10">
    <path d="M 972 445.129412 
L 972 282.070588 
" style="fill: none; stroke: #000000; stroke-width: 0.8; stroke-linejoin: miter; stroke-linecap: square"/>
   </g>
   <g id="patch_11">
    <path d="M 135 445.129412 
L 972 445.129412 
" style="fill: none; stroke: #000000; stroke-width: 0.8; stroke-linejoin: miter; stroke-linecap: square"/>
   </g>
   <g id="patch_12">
    <path d="M 135 282.070588 
L 972 282.070588 
" style="fill: none; stroke: #000000; stroke-width: 0.8; stroke-linejoin: miter; stroke-linecap: square"/>
   </g>
   <g id="legend_2">
    <g id="patch_13">
     <path d="M 853.471875 440.129412 
L 965 440.129412 
Q 967 440.129412 967 438.129412 
L 967 365.460662 
Q 967 363.460662 965 363.460662 
L 853.471875 363.460662 
Q 851.471875 363.460662 851.471875 365.460662 
L 851.471875 438.129412 
Q 851.471875 440.129412 853.471875 440.129412 
z
" style="fill: #ffffff; opacity: 0.8; stroke: #cccccc; stroke-linejoin: miter"/>
    </g>
    <g id="text_27">
     <!-- proba_1 -->
     <g transform="translate(889.139844 375.059099) scale(0.1 -0.1)">
      <use xlink:href="#DejaVuSans-70"/>
      <use xlink:href="#DejaVuSans-72" x="63.476562"/>
      <use xlink:href="#DejaVuSans-6f" x="102.339844"/>
      <use xlink:href="#DejaVuSans-62" x="163.521484"/>
      <use xlink:href="#DejaVuSans-61" x="226.998047"/>
      <use xlink:href="#DejaVuSans-5f" x="288.277344"/>
      <use xlink:href="#DejaVuSans-31" x="338.277344"/>
     </g>
    </g>
    <g id="line2d_54">
     <path d="M 855.471875 386.515349 
L 865.471875 386.515349 
L 875.471875 386.515349 
" style="fill: none; stroke: #edd1cb; stroke-width: 1.5; stroke-linecap: square"/>
    </g>
    <g id="text_28">
     <!-- 0.7998046875 -->
     <g transform="translate(883.471875 390.015349) scale(0.1 -0.1)">
      <use xlink:href="#DejaVuSans-30"/>
      <use xlink:href="#DejaVuSans-2e" x="63.623047"/>
      <use xlink:href="#DejaVuSans-37" x="95.410156"/>
      <use xlink:href="#DejaVuSans-39" x="159.033203"/>
      <use xlink:href="#DejaVuSans-39" x="222.65625"/>
      <use xlink:href="#DejaVuSans-38" x="286.279297"/>
      <use xlink:href="#DejaVuSans-30" x="349.902344"/>
      <use xlink:href="#DejaVuSans-34" x="413.525391"/>
      <use xlink:href="#DejaVuSans-36" x="477.148438"/>
      <use xlink:href="#DejaVuSans-38" x="540.771484"/>
      <use xlink:href="#DejaVuSans-37" x="604.394531"/>
      <use xlink:href="#DejaVuSans-35" x="668.017578"/>
     </g>
    </g>
    <g id="line2d_55">
     <path d="M 855.471875 401.193474 
L 865.471875 401.193474 
L 875.471875 401.193474 
" style="fill: none; stroke: #c8879e; stroke-width: 1.5; stroke-linecap: square"/>
    </g>
    <g id="text_29">
     <!-- 0.85009765625 -->
     <g transform="translate(883.471875 404.693474) scale(0.1 -0.1)">
      <use xlink:href="#DejaVuSans-30"/>
      <use xlink:href="#DejaVuSans-2e" x="63.623047"/>
      <use xlink:href="#DejaVuSans-38" x="95.410156"/>
      <use xlink:href="#DejaVuSans-35" x="159.033203"/>
      <use xlink:href="#DejaVuSans-30" x="222.65625"/>
      <use xlink:href="#DejaVuSans-30" x="286.279297"/>
      <use xlink:href="#DejaVuSans-39" x="349.902344"/>
      <use xlink:href="#DejaVuSans-37" x="413.525391"/>
      <use xlink:href="#DejaVuSans-36" x="477.148438"/>
      <use xlink:href="#DejaVuSans-35" x="540.771484"/>
      <use xlink:href="#DejaVuSans-36" x="604.394531"/>
      <use xlink:href="#DejaVuSans-32" x="668.017578"/>
      <use xlink:href="#DejaVuSans-35" x="731.640625"/>
     </g>
    </g>
    <g id="line2d_56">
     <path d="M 855.471875 415.871599 
L 865.471875 415.871599 
L 875.471875 415.871599 
" style="fill: none; stroke: #834c7d; stroke-width: 1.5; stroke-linecap: square"/>
    </g>
    <g id="text_30">
     <!-- 0.89990234375 -->
     <g transform="translate(883.471875 419.371599) scale(0.1 -0.1)">
      <use xlink:href="#DejaVuSans-30"/>
      <use xlink:href="#DejaVuSans-2e" x="63.623047"/>
      <use xlink:href="#DejaVuSans-38" x="95.410156"/>
      <use xlink:href="#DejaVuSans-39" x="159.033203"/>
      <use xlink:href="#DejaVuSans-39" x="222.65625"/>
      <use xlink:href="#DejaVuSans-39" x="286.279297"/>
      <use xlink:href="#DejaVuSans-30" x="349.902344"/>
      <use xlink:href="#DejaVuSans-32" x="413.525391"/>
      <use xlink:href="#DejaVuSans-33" x="477.148438"/>
      <use xlink:href="#DejaVuSans-34" x="540.771484"/>
      <use xlink:href="#DejaVuSans-33" x="604.394531"/>
      <use xlink:href="#DejaVuSans-37" x="668.017578"/>
      <use xlink:href="#DejaVuSans-35" x="731.640625"/>
     </g>
    </g>
    <g id="line2d_57">
     <path d="M 855.471875 430.549724 
L 865.471875 430.549724 
L 875.471875 430.549724 
" style="fill: none; stroke: #2d1e3e; stroke-width: 1.5; stroke-linecap: square"/>
    </g>
    <g id="text_31">
     <!-- 0.9501953125 -->
     <g transform="translate(883.471875 434.049724) scale(0.1 -0.1)">
      <use xlink:href="#DejaVuSans-30"/>
      <use xlink:href="#DejaVuSans-2e" x="63.623047"/>
      <use xlink:href="#DejaVuSans-39" x="95.410156"/>
      <use xlink:href="#DejaVuSans-35" x="159.033203"/>
      <use xlink:href="#DejaVuSans-30" x="222.65625"/>
      <use xlink:href="#DejaVuSans-31" x="286.279297"/>
      <use xlink:href="#DejaVuSans-39" x="349.902344"/>
      <use xlink:href="#DejaVuSans-35" x="413.525391"/>
      <use xlink:href="#DejaVuSans-33" x="477.148438"/>
      <use xlink:href="#DejaVuSans-31" x="540.771484"/>
      <use xlink:href="#DejaVuSans-32" x="604.394531"/>
      <use xlink:href="#DejaVuSans-35" x="668.017578"/>
     </g>
    </g>
   </g>
  </g>
  <g id="axes_3">
   <g id="patch_14">
    <path d="M 135 640.8 
L 972 640.8 
L 972 477.741176 
L 135 477.741176 
z
" style="fill: #ffffff"/>
   </g>
   <g id="PolyCollection_9">
    <defs>
     <path id="m858a3f844a" d="M 173.045455 -92.113519 
L 173.045455 -86.611765 
L 199.28577 -90.898296 
L 225.526085 -95.133402 
L 251.746384 -100.208649 
L 278.006715 -103.454174 
L 304.186983 -107.832346 
L 330.447314 -113.871976 
L 356.707645 -118.405227 
L 382.967975 -122.595969 
L 409.228306 -123.991137 
L 435.328512 -128.123319 
L 461.588843 -131.39459 
L 487.849174 -134.097682 
L 514.109504 -142.084949 
L 540.369835 -147.31113 
L 566.630165 -144.968918 
L 592.890496 -149.637905 
L 619.150826 -155.255497 
L 645.411157 -161.047153 
L 671.35124 -159.296419 
L 697.61157 -167.474904 
L 723.871901 -166.984595 
L 750.132231 -169.672904 
L 776.392562 -178.330556 
L 802.652893 -180.225981 
L 828.913223 -180.225981 
L 855.173554 -182.34624 
L 881.433884 -184.453841 
L 907.694215 -189.547643 
L 933.954545 -192.075812 
L 933.954545 -200.653498 
L 933.954545 -200.653498 
L 907.694215 -198.416341 
L 881.433884 -192.532503 
L 855.173554 -195.712904 
L 828.913223 -190.931493 
L 802.652893 -189.553396 
L 776.392562 -183.986572 
L 750.132231 -176.185967 
L 723.871901 -175.946873 
L 697.61157 -176.902278 
L 671.35124 -169.916283 
L 645.411157 -167.229834 
L 619.150826 -163.533234 
L 592.890496 -157.788849 
L 566.630165 -155.008138 
L 540.369835 -151.693352 
L 514.109504 -146.272065 
L 487.849174 -143.660943 
L 461.588843 -140.766224 
L 435.328512 -134.366857 
L 409.228306 -131.936867 
L 382.967975 -129.762744 
L 356.707645 -123.158864 
L 330.447314 -119.810013 
L 304.186983 -116.145878 
L 278.006715 -109.568524 
L 251.746384 -107.832346 
L 225.526085 -100.800968 
L 199.28577 -97.530845 
L 173.045455 -92.113519 
z
" style="stroke: #edd1cb; stroke-opacity: 0.2"/>
    </defs>
    <g clip-path="url(#pb2c584d1b9)">
     <use xlink:href="#m858a3f844a" x="0" y="720" style="fill: #edd1cb; fill-opacity: 0.2; stroke: #edd1cb; stroke-opacity: 0.2"/>
    </g>
   </g>
   <g id="PolyCollection_10">
    <defs>
     <path id="m036207d692" d="M 173.045455 -106.087587 
L 173.045455 -103.160356 
L 199.28577 -107.251717 
L 225.526085 -111.583331 
L 251.746384 -113.586705 
L 278.006715 -122.046106 
L 304.186983 -122.03914 
L 330.447314 -128.397086 
L 356.707645 -130.307531 
L 382.967975 -135.441506 
L 409.228306 -142.348103 
L 435.328512 -144.70771 
L 461.588843 -150.410101 
L 487.849174 -148.081956 
L 514.109504 -156.021842 
L 540.369835 -157.536961 
L 566.630165 -162.292382 
L 592.890496 -164.028356 
L 619.150826 -169.185641 
L 645.411157 -173.306097 
L 671.35124 -177.134767 
L 697.61157 -177.849158 
L 723.871901 -183.986572 
L 750.132231 -188.169898 
L 776.392562 -187.47611 
L 802.652893 -190.702183 
L 828.913223 -195.260312 
L 855.173554 -199.536692 
L 881.433884 -201.983464 
L 907.694215 -205.30588 
L 933.954545 -204.865428 
L 933.954545 -209.897747 
L 933.954545 -209.897747 
L 907.694215 -211.631438 
L 881.433884 -209.027698 
L 855.173554 -208.1555 
L 828.913223 -204.203719 
L 802.652893 -197.74242 
L 776.392562 -192.766328 
L 750.132231 -196.616352 
L 723.871901 -190.019105 
L 697.61157 -185.386529 
L 671.35124 -186.084431 
L 645.411157 -178.09291 
L 619.150826 -178.568041 
L 592.890496 -168.941757 
L 566.630165 -166.253999 
L 540.369835 -165.263132 
L 514.109504 -163.780882 
L 487.849174 -156.780214 
L 461.588843 -155.515354 
L 435.328512 -148.864016 
L 409.228306 -149.122167 
L 382.967975 -144.184715 
L 356.707645 -135.441506 
L 330.447314 -134.366857 
L 304.186983 -128.123319 
L 278.006715 -129.762744 
L 251.746384 -121.488409 
L 225.526085 -118.686632 
L 199.28577 -113.871976 
L 173.045455 -106.087587 
z
" style="stroke: #c8879e; stroke-opacity: 0.2"/>
    </defs>
    <g clip-path="url(#pb2c584d1b9)">
     <use xlink:href="#m036207d692" x="0" y="720" style="fill: #c8879e; fill-opacity: 0.2; stroke: #c8879e; stroke-opacity: 0.2"/>
    </g>
   </g>
   <g id="PolyCollection_11">
    <defs>
     <path id="mcc69c6b7dd" d="M 173.045455 -118.405227 
L 173.045455 -114.441826 
L 199.28577 -118.967812 
L 225.526085 -125.09779 
L 251.746384 -127.575148 
L 278.006715 -131.936867 
L 304.186983 -135.441506 
L 330.447314 -141.294305 
L 356.707645 -142.084949 
L 382.967975 -148.605675 
L 409.228306 -153.482104 
L 435.328512 -154.754257 
L 461.588843 -159.797515 
L 487.849174 -161.794817 
L 514.109504 -166.00193 
L 540.369835 -168.453483 
L 566.630165 -169.916283 
L 592.890496 -173.787709 
L 619.150826 -180.225981 
L 645.411157 -184.687244 
L 671.35124 -183.518683 
L 697.61157 -193.444117 
L 723.871901 -192.760627 
L 750.132231 -194.347706 
L 776.392562 -197.292424 
L 802.652893 -203.319505 
L 828.913223 -202.871026 
L 855.173554 -208.809851 
L 881.433884 -213.356656 
L 907.694215 -212.710687 
L 933.954545 -215.715149 
L 933.954545 -220.385383 
L 933.954545 -220.385383 
L 907.694215 -218.057989 
L 881.433884 -219.540832 
L 855.173554 -214.859337 
L 828.913223 -208.1555 
L 802.652893 -210.331969 
L 776.392562 -202.433071 
L 750.132231 -199.536692 
L 723.871901 -200.207199 
L 697.61157 -201.544406 
L 671.35124 -190.472725 
L 645.411157 -190.931493 
L 619.150826 -187.012827 
L 592.890496 -181.876171 
L 566.630165 -176.902278 
L 540.369835 -177.379013 
L 514.109504 -173.065044 
L 487.849174 -166.493605 
L 461.588843 -164.76974 
L 435.328512 -160.054052 
L 409.228306 -160.047797 
L 382.967975 -151.949444 
L 356.707645 -147.31113 
L 330.447314 -145.490754 
L 304.186983 -138.113904 
L 278.006715 -137.581041 
L 251.746384 -132.748723 
L 225.526085 -129.762744 
L 199.28577 -122.046106 
L 173.045455 -118.405227 
z
" style="stroke: #834c7d; stroke-opacity: 0.2"/>
    </defs>
    <g clip-path="url(#pb2c584d1b9)">
     <use xlink:href="#mcc69c6b7dd" x="0" y="720" style="fill: #834c7d; fill-opacity: 0.2; stroke: #834c7d; stroke-opacity: 0.2"/>
    </g>
   </g>
   <g id="PolyCollection_12">
    <defs>
     <path id="m2d7667ca7d" d="M 173.045455 -125.649818 
L 173.045455 -124.268125 
L 199.28577 -127.84934 
L 225.526085 -133.558717 
L 251.746384 -138.113904 
L 278.006715 -143.398765 
L 304.186983 -146.525619 
L 330.447314 -152.971956 
L 356.707645 -154.245945 
L 382.967975 -156.527604 
L 409.228306 -161.794817 
L 435.328512 -166.247853 
L 461.588843 -172.099182 
L 487.849174 -172.582443 
L 514.109504 -180.225981 
L 540.369835 -179.989609 
L 566.630165 -180.462195 
L 592.890496 -187.012827 
L 619.150826 -191.160654 
L 645.411157 -196.390707 
L 671.35124 -195.938983 
L 697.61157 -199.760336 
L 723.871901 -201.544406 
L 750.132231 -204.424426 
L 776.392562 -209.897747 
L 802.652893 -212.926142 
L 828.913223 -214.64506 
L 855.173554 -218.906091 
L 881.433884 -219.958082 
L 907.694215 -225.197527 
L 933.954545 -228.103161 
L 933.954545 -234.847059 
L 933.954545 -234.847059 
L 907.694215 -230.979958 
L 881.433884 -224.161057 
L 855.173554 -224.786428 
L 828.913223 -218.482294 
L 802.652893 -219.117798 
L 776.392562 -213.141465 
L 750.132231 -211.631438 
L 723.871901 -205.745783 
L 697.61157 -205.5259 
L 671.35124 -201.766782 
L 645.411157 -202.216665 
L 619.150826 -195.033797 
L 592.890496 -192.532503 
L 566.630165 -186.780957 
L 540.369835 -187.012827 
L 514.109504 -185.392351 
L 487.849174 -179.753078 
L 461.588843 -178.330556 
L 435.328512 -169.916283 
L 409.228306 -166.739185 
L 382.967975 -161.794817 
L 356.707645 -158.543439 
L 330.447314 -157.788849 
L 304.186983 -150.667124 
L 278.006715 -145.490754 
L 251.746384 -142.084949 
L 225.526085 -138.113904 
L 199.28577 -131.665833 
L 173.045455 -125.649818 
z
" style="stroke: #2d1e3e; stroke-opacity: 0.2"/>
    </defs>
    <g clip-path="url(#pb2c584d1b9)">
     <use xlink:href="#m2d7667ca7d" x="0" y="720" style="fill: #2d1e3e; fill-opacity: 0.2; stroke: #2d1e3e; stroke-opacity: 0.2"/>
    </g>
   </g>
   <g id="matplotlib.axis_5">
    <g id="xtick_15">
     <g id="line2d_58">
      <g>
       <use xlink:href="#m2af0497015" x="173.045455" y="640.8" style="stroke: #000000; stroke-width: 0.8"/>
      </g>
     </g>
     <g id="text_32">
      <!-- 0.00 -->
      <g transform="translate(161.912642 655.398438) scale(0.1 -0.1)">
       <use xlink:href="#DejaVuSans-30"/>
       <use xlink:href="#DejaVuSans-2e" x="63.623047"/>
       <use xlink:href="#DejaVuSans-30" x="95.410156"/>
       <use xlink:href="#DejaVuSans-30" x="159.033203"/>
      </g>
     </g>
    </g>
    <g id="xtick_16">
     <g id="line2d_59">
      <g>
       <use xlink:href="#m2af0497015" x="304.219008" y="640.8" style="stroke: #000000; stroke-width: 0.8"/>
      </g>
     </g>
     <g id="text_33">
      <!-- 0.05 -->
      <g transform="translate(293.086196 655.398438) scale(0.1 -0.1)">
       <use xlink:href="#DejaVuSans-30"/>
       <use xlink:href="#DejaVuSans-2e" x="63.623047"/>
       <use xlink:href="#DejaVuSans-30" x="95.410156"/>
       <use xlink:href="#DejaVuSans-35" x="159.033203"/>
      </g>
     </g>
    </g>
    <g id="xtick_17">
     <g id="line2d_60">
      <g>
       <use xlink:href="#m2af0497015" x="435.392562" y="640.8" style="stroke: #000000; stroke-width: 0.8"/>
      </g>
     </g>
     <g id="text_34">
      <!-- 0.10 -->
      <g transform="translate(424.259749 655.398438) scale(0.1 -0.1)">
       <use xlink:href="#DejaVuSans-30"/>
       <use xlink:href="#DejaVuSans-2e" x="63.623047"/>
       <use xlink:href="#DejaVuSans-31" x="95.410156"/>
       <use xlink:href="#DejaVuSans-30" x="159.033203"/>
      </g>
     </g>
    </g>
    <g id="xtick_18">
     <g id="line2d_61">
      <g>
       <use xlink:href="#m2af0497015" x="566.566116" y="640.8" style="stroke: #000000; stroke-width: 0.8"/>
      </g>
     </g>
     <g id="text_35">
      <!-- 0.15 -->
      <g transform="translate(555.433303 655.398438) scale(0.1 -0.1)">
       <use xlink:href="#DejaVuSans-30"/>
       <use xlink:href="#DejaVuSans-2e" x="63.623047"/>
       <use xlink:href="#DejaVuSans-31" x="95.410156"/>
       <use xlink:href="#DejaVuSans-35" x="159.033203"/>
      </g>
     </g>
    </g>
    <g id="xtick_19">
     <g id="line2d_62">
      <g>
       <use xlink:href="#m2af0497015" x="697.739669" y="640.8" style="stroke: #000000; stroke-width: 0.8"/>
      </g>
     </g>
     <g id="text_36">
      <!-- 0.20 -->
      <g transform="translate(686.606857 655.398438) scale(0.1 -0.1)">
       <use xlink:href="#DejaVuSans-30"/>
       <use xlink:href="#DejaVuSans-2e" x="63.623047"/>
       <use xlink:href="#DejaVuSans-32" x="95.410156"/>
       <use xlink:href="#DejaVuSans-30" x="159.033203"/>
      </g>
     </g>
    </g>
    <g id="xtick_20">
     <g id="line2d_63">
      <g>
       <use xlink:href="#m2af0497015" x="828.913223" y="640.8" style="stroke: #000000; stroke-width: 0.8"/>
      </g>
     </g>
     <g id="text_37">
      <!-- 0.25 -->
      <g transform="translate(817.780411 655.398438) scale(0.1 -0.1)">
       <use xlink:href="#DejaVuSans-30"/>
       <use xlink:href="#DejaVuSans-2e" x="63.623047"/>
       <use xlink:href="#DejaVuSans-32" x="95.410156"/>
       <use xlink:href="#DejaVuSans-35" x="159.033203"/>
      </g>
     </g>
    </g>
    <g id="xtick_21">
     <g id="line2d_64">
      <g>
       <use xlink:href="#m2af0497015" x="960.086777" y="640.8" style="stroke: #000000; stroke-width: 0.8"/>
      </g>
     </g>
     <g id="text_38">
      <!-- 0.30 -->
      <g transform="translate(948.953964 655.398438) scale(0.1 -0.1)">
       <use xlink:href="#DejaVuSans-30"/>
       <use xlink:href="#DejaVuSans-2e" x="63.623047"/>
       <use xlink:href="#DejaVuSans-33" x="95.410156"/>
       <use xlink:href="#DejaVuSans-30" x="159.033203"/>
      </g>
     </g>
    </g>
    <g id="text_39">
     <!-- proba_3 -->
     <g transform="translate(533.403906 669.076563) scale(0.1 -0.1)">
      <use xlink:href="#DejaVuSans-70"/>
      <use xlink:href="#DejaVuSans-72" x="63.476562"/>
      <use xlink:href="#DejaVuSans-6f" x="102.339844"/>
      <use xlink:href="#DejaVuSans-62" x="163.521484"/>
      <use xlink:href="#DejaVuSans-61" x="226.998047"/>
      <use xlink:href="#DejaVuSans-5f" x="288.277344"/>
      <use xlink:href="#DejaVuSans-33" x="338.277344"/>
     </g>
    </g>
   </g>
   <g id="matplotlib.axis_6">
    <g id="ytick_17">
     <g id="line2d_65">
      <g>
       <use xlink:href="#mac87223c2f" x="135" y="617.133707" style="stroke: #000000; stroke-width: 0.6"/>
      </g>
     </g>
     <g id="text_40">
      <!-- $\mathdefault{1.2\times10^{2}}$ -->
      <g transform="translate(84.4 620.932926) scale(0.1 -0.1)">
       <defs>
        <path id="DejaVuSans-d7" d="M 4488 3438 
L 3059 2003 
L 4488 575 
L 4116 197 
L 2681 1631 
L 1247 197 
L 878 575 
L 2303 2003 
L 878 3438 
L 1247 3816 
L 2681 2381 
L 4116 3816 
L 4488 3438 
z
" transform="scale(0.015625)"/>
       </defs>
       <use xlink:href="#DejaVuSans-31" transform="translate(0 0.765625)"/>
       <use xlink:href="#DejaVuSans-2e" transform="translate(63.623047 0.765625)"/>
       <use xlink:href="#DejaVuSans-32" transform="translate(89.910156 0.765625)"/>
       <use xlink:href="#DejaVuSans-d7" transform="translate(173.015625 0.765625)"/>
       <use xlink:href="#DejaVuSans-31" transform="translate(276.287109 0.765625)"/>
       <use xlink:href="#DejaVuSans-30" transform="translate(339.910156 0.765625)"/>
       <use xlink:href="#DejaVuSans-32" transform="translate(404.490234 39.046875) scale(0.7)"/>
      </g>
     </g>
    </g>
    <g id="ytick_18">
     <g id="line2d_66">
      <g>
       <use xlink:href="#mac87223c2f" x="135" y="588.876861" style="stroke: #000000; stroke-width: 0.6"/>
      </g>
     </g>
     <g id="text_41">
      <!-- $\mathdefault{1.3\times10^{2}}$ -->
      <g transform="translate(83.8 592.67608) scale(0.1 -0.1)">
       <use xlink:href="#DejaVuSans-31" transform="translate(0 0.765625)"/>
       <use xlink:href="#DejaVuSans-2e" transform="translate(63.623047 0.765625)"/>
       <use xlink:href="#DejaVuSans-33" transform="translate(95.410156 0.765625)"/>
       <use xlink:href="#DejaVuSans-d7" transform="translate(178.515625 0.765625)"/>
       <use xlink:href="#DejaVuSans-31" transform="translate(281.787109 0.765625)"/>
       <use xlink:href="#DejaVuSans-30" transform="translate(345.410156 0.765625)"/>
       <use xlink:href="#DejaVuSans-32" transform="translate(409.990234 39.046875) scale(0.7)"/>
      </g>
     </g>
    </g>
    <g id="ytick_19">
     <g id="line2d_67">
      <g>
       <use xlink:href="#mac87223c2f" x="135" y="562.715108" style="stroke: #000000; stroke-width: 0.6"/>
      </g>
     </g>
     <g id="text_42">
      <!-- $\mathdefault{1.4\times10^{2}}$ -->
      <g transform="translate(83.8 566.514327) scale(0.1 -0.1)">
       <use xlink:href="#DejaVuSans-31" transform="translate(0 0.765625)"/>
       <use xlink:href="#DejaVuSans-2e" transform="translate(63.623047 0.765625)"/>
       <use xlink:href="#DejaVuSans-34" transform="translate(95.410156 0.765625)"/>
       <use xlink:href="#DejaVuSans-d7" transform="translate(178.515625 0.765625)"/>
       <use xlink:href="#DejaVuSans-31" transform="translate(281.787109 0.765625)"/>
       <use xlink:href="#DejaVuSans-30" transform="translate(345.410156 0.765625)"/>
       <use xlink:href="#DejaVuSans-32" transform="translate(409.990234 39.046875) scale(0.7)"/>
      </g>
     </g>
    </g>
    <g id="ytick_20">
     <g id="line2d_68">
      <g>
       <use xlink:href="#mac87223c2f" x="135" y="538.359099" style="stroke: #000000; stroke-width: 0.6"/>
      </g>
     </g>
     <g id="text_43">
      <!-- $\mathdefault{1.5\times10^{2}}$ -->
      <g transform="translate(83.8 542.158318) scale(0.1 -0.1)">
       <use xlink:href="#DejaVuSans-31" transform="translate(0 0.765625)"/>
       <use xlink:href="#DejaVuSans-2e" transform="translate(63.623047 0.765625)"/>
       <use xlink:href="#DejaVuSans-35" transform="translate(95.410156 0.765625)"/>
       <use xlink:href="#DejaVuSans-d7" transform="translate(178.515625 0.765625)"/>
       <use xlink:href="#DejaVuSans-31" transform="translate(281.787109 0.765625)"/>
       <use xlink:href="#DejaVuSans-30" transform="translate(345.410156 0.765625)"/>
       <use xlink:href="#DejaVuSans-32" transform="translate(409.990234 39.046875) scale(0.7)"/>
      </g>
     </g>
    </g>
    <g id="ytick_21">
     <g id="line2d_69">
      <g>
       <use xlink:href="#mac87223c2f" x="135" y="515.575574" style="stroke: #000000; stroke-width: 0.6"/>
      </g>
     </g>
     <g id="text_44">
      <!-- $\mathdefault{1.6\times10^{2}}$ -->
      <g transform="translate(83.8 519.374792) scale(0.1 -0.1)">
       <use xlink:href="#DejaVuSans-31" transform="translate(0 0.765625)"/>
       <use xlink:href="#DejaVuSans-2e" transform="translate(63.623047 0.765625)"/>
       <use xlink:href="#DejaVuSans-36" transform="translate(95.410156 0.765625)"/>
       <use xlink:href="#DejaVuSans-d7" transform="translate(178.515625 0.765625)"/>
       <use xlink:href="#DejaVuSans-31" transform="translate(281.787109 0.765625)"/>
       <use xlink:href="#DejaVuSans-30" transform="translate(345.410156 0.765625)"/>
       <use xlink:href="#DejaVuSans-32" transform="translate(409.990234 39.046875) scale(0.7)"/>
      </g>
     </g>
    </g>
    <g id="ytick_22">
     <g id="line2d_70">
      <g>
       <use xlink:href="#mac87223c2f" x="135" y="494.173742" style="stroke: #000000; stroke-width: 0.6"/>
      </g>
     </g>
     <g id="text_45">
      <!-- $\mathdefault{1.7\times10^{2}}$ -->
      <g transform="translate(84.6 497.97296) scale(0.1 -0.1)">
       <use xlink:href="#DejaVuSans-31" transform="translate(0 0.765625)"/>
       <use xlink:href="#DejaVuSans-2e" transform="translate(63.623047 0.765625)"/>
       <use xlink:href="#DejaVuSans-37" transform="translate(87.660156 0.765625)"/>
       <use xlink:href="#DejaVuSans-d7" transform="translate(170.765625 0.765625)"/>
       <use xlink:href="#DejaVuSans-31" transform="translate(274.037109 0.765625)"/>
       <use xlink:href="#DejaVuSans-30" transform="translate(337.660156 0.765625)"/>
       <use xlink:href="#DejaVuSans-32" transform="translate(402.240234 39.046875) scale(0.7)"/>
      </g>
     </g>
    </g>
    <g id="text_46">
     <!-- Nt_input_size -->
     <g transform="translate(77.442187 592.526838) rotate(-90) scale(0.1 -0.1)">
      <defs>
       <path id="DejaVuSans-4e" d="M 628 4666 
L 1478 4666 
L 3547 763 
L 3547 4666 
L 4159 4666 
L 4159 0 
L 3309 0 
L 1241 3903 
L 1241 0 
L 628 0 
L 628 4666 
z
" transform="scale(0.015625)"/>
       <path id="DejaVuSans-6e" d="M 3513 2113 
L 3513 0 
L 2938 0 
L 2938 2094 
Q 2938 2591 2744 2837 
Q 2550 3084 2163 3084 
Q 1697 3084 1428 2787 
Q 1159 2491 1159 1978 
L 1159 0 
L 581 0 
L 581 3500 
L 1159 3500 
L 1159 2956 
Q 1366 3272 1645 3428 
Q 1925 3584 2291 3584 
Q 2894 3584 3203 3211 
Q 3513 2838 3513 2113 
z
" transform="scale(0.015625)"/>
       <path id="DejaVuSans-75" d="M 544 1381 
L 544 3500 
L 1119 3500 
L 1119 1403 
Q 1119 906 1312 657 
Q 1506 409 1894 409 
Q 2359 409 2629 706 
Q 2900 1003 2900 1516 
L 2900 3500 
L 3475 3500 
L 3475 0 
L 2900 0 
L 2900 538 
Q 2691 219 2414 64 
Q 2138 -91 1772 -91 
Q 1169 -91 856 284 
Q 544 659 544 1381 
z
M 1991 3584 
L 1991 3584 
z
" transform="scale(0.015625)"/>
      </defs>
      <use xlink:href="#DejaVuSans-4e"/>
      <use xlink:href="#DejaVuSans-74" x="74.804688"/>
      <use xlink:href="#DejaVuSans-5f" x="114.013672"/>
      <use xlink:href="#DejaVuSans-69" x="164.013672"/>
      <use xlink:href="#DejaVuSans-6e" x="191.796875"/>
      <use xlink:href="#DejaVuSans-70" x="255.175781"/>
      <use xlink:href="#DejaVuSans-75" x="318.652344"/>
      <use xlink:href="#DejaVuSans-74" x="382.03125"/>
      <use xlink:href="#DejaVuSans-5f" x="421.240234"/>
      <use xlink:href="#DejaVuSans-73" x="471.240234"/>
      <use xlink:href="#DejaVuSans-69" x="523.339844"/>
      <use xlink:href="#DejaVuSans-7a" x="551.123047"/>
      <use xlink:href="#DejaVuSans-65" x="603.613281"/>
     </g>
    </g>
   </g>
   <g id="line2d_71">
    <path d="M 173.045455 630.321126 
L 199.28577 626.071453 
L 225.526085 622.170616 
L 251.746384 615.958923 
L 278.006715 613.62102 
L 304.186983 607.843115 
L 330.447314 603.287928 
L 356.707645 599.349792 
L 382.967975 593.799015 
L 409.228306 591.876681 
L 435.328512 588.876861 
L 461.588843 584.558494 
L 487.849174 581.088305 
L 514.109504 576.077074 
L 540.369835 570.61987 
L 566.630165 570.104509 
L 592.890496 566.263099 
L 619.150826 560.703581 
L 645.411157 555.724343 
L 671.35124 556.219118 
L 697.61157 547.659105 
L 723.871901 548.869329 
L 750.132231 546.934956 
L 776.392562 538.830109 
L 802.652893 535.079507 
L 828.913223 534.380683 
L 855.173554 531.137675 
L 881.433884 531.137675 
L 907.694215 525.873715 
L 933.954545 523.609293 
" clip-path="url(#pb2c584d1b9)" style="fill: none; stroke: #edd1cb; stroke-width: 1.5; stroke-linecap: square"/>
   </g>
   <g id="line2d_72">
    <path d="M 173.045455 615.372994 
L 199.28577 609.566579 
L 225.526085 604.989242 
L 251.746384 602.440335 
L 278.006715 594.074491 
L 304.186983 594.90221 
L 330.447314 588.60541 
L 356.707645 587.251277 
L 382.967975 580.292314 
L 409.228306 574.248617 
L 435.328512 573.467882 
L 461.588843 567.028044 
L 487.849174 567.53893 
L 514.109504 559.952203 
L 540.369835 558.454229 
L 566.630165 555.724343 
L 592.890496 553.506395 
L 619.150826 546.453015 
L 645.411157 544.292383 
L 671.35124 538.123829 
L 697.61157 538.594525 
L 723.871901 532.987173 
L 750.132231 527.467497 
L 776.392562 529.756883 
L 802.652893 525.873715 
L 828.913223 520.239664 
L 855.173554 516.017127 
L 881.433884 514.4741 
L 907.694215 511.8445 
L 933.954545 512.500066 
" clip-path="url(#pb2c584d1b9)" style="fill: none; stroke: #c8879e; stroke-width: 1.5; stroke-linecap: square"/>
   </g>
   <g id="line2d_73">
    <path d="M 173.045455 603.570911 
L 199.28577 599.629635 
L 225.526085 592.424852 
L 251.746384 589.964757 
L 278.006715 585.09541 
L 304.186983 583.219766 
L 330.447314 576.601235 
L 356.707645 575.29229 
L 382.967975 569.589899 
L 409.228306 563.472396 
L 435.328512 562.715108 
L 461.588843 557.707618 
L 487.849174 555.971644 
L 514.109504 550.083717 
L 540.369835 547.176174 
L 566.630165 546.453015 
L 592.890496 542.382861 
L 619.150826 536.481317 
L 645.411157 531.830102 
L 671.35124 532.755455 
L 697.61157 522.482506 
L 723.871901 523.383648 
L 750.132231 523.158147 
L 776.392562 520.016162 
L 802.652893 513.156851 
L 828.913223 514.69412 
L 855.173554 508.368562 
L 881.433884 503.217996 
L 907.694215 504.712498 
L 933.954545 501.942011 
" clip-path="url(#pb2c584d1b9)" style="fill: none; stroke: #834c7d; stroke-width: 1.5; stroke-linecap: square"/>
   </g>
   <g id="line2d_74">
    <path d="M 173.045455 594.90221 
L 199.28577 590.237256 
L 225.526085 584.290342 
L 251.746384 579.762648 
L 278.006715 575.553691 
L 304.186983 571.652854 
L 330.447314 564.484646 
L 356.707645 563.472396 
L 382.967975 560.703581 
L 409.228306 555.724343 
L 435.328512 551.790908 
L 461.588843 545.011125 
L 487.849174 543.814033 
L 514.109504 536.949827 
L 540.369835 536.715494 
L 566.630165 536.247295 
L 592.890496 530.216547 
L 619.150826 527.011396 
L 645.411157 520.911022 
L 671.35124 521.135092 
L 697.61157 517.566929 
L 723.871901 516.459234 
L 750.132231 511.8445 
L 776.392562 508.584808 
L 802.652893 504.071222 
L 828.913223 503.431109 
L 855.173554 498.141497 
L 881.433884 498.141497 
L 907.694215 491.896839 
L 933.954545 488.815451 
" clip-path="url(#pb2c584d1b9)" style="fill: none; stroke: #2d1e3e; stroke-width: 1.5; stroke-linecap: square"/>
   </g>
   <g id="line2d_75"/>
   <g id="line2d_76"/>
   <g id="line2d_77"/>
   <g id="line2d_78"/>
   <g id="line2d_79">
    <path d="M 135 515.575574 
L 972 515.575574 
" clip-path="url(#pb2c584d1b9)" style="fill: none; stroke-dasharray: 5.55,2.4; stroke-dashoffset: 0; stroke: #ff0000; stroke-width: 1.5"/>
   </g>
   <g id="line2d_80">
    <path d="M 135 594.350182 
L 972 594.350182 
" clip-path="url(#pb2c584d1b9)" style="fill: none; stroke-dasharray: 5.55,2.4; stroke-dashoffset: 0; stroke: #ff0000; stroke-width: 1.5"/>
   </g>
   <g id="patch_15">
    <path d="M 135 640.8 
L 135 477.741176 
" style="fill: none; stroke: #000000; stroke-width: 0.8; stroke-linejoin: miter; stroke-linecap: square"/>
   </g>
   <g id="patch_16">
    <path d="M 972 640.8 
L 972 477.741176 
" style="fill: none; stroke: #000000; stroke-width: 0.8; stroke-linejoin: miter; stroke-linecap: square"/>
   </g>
   <g id="patch_17">
    <path d="M 135 640.8 
L 972 640.8 
" style="fill: none; stroke: #000000; stroke-width: 0.8; stroke-linejoin: miter; stroke-linecap: square"/>
   </g>
   <g id="patch_18">
    <path d="M 135 477.741176 
L 972 477.741176 
" style="fill: none; stroke: #000000; stroke-width: 0.8; stroke-linejoin: miter; stroke-linecap: square"/>
   </g>
   <g id="legend_3">
    <g id="patch_19">
     <path d="M 142 559.409926 
L 253.528125 559.409926 
Q 255.528125 559.409926 255.528125 557.409926 
L 255.528125 484.741176 
Q 255.528125 482.741176 253.528125 482.741176 
L 142 482.741176 
Q 140 482.741176 140 484.741176 
L 140 557.409926 
Q 140 559.409926 142 559.409926 
z
" style="fill: #ffffff; opacity: 0.8; stroke: #cccccc; stroke-linejoin: miter"/>
    </g>
    <g id="text_47">
     <!-- proba_1 -->
     <g transform="translate(177.667969 494.339614) scale(0.1 -0.1)">
      <use xlink:href="#DejaVuSans-70"/>
      <use xlink:href="#DejaVuSans-72" x="63.476562"/>
      <use xlink:href="#DejaVuSans-6f" x="102.339844"/>
      <use xlink:href="#DejaVuSans-62" x="163.521484"/>
      <use xlink:href="#DejaVuSans-61" x="226.998047"/>
      <use xlink:href="#DejaVuSans-5f" x="288.277344"/>
      <use xlink:href="#DejaVuSans-31" x="338.277344"/>
     </g>
    </g>
    <g id="line2d_81">
     <path d="M 144 505.795864 
L 154 505.795864 
L 164 505.795864 
" style="fill: none; stroke: #edd1cb; stroke-width: 1.5; stroke-linecap: square"/>
    </g>
    <g id="text_48">
     <!-- 0.7998046875 -->
     <g transform="translate(172 509.295864) scale(0.1 -0.1)">
      <use xlink:href="#DejaVuSans-30"/>
      <use xlink:href="#DejaVuSans-2e" x="63.623047"/>
      <use xlink:href="#DejaVuSans-37" x="95.410156"/>
      <use xlink:href="#DejaVuSans-39" x="159.033203"/>
      <use xlink:href="#DejaVuSans-39" x="222.65625"/>
      <use xlink:href="#DejaVuSans-38" x="286.279297"/>
      <use xlink:href="#DejaVuSans-30" x="349.902344"/>
      <use xlink:href="#DejaVuSans-34" x="413.525391"/>
      <use xlink:href="#DejaVuSans-36" x="477.148438"/>
      <use xlink:href="#DejaVuSans-38" x="540.771484"/>
      <use xlink:href="#DejaVuSans-37" x="604.394531"/>
      <use xlink:href="#DejaVuSans-35" x="668.017578"/>
     </g>
    </g>
    <g id="line2d_82">
     <path d="M 144 520.473989 
L 154 520.473989 
L 164 520.473989 
" style="fill: none; stroke: #c8879e; stroke-width: 1.5; stroke-linecap: square"/>
    </g>
    <g id="text_49">
     <!-- 0.85009765625 -->
     <g transform="translate(172 523.973989) scale(0.1 -0.1)">
      <use xlink:href="#DejaVuSans-30"/>
      <use xlink:href="#DejaVuSans-2e" x="63.623047"/>
      <use xlink:href="#DejaVuSans-38" x="95.410156"/>
      <use xlink:href="#DejaVuSans-35" x="159.033203"/>
      <use xlink:href="#DejaVuSans-30" x="222.65625"/>
      <use xlink:href="#DejaVuSans-30" x="286.279297"/>
      <use xlink:href="#DejaVuSans-39" x="349.902344"/>
      <use xlink:href="#DejaVuSans-37" x="413.525391"/>
      <use xlink:href="#DejaVuSans-36" x="477.148438"/>
      <use xlink:href="#DejaVuSans-35" x="540.771484"/>
      <use xlink:href="#DejaVuSans-36" x="604.394531"/>
      <use xlink:href="#DejaVuSans-32" x="668.017578"/>
      <use xlink:href="#DejaVuSans-35" x="731.640625"/>
     </g>
    </g>
    <g id="line2d_83">
     <path d="M 144 535.152114 
L 154 535.152114 
L 164 535.152114 
" style="fill: none; stroke: #834c7d; stroke-width: 1.5; stroke-linecap: square"/>
    </g>
    <g id="text_50">
     <!-- 0.89990234375 -->
     <g transform="translate(172 538.652114) scale(0.1 -0.1)">
      <use xlink:href="#DejaVuSans-30"/>
      <use xlink:href="#DejaVuSans-2e" x="63.623047"/>
      <use xlink:href="#DejaVuSans-38" x="95.410156"/>
      <use xlink:href="#DejaVuSans-39" x="159.033203"/>
      <use xlink:href="#DejaVuSans-39" x="222.65625"/>
      <use xlink:href="#DejaVuSans-39" x="286.279297"/>
      <use xlink:href="#DejaVuSans-30" x="349.902344"/>
      <use xlink:href="#DejaVuSans-32" x="413.525391"/>
      <use xlink:href="#DejaVuSans-33" x="477.148438"/>
      <use xlink:href="#DejaVuSans-34" x="540.771484"/>
      <use xlink:href="#DejaVuSans-33" x="604.394531"/>
      <use xlink:href="#DejaVuSans-37" x="668.017578"/>
      <use xlink:href="#DejaVuSans-35" x="731.640625"/>
     </g>
    </g>
    <g id="line2d_84">
     <path d="M 144 549.830239 
L 154 549.830239 
L 164 549.830239 
" style="fill: none; stroke: #2d1e3e; stroke-width: 1.5; stroke-linecap: square"/>
    </g>
    <g id="text_51">
     <!-- 0.9501953125 -->
     <g transform="translate(172 553.330239) scale(0.1 -0.1)">
      <use xlink:href="#DejaVuSans-30"/>
      <use xlink:href="#DejaVuSans-2e" x="63.623047"/>
      <use xlink:href="#DejaVuSans-39" x="95.410156"/>
      <use xlink:href="#DejaVuSans-35" x="159.033203"/>
      <use xlink:href="#DejaVuSans-30" x="222.65625"/>
      <use xlink:href="#DejaVuSans-31" x="286.279297"/>
      <use xlink:href="#DejaVuSans-39" x="349.902344"/>
      <use xlink:href="#DejaVuSans-35" x="413.525391"/>
      <use xlink:href="#DejaVuSans-33" x="477.148438"/>
      <use xlink:href="#DejaVuSans-31" x="540.771484"/>
      <use xlink:href="#DejaVuSans-32" x="604.394531"/>
      <use xlink:href="#DejaVuSans-35" x="668.017578"/>
     </g>
    </g>
   </g>
  </g>
 </g>
 <defs>
  <clipPath id="pef0ef0ec29">
   <rect x="135" y="86.4" width="837" height="163.058824"/>
  </clipPath>
  <clipPath id="p5732dc24cf">
   <rect x="135" y="282.070588" width="837" height="163.058824"/>
  </clipPath>
  <clipPath id="pb2c584d1b9">
   <rect x="135" y="477.741176" width="837" height="163.058824"/>
  </clipPath>
 </defs>
</svg>
